<svg width="157" height="48" viewBox="0 0 157 48" fill="none" xmlns="http://www.w3.org/2000/svg">
<path d="M25.2841 0.00527337L0.243776 3.95913C-0.0773136 4.01069 -0.0820013 4.47006 0.234401 4.52865L4.96403 5.41927C5.09997 5.44505 5.1984 5.56458 5.1984 5.70286V9.93093C5.1984 10.0434 5.13278 10.1419 5.032 10.1934C4.64529 10.3833 4.3781 10.7817 4.3781 11.2434C4.3781 11.5387 4.48826 11.8059 4.66638 12.0122C4.71325 12.0661 4.73904 12.134 4.73904 12.2043V14.1988C4.73904 14.4121 4.85856 14.5973 5.03669 14.691C5.13278 14.7426 5.1984 14.8387 5.1984 14.9512V15.6262C5.1984 15.7082 5.16325 15.7855 5.10231 15.8418C4.98513 15.9519 4.91013 16.1019 4.90075 16.273H4.89841L3.7828 23.6933C3.75467 23.869 3.89061 24.0261 4.06639 24.0261H7.02651C7.20229 24.0261 7.33822 23.869 7.31244 23.6933L6.19449 16.273H6.19214C6.18511 16.1043 6.10777 15.9519 5.99058 15.8418C5.92965 15.7855 5.89449 15.7082 5.89449 15.6262V14.9512C5.89449 14.8387 5.96011 14.7426 6.05621 14.691C6.23433 14.5973 6.35386 14.4121 6.35386 14.1988V12.2043C6.35386 12.1317 6.37964 12.0661 6.42652 12.0122C6.60464 11.8059 6.71479 11.5387 6.71479 11.2434C6.71479 10.7817 6.44761 10.3833 6.06089 10.1934C5.96011 10.1442 5.89449 10.0434 5.89449 9.93093V5.94192C5.89449 5.76145 6.05855 5.62551 6.23667 5.65833L11.5522 6.6591L25.2021 9.22781C25.2841 9.24188 25.3708 9.24188 25.4529 9.22781L39.1027 6.6591L50.4205 4.52865C50.7393 4.47006 50.7322 4.01069 50.4111 3.95913L25.3732 0.00527337C25.3427 -0.00175779 25.3122 -0.00175779 25.2818 0.00527337H25.2841Z" fill="white" fill-opacity="0.74902"/>
<path d="M39.2104 18.6591C38.8354 18.1997 38.4346 17.7591 38.0104 17.3349C37.8862 17.2106 37.7596 17.0864 37.6331 16.9669C37.5159 16.8567 37.5393 16.6669 37.6799 16.5896C37.7104 16.5732 37.7385 16.5591 37.7667 16.5427C38.7815 15.9708 39.3581 15.3216 39.3581 14.6302V7.46077C39.3581 7.31546 39.2245 7.2053 39.0815 7.23108L25.3731 9.81152C25.3426 9.81621 25.3145 9.81621 25.2863 9.81152L11.5756 7.23108C11.4326 7.2053 11.299 7.31546 11.299 7.46077V14.6302C11.299 15.3216 11.8732 15.9708 12.8904 16.5427C12.9185 16.5591 12.949 16.5732 12.9771 16.5896C13.1177 16.6646 13.1412 16.8567 13.024 16.9669C12.8974 17.0864 12.7709 17.2106 12.6467 17.3349C12.2224 17.7591 11.8217 18.1997 11.449 18.6591C11.3037 18.8348 11.1631 19.013 11.0271 19.1934C8.66936 22.2989 7.39203 26.0699 7.39203 30.0378C7.39203 34.0057 8.54514 37.3994 10.6803 40.4111C10.8115 40.5939 10.9475 40.7767 11.0857 40.9572C11.5639 41.5783 12.0842 42.1736 12.6467 42.7384C15.6419 45.7384 19.5091 47.5454 23.6762 47.9251C24.1356 47.9649 24.5996 47.9907 25.066 47.9954C25.1528 47.9977 25.2418 48.0001 25.3285 48.0001C25.4176 48.0001 25.5043 47.9977 25.5934 47.9954C26.0598 47.9907 26.5238 47.9649 26.9832 47.9251C31.1503 47.5454 35.0175 45.7384 38.0128 42.7384C38.5752 42.1736 39.0956 41.5783 39.5737 40.9572C39.712 40.7767 39.8455 40.5939 39.9768 40.4111C42.1143 37.3994 43.2674 33.8065 43.2674 30.0378C43.2674 26.0699 41.9901 22.2989 39.6323 19.1934C39.4963 19.013 39.3557 18.8348 39.2104 18.6591ZM38.4323 18.8067C38.5307 18.9192 38.5002 19.0927 38.369 19.1653C38.0245 19.3575 37.6565 19.5426 37.2651 19.7208C36.1284 20.2411 34.8558 20.677 33.4847 21.0239C33.3745 21.052 33.262 20.9958 33.2152 20.8903C32.8589 20.0981 32.4558 19.3294 32.0058 18.5888C31.9214 18.4481 32.0058 18.2653 32.1675 18.2372C33.8901 17.9536 35.3878 17.5669 36.5643 17.1028C36.6464 17.07 36.7401 17.0864 36.8057 17.145C37.3846 17.663 37.9284 18.2184 38.4323 18.8067ZM31.148 18.5231C31.6449 19.2942 32.0925 20.1098 32.4863 20.9606C32.5495 21.0965 32.4699 21.2582 32.3245 21.2887C30.3277 21.7036 28.1551 21.9379 25.9051 21.9731C25.7738 21.9731 25.6684 21.8676 25.6684 21.7364V18.9895C25.6684 18.8606 25.7715 18.7575 25.9004 18.7552C27.6793 18.7341 29.3738 18.6169 30.923 18.4177C31.0121 18.4083 31.1011 18.4481 31.148 18.5231ZM25.9027 30.3777H34.1808C34.312 30.3777 34.4198 30.4855 34.4151 30.6191C34.3378 32.9933 33.8831 35.2596 33.1167 37.3455C33.0745 37.4557 32.9597 37.5166 32.8448 37.4932C30.6957 37.0151 28.3402 36.7479 25.8981 36.7127C25.7715 36.7104 25.6684 36.6073 25.6684 36.4784V30.612C25.6684 30.4831 25.7715 30.3777 25.9027 30.3777ZM25.6684 29.4613V22.8871C25.6684 22.7582 25.7715 22.6551 25.8981 22.6528C28.2816 22.6176 30.5808 22.3621 32.6855 21.9075C32.798 21.884 32.9128 21.9426 32.9527 22.0504C33.848 24.3238 34.3659 26.8269 34.4198 29.4589C34.4222 29.5878 34.3167 29.6956 34.1855 29.6956H25.9027C25.7715 29.6956 25.6684 29.5902 25.6684 29.4613ZM14.0927 17.1028C15.2669 17.5645 16.7646 17.9536 18.4872 18.2372C18.6513 18.263 18.7356 18.4481 18.6489 18.5888C18.1989 19.327 17.7958 20.0958 17.4396 20.8903C17.3927 20.9934 17.2802 21.052 17.17 21.0239C15.799 20.677 14.5263 20.2411 13.3896 19.7208C12.9982 19.5426 12.6302 19.3575 12.2857 19.1653C12.1545 19.0927 12.124 18.9192 12.2224 18.8067C12.7263 18.2161 13.2701 17.6606 13.849 17.145C13.9146 17.0864 14.0084 17.07 14.0927 17.1028ZM11.4865 19.7301C11.5568 19.6341 11.6857 19.6083 11.7889 19.6669C12.1967 19.9012 12.6373 20.1262 13.1084 20.3419C14.2357 20.8551 15.4896 21.2911 16.8396 21.6403C16.9755 21.6754 17.0505 21.8207 16.9989 21.9543C16.099 24.3004 15.6044 26.841 15.5552 29.466C15.5529 29.5925 15.4474 29.6956 15.3208 29.6956H8.31546C8.18421 29.6956 8.07874 29.5855 8.08343 29.4519C8.2053 25.8168 9.45216 22.4629 11.4865 19.7301ZM8.31546 30.3777H15.3255C15.4521 30.3777 15.5552 30.4784 15.5599 30.605C15.6302 32.9886 16.0708 35.2995 16.8466 37.458C16.8935 37.5893 16.8208 37.7299 16.6872 37.7651C15.3958 38.1073 14.1912 38.5291 13.1084 39.0236C12.5013 39.3025 11.9435 39.5979 11.4373 39.9072C11.3318 39.9729 11.1959 39.9424 11.1232 39.8416C9.30216 37.2026 8.19593 34.0339 8.08108 30.6191C8.07874 30.4855 8.18421 30.3777 8.31546 30.3777ZM11.8217 40.7814C11.7326 40.6689 11.7631 40.5049 11.8826 40.4322C12.342 40.158 12.8435 39.8955 13.3896 39.6447C14.4771 39.1479 15.6888 38.7283 16.9919 38.3885C17.1021 38.3604 17.2193 38.419 17.2661 38.5268C18.1333 40.5799 19.3169 42.4759 20.7887 44.1306C21.6934 45.1478 22.6778 46.0431 23.7254 46.8071C23.9176 46.9478 23.8004 47.2524 23.5614 47.229C18.82 46.7439 14.6412 44.3275 11.8217 40.7814ZM24.6231 46.5915C21.7684 44.6603 19.4505 41.8244 17.9786 38.4377C17.92 38.3018 18.0021 38.1471 18.145 38.1166C20.1934 37.676 22.4293 37.4299 24.7496 37.3948C24.8809 37.3924 24.9863 37.4979 24.9863 37.6291V46.397C24.9863 46.5845 24.7778 46.697 24.6207 46.5915H24.6231ZM24.7567 36.7127C22.3145 36.7479 19.9591 37.0151 17.8099 37.4909C17.6974 37.5166 17.5802 37.4557 17.5403 37.3455C16.7716 35.2596 16.3169 32.9909 16.2419 30.6191C16.2372 30.4855 16.3427 30.3777 16.474 30.3777H24.7543C24.8832 30.3777 24.9887 30.4808 24.9887 30.612V36.4784C24.9887 36.6073 24.8856 36.7104 24.7567 36.7127ZM24.7543 29.6956H16.4693C16.338 29.6956 16.2325 29.5878 16.2349 29.4589C16.2888 26.8269 16.8068 24.3238 17.7021 22.0504C17.7442 21.9426 17.8567 21.884 17.9692 21.9075C20.0763 22.3621 22.3754 22.6176 24.7567 22.6528C24.8856 22.6551 24.9887 22.7582 24.9887 22.8871V29.4613C24.9887 29.5925 24.8832 29.6956 24.7543 29.6956ZM18.1685 20.9606C18.5622 20.1098 19.0099 19.2942 19.5067 18.5231C19.5536 18.4458 19.6427 18.4059 19.7317 18.4177C21.2809 18.6169 22.9754 18.7341 24.7543 18.7552C24.8832 18.7575 24.9863 18.8606 24.9863 18.9895V21.7364C24.9863 21.8676 24.8809 21.9731 24.7496 21.9707C22.4997 21.9379 20.3294 21.7036 18.3325 21.2887C18.1849 21.2582 18.1052 21.0965 18.1685 20.9606ZM25.9051 37.3948C28.2254 37.4299 30.4636 37.676 32.5097 38.1166C32.6527 38.1471 32.7347 38.3018 32.6761 38.4377C31.2042 41.8244 28.8863 44.6603 26.0316 46.5915C25.877 46.697 25.6684 46.5845 25.6684 46.397V37.6291C25.6684 37.4979 25.7738 37.3924 25.9051 37.3948ZM27.0934 47.229C26.8566 47.2524 26.7371 46.9478 26.9293 46.8071C27.9793 46.0407 28.9636 45.1478 29.8683 44.1306C31.3402 42.4736 32.5238 40.5799 33.3909 38.5268C33.4355 38.419 33.5527 38.3604 33.6652 38.3885C34.9683 38.7283 36.1776 39.1479 37.2651 39.6447C37.8112 39.8932 38.3151 40.158 38.7721 40.4322C38.894 40.5049 38.9221 40.6689 38.8331 40.7814C36.0136 44.3275 31.8347 46.7439 27.0934 47.229ZM39.5315 39.8416C39.4612 39.9424 39.3229 39.9729 39.2174 39.9072C38.7112 39.5979 38.1557 39.3025 37.5487 39.0236C36.4636 38.5291 35.2612 38.1073 33.9698 37.7651C33.8362 37.7299 33.7612 37.5893 33.8081 37.458C34.5839 35.2995 35.0245 32.9886 35.0972 30.605C35.0995 30.4784 35.2026 30.3777 35.3292 30.3777H42.3393C42.4705 30.3777 42.576 30.4855 42.5736 30.6191C42.4588 34.0339 41.3526 37.2026 39.5315 39.8416ZM35.1019 29.466C35.0503 26.841 34.5558 24.3004 33.6558 21.9543C33.6042 21.8207 33.6792 21.6754 33.8175 21.6403C35.1651 21.2911 36.4214 20.8551 37.5487 20.3419C38.0174 20.1262 38.4581 19.9012 38.8682 19.6669C38.969 19.6083 39.1002 19.6341 39.1706 19.7301C41.2049 22.4629 42.4518 25.8168 42.5736 29.4519C42.5783 29.5855 42.4729 29.6956 42.3393 29.6956H35.3362C35.2073 29.6956 35.1042 29.5925 35.1019 29.466Z" fill="white" fill-opacity="0.74902"/>
<path d="M17.857 35.2641H13.6289C13.4789 35.2641 13.3594 35.1446 13.3594 34.9946V34.9852C13.3594 34.8446 13.4672 34.7274 13.6078 34.718C13.7977 34.7016 13.957 34.6782 14.0883 34.643C14.2687 34.5938 14.4094 34.5024 14.5078 34.3688C14.6039 34.2352 14.6719 34.0454 14.707 33.8016C14.7445 33.5556 14.7609 33.2227 14.7609 32.8056V27.4314C14.7609 27.0564 14.7445 26.747 14.714 26.5033C14.6836 26.2572 14.6226 26.065 14.5336 25.9221C14.4445 25.7791 14.318 25.6783 14.1539 25.6197C14.0391 25.5799 13.8961 25.5494 13.7273 25.5283C13.5937 25.5119 13.493 25.3971 13.493 25.2611V25.24C13.493 25.0924 13.6125 24.9729 13.7625 24.9729H17.7234C17.871 24.9729 17.9906 25.0924 17.9906 25.24V25.2611C17.9906 25.3971 17.8898 25.5119 17.7562 25.5283C17.5874 25.5494 17.4445 25.5799 17.3296 25.6197C17.1656 25.6783 17.039 25.7791 16.95 25.9221C16.8609 26.065 16.8 26.2572 16.7695 26.5033C16.739 26.7494 16.7226 27.0588 16.7226 27.4314V32.8056C16.7226 33.2227 16.739 33.5556 16.7695 33.8016C16.8 34.0454 16.8679 34.2352 16.9711 34.3688C17.0718 34.5024 17.2148 34.5938 17.3976 34.643C17.5265 34.6782 17.6859 34.7016 17.8757 34.718C18.0164 34.7274 18.1242 34.8446 18.1242 34.9852V34.9946C18.1242 35.1446 18.0046 35.2641 17.857 35.2641Z" fill="white"/>
<path d="M28.7996 27.8345C28.7996 28.7955 28.4246 29.529 27.677 30.0329C26.9293 30.5368 25.8442 30.7876 24.4216 30.7876H23.5544C23.4067 30.7876 23.2872 30.9072 23.2872 31.0572V33.1407C23.2872 33.4782 23.3083 33.7524 23.3528 33.961C23.3974 34.172 23.4911 34.3337 23.6341 34.4509C23.777 34.5657 23.9716 34.6407 24.22 34.6782C24.4145 34.7063 24.6606 34.7227 24.9606 34.7274C25.1059 34.7321 25.2208 34.8516 25.2208 34.9969C25.2208 35.1446 25.1012 35.2665 24.9536 35.2665H20.1911C20.0435 35.2665 19.924 35.1446 19.924 34.9969V34.9852C19.924 34.8446 20.0318 34.7274 20.1724 34.718C20.3552 34.704 20.5122 34.6805 20.6435 34.6501C20.831 34.6055 20.9716 34.5305 21.07 34.4227C21.1685 34.3149 21.2341 34.1649 21.2716 33.9681C21.3068 33.7712 21.3232 33.5181 21.3232 33.2063V27.0306C21.3232 26.7189 21.3091 26.4681 21.2786 26.276C21.2458 26.0838 21.1872 25.9314 21.0982 25.8213C21.0091 25.7088 20.8825 25.6338 20.7161 25.5939C20.606 25.5658 20.4701 25.5447 20.3107 25.5283C20.1747 25.5119 20.0693 25.3971 20.0693 25.2611V25.24C20.0693 25.0924 20.1911 24.9729 20.3388 24.9729H24.6888C26.0411 24.9729 27.0629 25.2119 27.7567 25.6924C28.4504 26.1752 28.7973 26.8877 28.7973 27.8322L28.7996 27.8345ZM23.2872 29.7165C23.2872 29.8642 23.4067 29.9861 23.5544 29.9861H24.1544C25.0169 29.9861 25.6497 29.8126 26.0505 29.4634C26.4489 29.1165 26.6504 28.5681 26.6504 27.8205C26.6504 27.1525 26.4817 26.6346 26.1419 26.2689C25.8044 25.9033 25.2747 25.7228 24.5552 25.7228H23.5286C23.3669 25.7228 23.2872 25.7978 23.2872 25.9502V29.7165Z" fill="white"/>
<path d="M30.0136 31.8564H30.0417C30.1683 31.8564 30.2784 31.9478 30.3042 32.0744C30.4518 32.8174 30.7776 33.4127 31.2792 33.8556C31.8323 34.3408 32.512 34.5845 33.3229 34.5845C33.651 34.5845 33.9534 34.5423 34.2299 34.4627C34.5065 34.383 34.7409 34.2681 34.9377 34.1228C35.1323 33.9752 35.2846 33.8017 35.3924 33.6025C35.4979 33.401 35.5518 33.176 35.5518 32.9275C35.5518 32.7119 35.519 32.5291 35.451 32.3721C35.3854 32.215 35.2565 32.065 35.0713 31.9174C34.8838 31.7697 34.6284 31.6197 34.3026 31.4697C33.9791 31.3174 33.5573 31.1439 33.0417 30.9494C32.001 30.5463 31.2323 30.0822 30.7331 29.5526C30.2362 29.0205 29.9878 28.3948 29.9878 27.6729C29.9878 27.2557 30.0675 26.8713 30.2268 26.5245C30.3862 26.1776 30.6112 25.8776 30.8995 25.6292C31.1901 25.3784 31.537 25.1862 31.9425 25.0479C32.3456 24.9097 32.7932 24.8393 33.2831 24.8393C33.7377 24.8393 34.1643 24.912 34.5651 25.055C34.8698 25.1628 35.1744 25.3128 35.4744 25.5073C35.6198 25.5987 35.8119 25.5307 35.8682 25.369L35.9291 25.205C35.9666 25.0972 36.0674 25.0268 36.1799 25.0268H36.1916C36.3393 25.0268 36.4611 25.1487 36.4611 25.2964V27.6471C36.4611 27.7948 36.3393 27.9143 36.1916 27.9143H36.1354C36.0205 27.9143 35.9197 27.8416 35.8822 27.7315C35.669 27.0893 35.3526 26.5924 34.9377 26.2362C34.4854 25.8495 33.9604 25.655 33.3627 25.655C32.812 25.655 32.3643 25.7909 32.0221 26.0628C31.68 26.3346 31.5089 26.6838 31.5089 27.1128C31.5089 27.2979 31.5393 27.4667 31.6026 27.6143C31.6635 27.7596 31.7807 27.9002 31.9495 28.0338C32.1182 28.1674 32.3503 28.3034 32.6432 28.4416C32.9362 28.5799 33.3159 28.7346 33.7776 28.9034C34.3987 29.1424 34.9307 29.3862 35.3713 29.6322C35.8119 29.876 36.1729 30.1385 36.4518 30.4197C36.733 30.701 36.9393 30.9963 37.0729 31.308C37.2065 31.6197 37.2744 31.9643 37.2744 32.3369C37.2744 32.7916 37.176 33.2064 36.9791 33.5814C36.7846 33.9564 36.5104 34.2752 36.1588 34.5447C35.8072 34.8119 35.3877 35.0205 34.9049 35.1728C34.4198 35.3251 33.8831 35.4001 33.2971 35.4001C32.7628 35.4001 32.2823 35.3251 31.8557 35.1798C31.5182 35.0626 31.1737 34.8892 30.8198 34.6595C30.6745 34.5658 30.4776 34.6361 30.4214 34.8025L30.33 35.0814C30.2925 35.1916 30.1893 35.2666 30.0745 35.2666H30.0159C29.8683 35.2666 29.7464 35.1447 29.7464 34.997V32.126C29.7464 31.976 29.8683 31.8564 30.0159 31.8564H30.0136Z" fill="white"/>
<path d="M54.55 46.8306V1.1702" stroke="white" stroke-width="0.99924"/>
<path d="M60.1728 13.6737L60.1751 5.27385H61.7313V13.6737H60.1728ZM64.0001 13.6737V5.27385H65.2821L70.5414 11.7425H69.9062L69.9086 5.2762H71.4531L71.4508 13.6761H70.1687L64.9094 7.20742H65.5446V13.6737H64.0001ZM76.2999 13.7956C75.6437 13.7956 75.0179 13.7042 74.4179 13.5191C73.8203 13.3269 73.3445 13.0831 72.9929 12.7878L73.532 11.5761C73.8671 11.841 74.282 12.0589 74.7788 12.237C75.2734 12.4128 75.7796 12.4995 76.2999 12.4995C76.7382 12.4995 77.0944 12.4527 77.3663 12.3566C77.6382 12.2605 77.8374 12.1316 77.9663 11.9722C78.0929 11.8035 78.1561 11.616 78.1561 11.4097C78.1561 11.1519 78.0647 10.948 77.8819 10.7957C77.6968 10.6363 77.4577 10.5121 77.1624 10.4253C76.8741 10.3293 76.5507 10.2402 76.1921 10.1605C75.8405 10.0808 75.4843 9.98707 75.1257 9.88395C74.7742 9.77145 74.4507 9.63317 74.1554 9.46442C73.8671 9.28864 73.6328 9.05662 73.4476 8.76834C73.2648 8.48006 73.1734 8.1121 73.1734 7.66445C73.1734 7.20742 73.2929 6.79258 73.532 6.41524C73.7804 6.03087 74.1507 5.72853 74.6476 5.50354C75.1491 5.27151 75.7843 5.15667 76.553 5.15667C77.0546 5.15667 77.5538 5.21995 78.0507 5.34885C78.5452 5.47776 78.9764 5.66057 79.3444 5.89963L78.8522 7.11367C78.4772 6.88867 78.0905 6.72461 77.6897 6.62149C77.2913 6.50899 76.9069 6.45274 76.539 6.45274C76.1077 6.45274 75.7562 6.5043 75.4866 6.60743C75.2218 6.7129 75.0249 6.84883 74.8984 7.01524C74.7788 7.18398 74.7179 7.37617 74.7179 7.59179C74.7179 7.84726 74.807 8.05585 74.9827 8.21522C75.1656 8.36756 75.4023 8.48709 75.6882 8.57615C75.9835 8.66521 76.3116 8.75193 76.6702 8.84099C77.0312 8.92068 77.3874 9.01208 77.7366 9.11755C78.0975 9.22068 78.421 9.35661 78.7069 9.52536C79.0046 9.69176 79.2389 9.92145 79.4147 10.2097C79.5999 10.4957 79.6913 10.8613 79.6913 11.3019C79.6913 11.7495 79.5671 12.1644 79.3186 12.5488C79.0796 12.9238 78.7069 13.2284 78.2054 13.4605C77.7015 13.6855 77.0663 13.7956 76.2999 13.7956ZM82.8178 13.6761L82.8201 6.59805L80.0405 6.59571V5.2762L87.1584 5.27854V6.59805H84.3787L84.3764 13.6784L82.8178 13.6761ZM88.3256 13.6784V5.27854H89.8841V13.6784H88.3256ZM93.852 13.6784L93.8544 6.59805H91.0747V5.27854H98.1903V6.59805H95.4106V13.6784H93.852ZM102.814 13.8003C101.664 13.8003 100.761 13.4745 100.105 12.8277C99.4582 12.1785 99.1348 11.2433 99.1348 10.0199L99.1371 5.27854H100.693V9.95895C100.693 10.8238 100.876 11.4519 101.244 11.8433C101.619 12.2347 102.146 12.4316 102.826 12.4316C103.503 12.4316 104.028 12.2347 104.396 11.8433C104.762 11.4519 104.947 10.8238 104.947 9.95895V5.28088H106.48V10.0199C106.48 11.2433 106.152 12.1808 105.498 12.8277C104.851 13.4769 103.956 13.8003 102.814 13.8003ZM110.211 13.6808V6.6004H107.432V5.28088H114.549V6.6004H111.77L111.767 13.6808H110.211ZM117.156 8.77303H121.325V10.0574H117.156V8.77303ZM117.275 12.373H122.007V13.6831L115.717 13.6808L115.719 5.28088L121.841 5.28323V6.59102L117.275 6.58868V12.373ZM130.986 13.8026C130.33 13.8026 129.727 13.6948 129.177 13.4792C128.624 13.2636 128.145 12.9636 127.738 12.5792C127.33 12.1878 127.016 11.7308 126.793 11.2105C126.568 10.6832 126.456 10.1066 126.456 9.48317C126.456 8.85974 126.568 8.28553 126.793 7.76757C127.016 7.23789 127.332 6.78321 127.74 6.39884C128.148 6.00744 128.626 5.70275 129.177 5.48713C129.727 5.27151 130.327 5.1637 130.974 5.1637C131.628 5.1637 132.228 5.27151 132.772 5.48713C133.323 5.70275 133.801 6.00744 134.209 6.39884C134.616 6.78321 134.933 7.24023 135.155 7.76757C135.378 8.28788 135.491 8.85974 135.491 9.48317C135.491 10.1066 135.378 10.6832 135.155 11.2128C134.93 11.7402 134.616 12.1949 134.209 12.5792C133.801 12.9636 133.32 13.2636 132.77 13.4792C132.226 13.6948 131.633 13.8026 130.986 13.8026ZM130.972 12.4363C131.396 12.4363 131.788 12.3636 132.146 12.2183C132.507 12.0753 132.819 11.8714 133.081 11.6066C133.346 11.3347 133.55 11.023 133.693 10.6714C133.845 10.3105 133.92 9.91442 133.92 9.48317C133.92 9.05193 133.845 8.66053 133.693 8.30663C133.55 7.94804 133.346 7.63632 133.084 7.37148C132.819 7.09961 132.507 6.89102 132.148 6.74805C131.788 6.60274 131.396 6.53243 130.974 6.53009C130.55 6.53009 130.159 6.60274 129.8 6.74805C129.448 6.89102 129.137 7.09961 128.865 7.37148C128.602 7.63398 128.394 7.94804 128.241 8.30663C128.099 8.65818 128.026 9.05193 128.026 9.48317C128.026 9.90739 128.099 10.2988 128.241 10.6597C128.394 11.0183 128.6 11.3347 128.865 11.6066C129.127 11.8714 129.439 12.0753 129.798 12.2183C130.159 12.3636 130.55 12.4339 130.972 12.4363ZM138.568 9.14802H142.749V10.4675H138.568V9.14802ZM138.699 13.6831H137.141L137.143 5.28323L143.265 5.28557V6.59337L138.699 6.59102V13.6831ZM60.1704 28.315L60.1728 19.9151H63.6227C64.3657 19.9151 65.0008 20.0346 65.5282 20.2737C66.0625 20.5151 66.475 20.8596 66.7633 21.3072C67.0492 21.7549 67.1946 22.2869 67.1922 22.9033C67.1922 23.5197 67.0492 24.0517 66.761 24.4994C66.475 24.947 66.0625 25.2916 65.5282 25.5306C65.0008 25.7697 64.3657 25.8916 63.6227 25.8916L61.0353 25.8892L61.729 25.158V28.315H60.1704ZM61.729 25.3267L61.0353 24.5697H63.5501C64.2368 24.5697 64.7524 24.4267 65.0969 24.1385C65.4485 23.8431 65.6243 23.4307 65.6243 22.9033C65.6243 22.3666 65.4485 21.9541 65.0969 21.6658C64.7524 21.3776 64.2368 21.2346 63.5501 21.2346H61.0353L61.729 20.4658V25.3267ZM68.7484 28.315V19.9151H72.1984C72.9414 19.9151 73.5765 20.0369 74.1038 20.276C74.6406 20.5151 75.0507 20.8596 75.339 21.3072C75.6273 21.7572 75.7702 22.2893 75.7702 22.9033C75.7702 23.5197 75.6273 24.0517 75.339 24.4994C75.0507 24.94 74.6406 25.2798 74.1038 25.5189C73.5765 25.7509 72.9414 25.8681 72.1984 25.8681H69.6109L70.307 25.1603V28.315H68.7484ZM74.2351 28.315L72.114 25.2681H73.7804L75.9132 28.315H74.2351ZM70.307 25.3267L69.6109 24.5838H72.1281C72.8148 24.5838 73.3304 24.4361 73.6726 24.1408C74.0242 23.8431 74.1999 23.433 74.1999 22.9033C74.1999 22.3689 74.0242 21.9565 73.6726 21.6682C73.3304 21.3799 72.8148 21.2346 72.1281 21.2346H69.6109L70.307 20.4682V25.3267ZM81.442 28.4368C80.7858 28.4368 80.1835 28.329 79.6327 28.1134C79.0819 27.8954 78.6014 27.5954 78.196 27.2134C77.7882 26.8197 77.4718 26.365 77.2491 25.8447C77.0241 25.3173 76.914 24.7408 76.914 24.1174C76.914 23.4916 77.0241 22.9197 77.2491 22.3994C77.4718 21.8721 77.7882 21.4174 78.196 21.033C78.6038 20.6416 79.0819 20.3369 79.6327 20.1213C80.1858 19.9057 80.7835 19.7979 81.4303 19.7979C82.0866 19.7979 82.6842 19.9057 83.228 20.1213C83.7787 20.3369 84.2592 20.6416 84.667 21.033C85.0725 21.4174 85.3889 21.8744 85.6115 22.4018C85.8365 22.9221 85.949 23.4939 85.9467 24.1174C85.9467 24.7408 85.8365 25.3173 85.6115 25.8447C85.3889 26.3744 85.0725 26.829 84.6647 27.2134C84.2569 27.5978 83.7787 27.8978 83.228 28.1134C82.6842 28.329 82.0889 28.4368 81.442 28.4368ZM81.4303 27.0681C81.8545 27.0681 82.2459 26.9978 82.6045 26.8525C82.9631 26.7095 83.2748 26.5056 83.5397 26.2408C83.8022 25.9689 84.0061 25.6572 84.149 25.3056C84.3014 24.9447 84.3787 24.5486 84.3787 24.1174C84.3787 23.6861 84.3014 23.2924 84.1514 22.9408C84.0061 22.5822 83.8022 22.2682 83.5397 22.0057C83.2748 21.7338 82.9655 21.5252 82.6045 21.3799C82.2459 21.2369 81.8545 21.1643 81.4303 21.1643C81.0061 21.1643 80.6171 21.2369 80.2561 21.3799C79.9046 21.5252 79.5928 21.7315 79.321 22.0057C79.0585 22.2682 78.8499 22.5799 78.6999 22.9408C78.5546 23.2924 78.4843 23.6838 78.4819 24.1174C78.4819 24.5416 78.5546 24.933 78.6975 25.2916C78.8499 25.6525 79.0585 25.9689 79.321 26.2408C79.5858 26.5056 79.8975 26.7095 80.2561 26.8525C80.6147 26.9978 81.0061 27.0681 81.4303 27.0681ZM89.024 23.7822H93.2052V25.1017H89.024V23.7822ZM89.1552 28.3173H87.599V19.9174H93.7208V21.2252H89.1576L89.1552 28.3173ZM96.6645 23.4096L100.834 23.4119V24.6963L96.6645 24.6939V23.4096ZM96.784 27.0119H101.518V28.3197L95.2278 28.3173V19.9174L101.352 19.9198L101.35 21.2276H96.7864L96.784 27.0119ZM105.854 28.4392C105.198 28.4392 104.572 28.3478 103.972 28.1626C103.372 27.9704 102.899 27.7267 102.547 27.4314L103.086 26.2197C103.421 26.4845 103.836 26.7025 104.333 26.8806C104.828 27.0564 105.334 27.1431 105.854 27.1431C106.293 27.1431 106.649 27.0962 106.921 27.0001C107.193 26.904 107.392 26.7751 107.521 26.6158C107.647 26.447 107.71 26.2595 107.71 26.0509C107.71 25.7955 107.619 25.5916 107.436 25.4392C107.251 25.2798 107.012 25.1556 106.717 25.0689C106.428 24.9728 106.105 24.8838 105.746 24.8041C105.395 24.7244 105.039 24.6306 104.68 24.5275C104.328 24.415 104.005 24.2767 103.71 24.108C103.421 23.9322 103.187 23.7002 103.002 23.4119C102.819 23.1236 102.728 22.7557 102.728 22.308C102.728 21.851 102.847 21.4361 103.086 21.0588C103.335 20.6744 103.705 20.3721 104.202 20.1471C104.703 19.9151 105.339 19.8002 106.107 19.8002C106.609 19.8002 107.108 19.8635 107.605 19.9924C108.1 20.1213 108.531 20.3041 108.899 20.5432L108.407 21.7572C108.032 21.5322 107.643 21.3682 107.244 21.2651C106.846 21.1526 106.461 21.0963 106.093 21.0963C105.662 21.0963 105.311 21.1479 105.041 21.251C104.776 21.3565 104.582 21.4924 104.453 21.6588C104.333 21.8275 104.272 22.0197 104.272 22.2354C104.272 22.4908 104.361 22.6994 104.537 22.8588C104.72 23.0111 104.957 23.1307 105.243 23.2197C105.54 23.3088 105.866 23.3955 106.225 23.4846C106.585 23.5642 106.942 23.6556 107.291 23.7611C107.652 23.8642 107.975 24.0002 108.264 24.1689C108.559 24.3353 108.793 24.565 108.969 24.8533C109.154 25.1392 109.246 25.5048 109.246 25.9431C109.246 26.3931 109.121 26.808 108.873 27.1923C108.634 27.5673 108.261 27.872 107.76 28.104C107.256 28.329 106.621 28.4392 105.854 28.4392ZM113.389 28.4415C112.733 28.4415 112.107 28.3478 111.507 28.165C110.91 27.9728 110.434 27.729 110.082 27.4314L110.621 26.2197C110.957 26.4845 111.371 26.7048 111.868 26.8806C112.363 27.0564 112.869 27.1454 113.389 27.1454C113.828 27.1454 114.184 27.0962 114.456 27.0001C114.728 26.904 114.927 26.7775 115.056 26.6181C115.182 26.4494 115.246 26.2619 115.246 26.0533C115.246 25.7978 115.154 25.5939 114.971 25.4416C114.786 25.2798 114.547 25.158 114.252 25.0689C113.964 24.9728 113.64 24.8838 113.282 24.8041C112.93 24.7244 112.574 24.633 112.215 24.5275C111.864 24.4174 111.54 24.2767 111.245 24.108C110.957 23.9322 110.722 23.7002 110.539 23.4119C110.354 23.1236 110.263 22.7557 110.263 22.308C110.263 21.8533 110.382 21.4361 110.621 21.0612C110.87 20.6768 111.24 20.3721 111.737 20.1494C112.241 19.9174 112.874 19.8002 113.642 19.8002C114.144 19.8002 114.646 19.8659 115.14 19.9924C115.635 20.1213 116.066 20.3041 116.434 20.5455L115.942 21.7572C115.567 21.5322 115.18 21.3682 114.779 21.2651C114.381 21.1526 113.996 21.0963 113.631 21.0963C113.199 21.0963 112.846 21.1479 112.576 21.2533C112.311 21.3565 112.117 21.4924 111.988 21.6611C111.868 21.8275 111.807 22.0197 111.807 22.2377C111.807 22.4932 111.896 22.7018 112.072 22.8611C112.255 23.0135 112.492 23.133 112.78 23.2197C113.075 23.3088 113.401 23.3978 113.762 23.4846C114.121 23.5642 114.477 23.658 114.828 23.7611C115.187 23.8642 115.51 24.0002 115.799 24.1689C116.094 24.3377 116.328 24.565 116.504 24.8533C116.689 25.1416 116.781 25.5048 116.781 25.9455C116.781 26.3931 116.656 26.8103 116.408 27.1923C116.169 27.5697 115.799 27.872 115.295 28.104C114.791 28.329 114.156 28.4415 113.389 28.4415ZM118.325 28.322V19.9221H119.884L119.881 28.322H118.325ZM126.081 28.4415C125.427 28.4415 124.822 28.3337 124.271 28.1181C123.72 27.9025 123.24 27.6025 122.835 27.2181C122.427 26.8267 122.11 26.3697 121.888 25.8494C121.665 25.322 121.552 24.7455 121.552 24.122C121.552 23.4986 121.665 22.9268 121.888 22.4064C122.11 21.8791 122.427 21.4221 122.835 21.0377C123.242 20.6463 123.72 20.3416 124.271 20.126C124.824 19.9104 125.422 19.8026 126.069 19.8026C126.725 19.8026 127.323 19.9104 127.866 20.126C128.417 20.3416 128.898 20.6463 129.306 21.0377C129.711 21.4221 130.027 21.8791 130.25 22.4064C130.475 22.9268 130.585 23.4986 130.585 24.122C130.585 24.7478 130.475 25.322 130.25 25.8517C130.027 26.3791 129.711 26.8337 129.303 27.2181C128.895 27.6025 128.417 27.9025 127.866 28.1181C127.323 28.3337 126.727 28.4415 126.081 28.4415ZM126.069 27.0751C126.493 27.0751 126.884 27.0025 127.243 26.8595C127.602 26.7142 127.913 26.5103 128.178 26.2455C128.441 25.9736 128.645 25.6619 128.79 25.3103C128.94 24.9517 129.017 24.5556 129.017 24.122C129.017 23.6908 128.94 23.2994 128.79 22.9478C128.645 22.5869 128.443 22.2752 128.178 22.0104C127.916 21.7385 127.604 21.5299 127.243 21.3869C126.884 21.2416 126.493 21.1713 126.069 21.1713C125.647 21.1713 125.256 21.2416 124.895 21.3869C124.543 21.5299 124.231 21.7385 123.962 22.0104C123.697 22.2752 123.488 22.5869 123.336 22.9455C123.193 23.2971 123.12 23.6908 123.12 24.122C123.12 24.5463 123.193 24.9377 123.336 25.2986C123.488 25.6572 123.697 25.9736 123.96 26.2455C124.224 26.5103 124.536 26.7142 124.895 26.8572C125.253 27.0025 125.645 27.0751 126.069 27.0751ZM132.238 28.322V19.9221L133.52 19.9244L138.779 26.3908H138.144V19.9244H139.691L139.688 28.3243H138.406L133.149 21.8557H133.784L133.782 28.3243L132.238 28.322ZM140.75 28.3243L144.526 19.9244H146.058L149.846 28.3243H148.215L144.969 20.7518H145.592L142.355 28.3243H140.75ZM142.489 26.3814L142.908 25.1556L147.437 25.158L147.856 26.3814H142.489ZM150.91 28.3243L150.912 19.9244L152.471 19.9268L152.469 27.0048L156.854 27.0072V28.3267L150.91 28.3243ZM62.7696 43.0734C62.1157 43.0734 61.4876 42.982 60.8876 42.7968C60.2899 42.607 59.8142 42.3609 59.4626 42.0656L60.0017 40.8539C60.3368 41.1187 60.754 41.339 61.2485 41.5148C61.7431 41.6906 62.2516 41.7773 62.7696 41.7773C63.2102 41.7773 63.5641 41.7304 63.836 41.6343C64.1079 41.5382 64.3071 41.4093 64.436 41.25C64.5626 41.0835 64.6282 40.8937 64.6282 40.6875C64.6282 40.4297 64.5344 40.2257 64.3516 40.0734C64.1688 39.914 63.9274 39.7898 63.6321 39.7031C63.3462 39.607 63.0227 39.5179 62.6618 39.4383C62.3102 39.3586 61.9563 39.2672 61.5954 39.1617C61.2438 39.0492 60.9204 38.9109 60.6251 38.7422C60.3368 38.5664 60.1025 38.3344 59.9173 38.0461C59.7345 37.7578 59.6431 37.3898 59.6431 36.9422C59.6431 36.4852 59.7626 36.0703 60.004 35.693C60.2501 35.311 60.6228 35.0063 61.1173 34.7813C61.6212 34.5493 62.2563 34.4344 63.0227 34.4344C63.5266 34.4344 64.0235 34.4977 64.5204 34.6266C65.0149 34.7555 65.4461 34.9383 65.8141 35.1797L65.3219 36.3914C64.9469 36.1664 64.5602 36.0024 64.1594 35.8992C63.761 35.7867 63.3766 35.7305 63.011 35.7305C62.5798 35.7305 62.2282 35.7821 61.9563 35.8852C61.6915 35.9906 61.497 36.1266 61.3681 36.293C61.2485 36.4617 61.1899 36.6539 61.1899 36.8695C61.1876 37.125 61.2767 37.3336 61.4524 37.493C61.6352 37.6453 61.872 37.7672 62.1579 37.8539C62.4555 37.943 62.7813 38.0297 63.1423 38.1187C63.5008 38.1984 63.8571 38.2898 64.2087 38.3953C64.5672 38.4984 64.8907 38.6344 65.179 38.8031C65.4743 38.9695 65.7086 39.1992 65.8844 39.4875C66.0696 39.7758 66.161 40.139 66.161 40.5797C66.161 41.0273 66.0368 41.4421 65.7883 41.8265C65.5493 42.2015 65.1766 42.5062 64.6751 42.7382C64.1712 42.9632 63.536 43.0734 62.7696 43.0734ZM71.3101 43.0757C70.1617 43.0757 69.2594 42.7499 68.6031 42.1031C67.9563 41.4539 67.6328 40.5187 67.6328 39.2953V34.5539L69.1914 34.5563V39.2344C69.1914 40.0992 69.3742 40.7273 69.7422 41.1187C70.1172 41.5101 70.6445 41.707 71.3242 41.707C72.0015 41.707 72.5265 41.5125 72.8921 41.1187C73.2601 40.7273 73.4453 40.0992 73.4453 39.2367V34.5563H74.9781V39.2953C74.9781 40.5187 74.6499 41.4562 73.996 42.1031C73.3492 42.7523 72.4539 43.0757 71.3101 43.0757ZM77.1601 42.9562V34.5563H80.61C81.353 34.5563 81.9881 34.6758 82.5155 34.9172C83.0522 35.1563 83.4623 35.5008 83.7506 35.9485C84.0365 36.3961 84.1819 36.9281 84.1819 37.5445C84.1819 38.1609 84.0365 38.693 83.7483 39.1406C83.4623 39.5883 83.0498 39.9328 82.5155 40.1718C81.9881 40.4132 81.353 40.5328 80.61 40.5328H78.0226L78.7163 39.7992V42.9562H77.1601ZM78.7163 39.9679L78.0226 39.2133H80.5374C81.2264 39.2133 81.7397 39.068 82.0842 38.7797C82.4358 38.4844 82.6116 38.0719 82.6116 37.5445C82.6116 37.0078 82.4358 36.5977 82.0842 36.3094C81.742 36.0211 81.2264 35.8758 80.5397 35.8758H78.0226L78.7186 35.1094L78.7163 39.9679ZM87.1748 38.0484L91.3443 38.0508V39.3328H87.1748V38.0484ZM87.2943 41.6484L92.0263 41.6507V42.9585L85.7357 42.9562L85.7381 34.5563L91.8599 34.5586V35.8664H87.2943V41.6484ZM93.763 42.9585V34.5586H97.2153C97.9582 34.5586 98.5911 34.6782 99.1184 34.9196C99.6551 35.1586 100.065 35.5032 100.354 35.9508C100.642 36.3985 100.785 36.9305 100.785 37.5469C100.785 38.1633 100.639 38.6953 100.354 39.143C100.065 39.5836 99.6528 39.9234 99.1184 40.1625C98.5911 40.3945 97.9559 40.5117 97.2129 40.5117L94.6255 40.5093L95.3216 39.8015L95.3192 42.9585H93.763ZM99.2496 42.9585L97.1309 39.9117H98.795L100.928 42.9585H99.2496ZM95.3216 39.9703L94.6255 39.2273H97.1426C97.8293 39.2273 98.345 39.0797 98.6871 38.782C99.0387 38.4867 99.2145 38.0742 99.2145 37.5469C99.2145 37.0102 99.0387 36.5977 98.6871 36.3117C98.345 36.0235 97.8293 35.8781 97.1426 35.8781H94.6255L95.3216 35.1094V39.9703ZM105.006 42.9585L101.34 34.5586H103.03L106.302 42.1546H105.332L108.639 34.561H110.195L106.541 42.9585H105.006ZM111.081 42.9609V34.561H112.639L112.637 42.9609H111.081ZM117.505 43.0804C116.851 43.0804 116.223 42.989 115.625 42.8038C115.025 42.6117 114.549 42.3679 114.2 42.0726L114.739 40.8609C115.074 41.1257 115.489 41.3437 115.984 41.5218C116.478 41.6976 116.987 41.7843 117.507 41.7843C117.946 41.7843 118.302 41.7374 118.574 41.6414C118.843 41.5453 119.045 41.4164 119.171 41.257C119.3 41.0882 119.363 40.9007 119.363 40.6945C119.363 40.4367 119.272 40.2328 119.087 40.0804C118.904 39.9211 118.665 39.7968 118.37 39.7101C118.081 39.614 117.758 39.525 117.399 39.4453C117.048 39.3656 116.692 39.2742 116.333 39.1687C115.981 39.0562 115.658 38.918 115.363 38.7492C115.074 38.5734 114.838 38.3414 114.655 38.0531C114.472 37.7648 114.381 37.3969 114.381 36.9492C114.381 36.4922 114.5 36.0774 114.739 35.7C114.988 35.318 115.358 35.0133 115.853 34.7883C116.356 34.5563 116.992 34.4414 117.758 34.4414C118.262 34.4414 118.761 34.5047 119.256 34.6336C119.753 34.7625 120.184 34.9453 120.549 35.1844L120.06 36.3985C119.685 36.1735 119.295 36.0094 118.897 35.9063C118.496 35.7938 118.114 35.7375 117.746 35.7375C117.315 35.7375 116.963 35.7891 116.692 35.8922C116.429 35.9977 116.232 36.1336 116.106 36.3C115.986 36.4688 115.925 36.6609 115.925 36.8766C115.925 37.132 116.012 37.3406 116.19 37.5C116.373 37.6523 116.607 37.7719 116.896 37.8609C117.191 37.95 117.519 38.0367 117.878 38.1258C118.236 38.2055 118.592 38.2969 118.944 38.4023C119.303 38.5055 119.626 38.6414 119.914 38.8101C120.21 38.9765 120.446 39.2062 120.622 39.4945C120.805 39.7804 120.896 40.1461 120.896 40.5867C120.896 41.0343 120.772 41.4492 120.526 41.8335C120.287 42.2085 119.914 42.5132 119.41 42.7452C118.906 42.9702 118.274 43.0804 117.505 43.0804ZM122.441 42.9609L122.443 34.561H123.999V42.9609H122.441ZM130.196 43.0827C129.542 43.0827 128.94 42.9749 128.389 42.7593C127.836 42.5413 127.358 42.2413 126.95 41.8593C126.545 41.4656 126.228 41.0109 126.003 40.4906C125.781 39.9633 125.668 39.3867 125.668 38.7633C125.668 38.1375 125.781 37.5656 126.006 37.0453C126.228 36.518 126.545 36.0633 126.952 35.6789C127.358 35.2875 127.838 34.9828 128.389 34.7672C128.94 34.5516 129.54 34.4438 130.187 34.4438C130.841 34.4438 131.441 34.5516 131.984 34.7672C132.535 34.9828 133.013 35.2875 133.421 35.6789C133.829 36.0633 134.143 36.5203 134.368 37.0477C134.591 37.568 134.703 38.1398 134.703 38.7633C134.703 39.3867 134.591 39.9633 134.368 40.4906C134.143 41.0203 133.829 41.475 133.421 41.8593C133.013 42.2437 132.533 42.5437 131.982 42.7593C131.441 42.9749 130.845 43.0827 130.196 43.0827ZM130.187 41.714C130.609 41.714 131 41.6437 131.361 41.4984C131.72 41.3554 132.031 41.1515 132.294 40.8867C132.559 40.6148 132.763 40.3031 132.905 39.9515C133.058 39.5906 133.133 39.1945 133.133 38.7633C133.133 38.332 133.058 37.9383 132.905 37.5867C132.763 37.2281 132.559 36.9141 132.296 36.6516C132.031 36.3797 131.72 36.1711 131.361 36.0258C131.002 35.8828 130.609 35.8102 130.187 35.8102C129.763 35.8102 129.371 35.8828 129.013 36.0258C128.661 36.1711 128.349 36.3774 128.077 36.6516C127.815 36.9141 127.606 37.2258 127.454 37.5867C127.311 37.9383 127.238 38.3297 127.238 38.7633C127.238 39.1875 127.311 39.5789 127.454 39.9375C127.606 40.2984 127.813 40.6148 128.077 40.8867C128.34 41.1515 128.652 41.3554 129.013 41.4984C129.371 41.6437 129.763 41.714 130.187 41.714ZM136.353 42.9632L136.355 34.5633H137.637L142.897 41.032H142.262V34.5633H143.806V42.9632H142.524L137.265 36.4945L137.9 36.4969V42.9632H136.353Z" fill="white"/>
</svg>
