<svg width="376" height="812" viewBox="0 0 376 812" fill="none" xmlns="http://www.w3.org/2000/svg">
<g clip-path="url(#clip0_1901_6465)">
<g opacity="0.7">
<path d="M259.538 374.981C258.171 377.974 256.798 380.974 255.425 383.967C254.829 385.274 254.232 386.575 253.636 387.882C252.257 390.905 250.872 393.923 249.486 396.946C248.782 398.494 248.071 400.042 247.36 401.59C246.132 404.282 244.897 406.98 243.662 409.672C240.091 417.478 235.682 413.195 230.051 411.907C223.474 410.395 217.144 415.189 210.429 415.845C202.696 416.598 195.318 411.804 187.548 412.057C181.502 412.256 175.858 415.496 169.805 415.641C166.029 415.731 162.349 414.599 158.651 413.816C126.448 406.962 103.037 423.199 121.425 399.698C121.991 398.976 122.593 398.223 123.237 397.422C125.098 395.115 127.303 392.471 129.868 389.46C130.567 388.641 131.248 387.864 131.898 387.135C132.47 386.509 133.018 385.912 133.56 385.352C149.876 368.332 154.128 381.172 200.232 376.505C220.162 374.487 216.397 377.312 226.052 378.059C237.405 378.938 249.101 370.434 259.538 374.981Z" fill="#8B558E"/>
<path d="M249.486 396.946C248.781 398.494 248.07 400.042 247.36 401.59C244.517 401.65 241.692 401.921 238.699 402.433C222.733 405.167 222.528 401.656 217.011 400.909C211.374 400.144 205.484 406.052 197.533 405.257C186.723 404.179 186.614 398.783 169.498 402.403C148.526 406.841 138.878 397.109 121.424 399.698C121.99 398.976 122.592 398.223 123.237 397.422C137.089 394.736 147.9 399.379 156.717 399.795C167.022 400.289 174.719 394.549 186.765 398.018C191.559 399.397 196.6 401.957 201.713 400.915C206.062 400.03 209.802 397.295 214.241 396.723C219.252 396.079 223.552 399.174 228.515 399.289C234.935 399.433 242.692 396.32 249.486 396.946Z" fill="#FCBC49"/>
<path d="M255.424 383.967C254.828 385.274 254.232 386.575 253.635 387.882C250.124 387.316 246.42 386.25 243.132 386.954C238.049 388.032 233.447 392.483 224.708 389.743C202.526 382.781 211.121 396.151 184.747 388.906C174.533 386.099 164.884 390.604 154.639 389.683C146.912 388.984 139.462 386.81 131.897 387.135C132.47 386.509 133.018 385.912 133.56 385.352C141.227 384.352 146.798 386.635 155.206 386.81C164.993 387.021 174.322 382.877 184.103 385.214C188.957 386.376 193.715 388.49 198.804 387.773C207.676 386.515 211.061 381.293 223.714 385.677C230.544 388.038 231.544 387.382 237.621 384.738C245.444 381.323 249.672 383.341 255.424 383.967Z" fill="#FCBC49"/>
<path d="M151.602 364.431C158.681 352.711 174.204 346.987 187.297 350.994C199.545 354.741 208.307 365.4 215.277 376.146C216.854 375.145 218.508 374.264 220.218 373.512C221.02 373.159 224.275 371.389 225.04 371.963C226.404 372.987 221.904 380.088 221.54 381.617C221.406 382.186 221.625 382.77 221.804 383.325C222.729 386.191 222.347 388.755 221.692 391.601C221.349 393.094 221.832 393.295 222.734 394.626C223.59 395.886 224.343 397.213 225.097 398.534C225.514 399.264 225.931 399.994 226.348 400.724C226.623 401.204 226.878 401.865 226.485 402.254C226.322 402.415 226.087 402.475 225.862 402.521C223.608 402.977 221.377 402.363 219.356 401.343C218.879 401.103 218.389 400.835 217.855 400.827C217.46 400.822 217.079 400.961 216.713 401.112C215.026 401.807 213.438 402.804 211.657 403.259C209.977 403.689 208.399 403.143 206.703 402.8C205.044 402.465 203.925 403.4 202.278 403.432C199.749 403.482 196.826 404.361 194.379 403.693C193.378 403.42 192.397 403.034 191.363 402.954C189.685 402.823 188.589 403.034 187.019 403.668C184.334 404.751 181.299 403.705 178.503 403.712C174.231 403.723 169.958 403.711 165.686 403.67C147.066 403.493 143.796 377.354 151.602 364.431Z" fill="#F2D0AF"/>
<mask id="mask0_1901_6465" style="mask-type:luminance" maskUnits="userSpaceOnUse" x="147" y="349" width="80" height="56">
<path d="M151.602 364.431C158.682 352.71 174.204 346.987 187.298 350.993C199.546 354.741 208.308 365.4 215.278 376.146C216.855 375.145 218.508 374.264 220.219 373.512C221.021 373.159 224.276 371.389 225.04 371.963C226.405 372.987 221.905 380.088 221.541 381.617C221.406 382.185 221.626 382.77 221.805 383.325C222.729 386.191 222.348 388.755 221.693 391.601C221.349 393.094 221.833 393.295 222.735 394.626C223.59 395.886 224.343 397.212 225.098 398.534C225.515 399.264 225.932 399.994 226.349 400.724C226.624 401.204 226.879 401.865 226.486 402.254C226.323 402.415 226.088 402.475 225.863 402.521C223.609 402.976 221.377 402.362 219.357 401.343C218.88 401.103 218.39 400.835 217.856 400.827C217.461 400.822 217.08 400.961 216.714 401.112C215.027 401.807 213.439 402.803 211.658 403.259C209.978 403.689 208.4 403.143 206.703 402.8C205.045 402.465 203.925 403.4 202.279 403.432C199.75 403.482 196.827 404.361 194.379 403.693C193.379 403.42 192.398 403.034 191.364 402.954C189.686 402.823 188.589 403.034 187.02 403.668C184.335 404.751 181.299 403.705 178.504 403.712C174.232 403.723 169.959 403.71 165.686 403.67C147.067 403.493 143.796 377.353 151.602 364.431Z" fill="white"/>
</mask>
<g mask="url(#mask0_1901_6465)">
<path d="M218.542 391.935C217.662 391.787 216.787 391.398 216.984 390.587C217.2 389.702 219.01 389.619 218.707 388.605C218.509 387.942 216.703 387.75 217.083 385.962C217.279 385.042 218.047 384.338 219.71 384.578C223.577 385.136 223.821 385.134 224.349 385.395C226.262 386.34 226.237 389.745 224.982 391.228C223.49 392.989 220.485 392.26 218.542 391.935Z" fill="#E09A5C"/>
<path d="M213.353 363.344C216.526 367.182 215.108 377.306 209.828 377.554C206.649 377.704 207.177 374.332 207.168 374.226C206.879 370.919 202.998 376.683 199.847 372.228C195.015 365.397 205.375 353.694 213.353 363.344Z" fill="#E09A5C"/>
<path d="M197.272 358.582C194.063 362.415 190.965 354.97 187.959 353.525C185.63 352.406 176.494 354.945 176.645 350.394C177.053 338.085 205.531 348.718 197.272 358.582Z" fill="#E09A5C"/>
<path d="M170.87 357.978C172.05 363.58 168.218 365.57 166.116 364.364C165.372 363.937 164.529 363.113 163.827 363.608C163.24 364.023 163.467 364.919 163.634 365.618C165.091 371.711 157.254 374.913 153.372 367.515C147.128 355.621 161.519 346.197 166.255 349.636C168.627 351.358 170.294 355.24 170.87 357.978Z" fill="#E09A5C"/>
<path d="M155.719 374.996C159.368 375.493 161.031 377.972 160.847 379.125C160.591 380.728 157.171 381.262 155.568 382.182C154.189 382.975 153.13 384.84 154.059 386.132C154.322 386.499 154.723 386.783 154.851 387.216C155.092 388.032 154.234 388.847 154.402 389.681C154.594 390.633 155.842 390.821 156.658 391.348C160.556 393.867 154.24 402.106 150.346 398.2C149.132 396.983 145.329 389.326 144.637 383.787C144.391 381.813 144.121 375.852 146.327 374.732C147.193 374.292 149.05 375.022 150.038 375.031C151.939 375.048 153.819 374.737 155.719 374.996Z" fill="#E09A5C"/>
<path d="M161.801 399.279C161.985 405.48 169.186 408.674 167.817 398.413C167.029 392.512 161.649 394.162 161.801 399.279Z" fill="#E09A5C"/>
<path d="M170.352 374.688C164.232 374.676 164.634 382.952 164.577 383.395C164.477 384.164 163.354 386 163.807 386.174C165.402 386.786 167.578 384.951 168.222 383.62C168.698 382.637 168.715 381.552 169.094 380.552C169.58 379.269 170.856 379.02 171.754 378.072C172.924 376.836 172.102 374.691 170.352 374.688Z" fill="#E09A5C"/>
<path d="M177.955 379.423C177.831 378.381 176.83 377.603 175.808 378.191C174.156 379.141 174.553 380.134 170.886 384.929C170.512 385.418 171.13 386.111 171.666 385.944C174.422 385.085 178.274 382.106 177.955 379.423Z" fill="#E09A5C"/>
<path d="M179.516 386.062C179.43 384.625 178.028 385.138 177.03 385.445C176.916 385.479 172.629 387.853 172.075 388.287C171.894 388.428 171.949 388.706 172.075 388.855C174.13 391.296 179.716 389.399 179.516 386.062Z" fill="#E09A5C"/>
<path d="M180.045 356.765C179.482 352.945 173.016 355.388 173.156 359.68C173.235 362.117 174.875 363.202 175.277 362.791C176.04 362.011 176.386 360.375 178.061 359.554C179.158 359.017 180.249 358.151 180.045 356.765Z" fill="#E09A5C"/>
<path d="M186.932 359.523C182.461 356.237 174.822 365.613 179.206 367.646C179.305 367.691 179.445 367.68 179.5 367.569C181.26 363.956 190.945 362.472 186.932 359.523Z" fill="#E09A5C"/>
<path d="M191.761 368.029C183.904 364.467 180.18 371.628 181.531 372.191C182.781 372.711 183.977 371.606 185.29 371.751C187.066 371.947 188.573 372.923 190.417 372.99C192.938 373.082 194.207 369.137 191.761 368.029Z" fill="#E09A5C"/>
<path d="M192.475 377.691C192.072 373.818 184.833 373.139 182.931 375.306C181.719 376.689 185.312 377.772 186.866 378.467C188.448 379.176 189.869 380.088 191.578 379.254C192.096 379.001 192.536 378.272 192.475 377.691Z" fill="#E09A5C"/>
<path d="M188.466 382.379C187.328 381.6 185.536 380.983 184.488 381.779C182.417 382.786 185.502 384.831 185.994 385.369C186.672 386.111 187.481 387.285 188.595 387.293C190.431 387.629 191.409 384.396 188.466 382.379Z" fill="#E09A5C"/>
<path d="M179.7 390.775C179.71 390.789 179.716 390.798 179.735 390.822C179.836 390.951 179.774 390.871 179.7 390.775Z" fill="#E09A5C"/>
<path d="M185.467 390.78C184.715 385.799 176.682 387.692 180.112 391.252C179.758 390.681 180.217 391.489 181.153 392.509C183.402 394.958 185.89 393.034 185.467 390.78Z" fill="#E09A5C"/>
<path d="M174.163 393.73C171.627 393.309 172.602 396.089 172.921 397.521C173.147 398.54 173.109 399.605 173.976 400.348C174.809 401.061 176.111 401.224 176.928 400.348C178.919 398.21 176.807 394.168 174.163 393.73Z" fill="#E09A5C"/>
<path d="M198.18 362.306C197.71 360.16 195.159 361.42 194.979 361.461C192.201 362.091 194.364 364.088 194.187 364.557C193.408 366.627 196.835 368.072 197.768 366.067C198.329 364.86 198.464 363.608 198.18 362.306Z" fill="#E09A5C"/>
<path d="M174.139 367.548C172.997 365.145 170.009 366.629 168.832 366.559C164.506 366.302 165.871 373.196 167.704 369.971C169.27 371.146 170.925 370.432 171.257 370.565C173.919 371.397 174.851 369.044 174.139 367.548Z" fill="#E09A5C"/>
<path d="M153.324 370.928C152.974 370.848 152.479 370.889 152.083 370.824C151.884 370.305 151.748 369.663 151.494 369.204C150.124 366.722 147.417 366.967 146.882 368.919C146.181 371.474 150.325 376.222 153.641 372.127C153.957 371.736 153.898 371.058 153.324 370.928Z" fill="#E09A5C"/>
<path d="M173.239 347.506C170.661 346.132 167.555 349.668 171.794 352.895C175.678 355.85 175.957 348.955 173.239 347.506Z" fill="#E09A5C"/>
</g>
<path d="M158.169 388.835C158.739 392.049 162.254 393.908 165.5 394.257C170.089 394.752 174.864 393.108 178.176 389.893C181.488 386.679 183.274 381.955 182.918 377.353C182.764 375.368 182.221 373.393 181.182 371.694C179.573 369.062 176.903 367.257 175.034 364.803C173.165 362.348 172.303 358.53 174.494 356.358C175.284 355.575 176.365 355.134 177.463 354.96C180.478 354.481 183.505 355.907 185.869 357.838C190.985 362.018 193.848 368.808 193.267 375.39C192.936 379.148 191.565 382.746 189.852 386.108C185.923 393.82 179.49 400.932 171.016 402.693" stroke="#E09A5C" stroke-width="0.744754" stroke-miterlimit="10" stroke-linecap="round" stroke-linejoin="round"/>
<path d="M181.585 397.373C183.151 397.142 184.848 397.4 186.093 398.377C187.338 399.354 188.003 401.132 187.415 402.602" stroke="#E09A5C" stroke-width="0.744754" stroke-miterlimit="10" stroke-linecap="round" stroke-linejoin="round"/>
<path d="M195.057 390.513C194.888 392.09 194.954 393.692 195.252 395.249C195.441 396.241 195.818 397.33 196.732 397.759C197.692 398.209 198.802 397.742 199.853 397.603C201.46 397.39 203.156 398.027 204.226 399.246C204.991 400.119 205.427 401.431 204.872 402.451" stroke="#E09A5C" stroke-width="0.744754" stroke-miterlimit="10" stroke-linecap="round" stroke-linejoin="round"/>
<path d="M202.122 397.515C200.218 396.482 199.044 394.368 198.813 392.214C198.584 390.06 199.204 387.881 200.21 385.963C201.216 384.044 202.593 382.348 203.979 380.682" stroke="#E09A5C" stroke-width="0.744754" stroke-miterlimit="10" stroke-linecap="round" stroke-linejoin="round"/>
<path d="M198.557 400.028C200.131 399.788 201.752 401.17 201.762 402.763" stroke="#E09A5C" stroke-width="0.744754" stroke-miterlimit="10" stroke-linecap="round" stroke-linejoin="round"/>
<path d="M181.965 399.774C183.687 399.769 185.142 401.641 184.713 403.308" stroke="#E09A5C" stroke-width="0.744754" stroke-miterlimit="10" stroke-linecap="round" stroke-linejoin="round"/>
<path d="M191.603 402.753C190.133 402.264 189.196 400.843 188.515 399.453C187.701 397.79 187.085 396.032 186.684 394.225" stroke="#E09A5C" stroke-width="0.744754" stroke-miterlimit="10" stroke-linecap="round" stroke-linejoin="round"/>
<path d="M222.529 373.672C224.438 373.003 224.032 373.932 222.977 375.659C220.17 380.251 219.955 380.418 219.587 380.487C219.008 380.596 216.565 378.718 216.323 377.811C215.621 375.179 221.029 374.198 222.529 373.672Z" fill="#F2D0AF"/>
<path d="M220.075 396.057C220.706 395.124 221.205 395.213 221.719 395.815C223.832 398.289 225.43 399.768 225.158 401.406C223.422 401.616 221.16 401.283 219.606 400.468C217.361 399.289 219.055 397.563 220.075 396.057Z" fill="#F2D0AF"/>
<path d="M168 373.757C176.027 370.468 181.393 378.463 180.681 384.659" stroke="#E09A5C" stroke-width="0.744754" stroke-miterlimit="10" stroke-linecap="round" stroke-linejoin="round"/>
<path d="M195.974 395.223C195.239 393.038 195.862 390.674 195.366 388.439C194.896 386.328 193.765 383.768 197.185 383.269C198.351 383.099 200.978 382.286 200.47 384.615C200.327 385.267 199.888 385.805 199.522 386.362C196.004 391.719 199.957 395.144 198.812 396.628C198.246 397.36 196.685 397.333 195.974 395.223Z" fill="#F2D0AF"/>
<path d="M212.043 388.015C213.833 388.125 215.492 385.794 213.112 384.136" stroke="#453B36" stroke-width="0.744754" stroke-miterlimit="10" stroke-linecap="round" stroke-linejoin="round"/>
<path d="M212.367 394.125C214.134 393.826 216.032 395.969 213.839 397.869" stroke="#453B36" stroke-width="0.744754" stroke-miterlimit="10" stroke-linecap="round" stroke-linejoin="round"/>
<path d="M208.861 387.606C208.861 387.606 206.572 386.773 206.365 389.062C206.138 391.557 208.578 391.566 208.578 391.566" stroke="#453B36" stroke-width="0.744754" stroke-miterlimit="10" stroke-linecap="round" stroke-linejoin="round"/>
<path d="M208.861 395.579C208.861 395.579 206.573 396.411 206.365 394.123C206.138 391.628 208.578 391.618 208.578 391.618" stroke="#453B36" stroke-width="0.744754" stroke-miterlimit="10" stroke-linecap="round" stroke-linejoin="round"/>
<path d="M210.318 391.592C210.318 391.592 211.329 390.72 210.734 389.728C210.11 388.688 208.047 391.592 208.047 391.592C208.047 391.592 210.11 394.496 210.734 393.456C211.329 392.465 210.318 391.592 210.318 391.592Z" fill="#453B36"/>
<path d="M208.479 385.566C208.676 382.71 210.316 379.99 212.752 378.484" stroke="#453B36" stroke-width="0.744754" stroke-miterlimit="10" stroke-linecap="round" stroke-linejoin="round"/>
<path d="M206.806 385.224C206.15 381.873 206.714 378.296 208.369 375.309" stroke="#453B36" stroke-width="0.744754" stroke-miterlimit="10" stroke-linecap="round" stroke-linejoin="round"/>
<path d="M205.424 385.261C204.814 385.213 204.39 384.647 204.092 384.114C202.889 381.966 202.333 379.46 202.516 377.005" stroke="#453B36" stroke-width="0.744754" stroke-miterlimit="10" stroke-linecap="round" stroke-linejoin="round"/>
<path d="M207.584 397.349C206.329 399.639 205.848 402.346 206.239 404.928" stroke="#453B36" stroke-width="0.744754" stroke-miterlimit="10" stroke-linecap="round" stroke-linejoin="round"/>
<path d="M208.885 398.008C207.784 400.403 208.185 403.415 209.874 405.439" stroke="#453B36" stroke-width="0.744754" stroke-miterlimit="10" stroke-linecap="round" stroke-linejoin="round"/>
<path d="M210.421 397.385C210.409 400.362 212.079 403.289 214.649 404.792" stroke="#453B36" stroke-width="0.744754" stroke-miterlimit="10" stroke-linecap="round" stroke-linejoin="round"/>
</g>
<path d="M103.752 417.744C103.752 417.744 115.544 427.16 115.321 428.612C115.1 430.065 120.774 448.854 120.774 448.854L92.5106 441.197V417.744H103.752Z" fill="#EAA22D"/>
<path d="M74.0096 422.201V435.906L100.913 434.432V421.336L74.0096 422.201Z" fill="#FFA98F"/>
<path d="M121.649 276.491C121.649 276.491 148.06 323.549 148.278 342.102C148.496 360.654 110.224 422.201 110.224 422.201C110.224 422.201 99.8225 426.464 84.5424 425.973C69.2639 425.481 66.8617 423.736 66.8617 423.736C66.8617 423.736 69.4803 291.725 75.5923 279.37C81.7059 267.017 121.649 276.491 121.649 276.491Z" fill="#A49CF2"/>
<path d="M110.224 422.663C109.942 422.646 109.747 422.43 109.763 422.175C112.277 379.029 111.387 308.979 111.379 308.277C111.377 308.112 111.463 307.958 111.606 307.874L125.024 299.926C125.245 299.798 125.529 299.87 125.656 300.086C125.787 300.308 125.714 300.589 125.496 300.719L112.307 308.532C112.364 313.33 113.124 380.402 110.686 422.229C110.671 422.473 110.467 422.663 110.224 422.663Z" fill="white"/>
<path d="M111.961 354.133C111.816 354.133 111.675 354.063 111.586 353.94C111.468 353.778 111.471 353.556 111.591 353.394C111.882 353.004 118.774 343.872 123.313 343.449C124.204 343.366 124.96 343.608 125.568 344.163C126.298 344.831 126.329 345.532 126.229 346.002C125.465 349.583 113.471 353.655 112.106 354.108C112.059 354.125 112.009 354.133 111.961 354.133ZM123.65 344.355C123.569 344.355 123.486 344.359 123.402 344.367C120.198 344.666 115.358 350.193 113.306 352.713C117.488 351.199 124.839 348.097 125.329 345.807C125.376 345.586 125.389 345.248 124.948 344.844C124.588 344.517 124.163 344.355 123.65 344.355Z" fill="white"/>
<path d="M76.9232 298.024C76.7084 298.024 76.5153 297.872 76.4717 297.654C76.4204 297.405 76.5823 297.162 76.8329 297.109C83.4447 295.776 86.9413 287.412 86.9755 287.328C87.072 287.091 87.3414 286.98 87.578 287.075C87.8146 287.173 87.9267 287.441 87.8302 287.678C87.6807 288.041 84.1063 296.584 77.0151 298.017C76.9839 298.023 76.9528 298.024 76.9232 298.024Z" fill="white"/>
<path d="M71.5918 429.873C71.5918 429.873 101.786 428.531 102.004 429.408C102.222 430.284 102.877 436.259 102.877 436.259L132.125 452.402C132.125 452.402 142.165 455.361 142.385 460.395C142.602 465.426 134.527 466.088 131.907 466.849C129.289 467.61 78.0868 466.928 72.9011 466.064C68.9717 465.409 71.5918 429.873 71.5918 429.873Z" fill="#FCBC49"/>
<path d="M109.628 449.316C109.431 449.316 109.256 449.192 109.192 449.005C109.125 448.812 109.193 448.595 109.361 448.477L113.689 445.406L100.782 446.441C100.572 446.43 100.393 446.341 100.318 446.154C100.242 445.969 100.295 445.754 100.447 445.625L107.275 439.893C107.468 439.726 107.761 439.751 107.924 439.949C108.088 440.144 108.063 440.436 107.867 440.6L102.147 445.402L115.285 444.349C115.503 444.339 115.685 444.456 115.757 444.651C115.827 444.847 115.76 445.066 115.59 445.186L111.181 448.315L124.388 447.682C124.654 447.693 124.859 447.865 124.872 448.119C124.884 448.374 124.688 448.591 124.434 448.603L109.649 449.313C109.642 449.315 109.635 449.316 109.628 449.316Z" fill="#5D2866"/>
<path d="M115.873 222.052L102.678 216.766L97.1104 214.638L87.4629 218.222L92.5132 280.68C92.5132 280.68 107.711 284.825 117.743 279.534C127.772 274.244 115.873 222.052 115.873 222.052Z" fill="white"/>
<path d="M77.1157 220.662C81.8298 216.29 89.508 215.085 94.018 214.757C94.018 214.757 92.9111 244.332 94.4711 262.534C95.3522 272.823 95.8878 279.981 96.1851 284.267C85.3528 284.535 73.2455 284.197 73.2455 284.197C73.2455 284.197 70.1397 227.127 77.1157 220.662Z" fill="#5D2866"/>
<path d="M125.795 261.757C125.734 272.74 125.48 281.65 125.48 281.65C125.48 281.65 122.051 282.9 114.622 284.198C114.597 276.101 114.379 256.171 113.082 244.163C111.422 228.807 105.751 216.874 105.751 216.874L94.0205 214.763C95.3905 214.663 96.4802 214.638 97.1107 214.638C97.4859 214.638 97.7039 214.651 97.7039 214.651C97.7039 214.651 112.998 215.275 120.232 219.136C120.232 219.136 120.415 219.236 120.742 219.411C121.978 220.148 122.948 220.998 123.48 221.96C125.588 225.746 125.904 245.901 125.795 261.757Z" fill="#5D2866"/>
<path d="M82.1652 217.388C82.1652 217.388 68.4451 220.361 58.4597 232.366C49.2294 243.463 47 257.018 47 257.018C47 257.018 56.6133 255.402 62.4358 255.463C68.2582 255.523 76.6308 256.213 76.6308 256.213L82.1652 217.388Z" fill="#5D2866"/>
<path d="M112.595 189.567C112.595 189.567 118.975 179.355 113.929 177.015C108.883 174.673 102.675 180.217 102.675 180.217C102.675 180.217 91.2603 180.967 86.7954 186.969C82.3289 192.97 92.7268 203.899 92.7268 203.899L112.595 189.567Z" fill="black"/>
<path d="M94.6941 206.26L93.8052 216.74C93.8052 216.74 95.4398 219.913 101.529 220.931C106.064 221.689 107.756 220.793 107.756 220.793L107.569 215.431L107.379 210.202L96.5156 206.828L94.6941 206.26Z" fill="#FFA98F"/>
<path d="M96.5174 206.828C96.519 207.116 96.5999 207.463 96.7369 207.864C98.6378 213.298 104.954 214.97 107.571 215.431L107.381 210.201L96.5174 206.828Z" fill="black"/>
<path d="M111.746 186.513C111.746 186.513 116.133 200.118 113.345 207.236C110.558 214.352 104.002 212.531 100.152 210.714C96.3022 208.897 94.6955 206.263 94.6955 206.263C94.6955 206.263 90.8393 207.153 88.694 203.436C86.5488 199.718 88.4839 195.89 90.7039 195.191C92.9239 194.492 95.3027 196.284 95.3027 196.284L93.6992 192.297C93.6992 192.297 103.979 173.884 111.746 186.513Z" fill="#FFA98F"/>
<path d="M94.4691 201.954C94.3632 201.954 94.2558 201.918 94.1686 201.843L89.7348 198.048C89.5402 197.883 89.5184 197.59 89.685 197.397C89.8516 197.201 90.1427 197.18 90.3357 197.345L94.7695 201.141C94.9641 201.306 94.9859 201.599 94.8194 201.792C94.7275 201.898 94.5983 201.954 94.4691 201.954Z" fill="black"/>
<path d="M90.1694 201.53C89.9483 201.53 89.7521 201.371 89.7148 201.145C89.6727 200.893 89.8424 200.656 90.0931 200.613L93.269 200.076C93.5196 200.032 93.7578 200.202 93.8014 200.453C93.8434 200.705 93.6753 200.941 93.4231 200.985L90.2456 201.522C90.2207 201.527 90.1958 201.53 90.1694 201.53Z" fill="black"/>
<path d="M110.129 201.529C110.093 201.529 110.058 201.525 110.022 201.515C109.774 201.456 109.622 201.207 109.681 200.96C110.417 197.901 108.585 196.067 108.506 195.992C108.323 195.814 108.319 195.522 108.496 195.34C108.672 195.159 108.965 195.153 109.147 195.327C109.242 195.419 111.443 197.588 110.578 201.176C110.526 201.386 110.338 201.529 110.129 201.529Z" fill="black"/>
<path d="M112.267 196.741C112.049 196.741 111.854 196.584 111.814 196.363L111.362 193.903C111.315 193.652 111.482 193.412 111.733 193.364C111.98 193.331 112.223 193.484 112.27 193.735L112.723 196.194C112.769 196.445 112.603 196.685 112.352 196.733C112.323 196.738 112.295 196.741 112.267 196.741Z" fill="black"/>
<path d="M105.622 196.308C105.404 196.308 105.21 196.151 105.169 195.93L104.718 193.471C104.671 193.221 104.837 192.981 105.088 192.933C105.336 192.899 105.579 193.053 105.625 193.303L106.077 195.761C106.123 196.012 105.957 196.253 105.706 196.3C105.678 196.305 105.65 196.308 105.622 196.308Z" fill="black"/>
<path d="M112.597 189.568C112.597 189.568 111.638 187.365 109.025 187.125C106.412 186.885 104.729 188.598 104.729 188.598C104.729 188.598 105.503 193.097 101.75 195.135C97.9962 197.173 95.3013 196.285 95.3013 196.285L92.8011 195.147L91.2287 191.219L99.3692 183.812L109.456 179.534L113.997 184.418L112.597 189.568Z" fill="black"/>
<path d="M107.172 205.481C106.953 205.481 104.379 205.426 103.459 202.942C103.37 202.704 103.493 202.437 103.732 202.349C103.971 202.257 104.236 202.381 104.325 202.623C105.03 204.53 107.054 204.556 107.171 204.556C107.429 204.556 107.636 204.762 107.638 205.015C107.641 205.269 107.437 205.478 107.183 205.481C107.183 205.481 107.177 205.481 107.172 205.481Z" fill="black"/>
<path d="M104.23 222.041C97.8731 222.041 93.7227 217.633 93.6744 217.582C93.5016 217.395 93.5125 217.102 93.7009 216.93C93.8908 216.758 94.1804 216.768 94.3532 216.956C94.4061 217.014 99.6946 222.612 107.377 220.734C107.628 220.671 107.876 220.826 107.935 221.074C107.994 221.321 107.843 221.57 107.595 221.631C106.418 221.918 105.293 222.041 104.23 222.041Z" fill="#FCBC49"/>
<path d="M102.675 180.216C102.675 180.216 102.826 174.387 96.5175 176.437C90.2093 178.486 90.0349 186.44 90.0349 186.44L102.675 180.216Z" fill="black"/>
<path d="M49.3752 256.651C49.3752 256.651 44.4479 272.128 56.6159 279.005C68.7839 285.883 107.759 271.597 107.759 271.597L105.623 255.461H72.5623C72.5623 255.461 53.2454 255.458 49.3752 256.651Z" fill="#FFA98F"/>
<path d="M112.959 191.543C112.931 191.543 112.905 191.54 112.878 191.535L110.903 191.183C110.652 191.14 110.484 190.898 110.529 190.648C110.574 190.397 110.822 190.229 111.065 190.274L113.04 190.626C113.291 190.669 113.459 190.911 113.414 191.161C113.373 191.384 113.177 191.543 112.959 191.543Z" fill="black"/>
<path d="M103.894 192.142C103.701 192.142 103.522 192.021 103.456 191.829C103.374 191.588 103.503 191.326 103.744 191.244L106.528 190.294C106.769 190.212 107.032 190.339 107.113 190.582C107.196 190.823 107.067 191.085 106.825 191.167L104.042 192.117C103.993 192.133 103.942 192.142 103.894 192.142Z" fill="black"/>
<path d="M181.738 233.17C181.408 234.246 177.569 242.209 168.961 245.31C160.353 248.411 158.149 237.718 158.149 237.718L169.271 227.04L181.738 233.17Z" fill="#FFA98F"/>
<path d="M190.065 254.952L166.327 242.358L187.373 210.307L211.11 222.901L190.065 254.952Z" fill="#D83F3F"/>
<path d="M186.664 253.319L162.928 240.724L183.974 208.674L207.711 221.267L186.664 253.319Z" fill="#EA4E4E"/>
<path d="M157.751 232.421C157.751 232.421 163.165 223.222 166.571 222.428C169.976 221.634 175.214 222.654 177.218 225.957C179.221 229.259 171.078 228.277 171.078 228.277C171.078 228.277 167.514 237.199 162.743 238.205C157.971 239.207 157.751 232.421 157.751 232.421Z" fill="#FFA98F"/>
<path d="M137.88 237.715C137.88 237.715 144 238.753 148.195 237.481C152.391 236.209 158.598 231.844 158.598 231.844L167.109 245.749C167.109 245.749 157.642 264.384 139.729 266.185C122.681 267.899 113.001 258.756 113.001 258.756L137.88 237.715Z" fill="#FFA98F"/>
<path d="M123.478 221.96C123.478 221.96 127.325 226.522 132.445 230.491C137.565 234.461 140.81 236.73 140.81 236.73C140.81 236.73 138.462 245.32 134.843 255.463C131.989 263.462 130.049 271.59 130.049 271.59C130.049 271.59 114.131 275.086 113.001 267.087C111.87 259.09 123.478 221.96 123.478 221.96Z" fill="#5D2866"/>
<path d="M161.903 238.786C161.464 238.786 161.027 238.694 160.605 238.488C160.374 238.376 160.281 238.101 160.391 237.872C160.503 237.643 160.782 237.548 161.009 237.658C163.326 238.792 166.781 234.836 167.914 233.215C168.06 233.007 168.348 232.955 168.557 233.102C168.765 233.25 168.817 233.536 168.67 233.745C168.509 233.977 165.102 238.786 161.903 238.786Z" fill="black"/>
<path d="M104.8 255.149C104.8 255.149 113.743 248.788 115.709 248.872C117.675 248.956 125.276 250.56 125.697 252.011C126.119 253.46 119.131 255.149 119.131 255.149C119.131 255.149 122.277 258.053 125.059 259.181C127.841 260.31 136.254 259.485 137.098 261.54C137.942 263.593 134.845 263.453 134.845 263.453C134.845 263.453 138.505 265.284 134.282 267.535C130.06 269.788 111.326 274.29 102.959 270.068C94.5908 265.846 104.8 255.149 104.8 255.149Z" fill="#FFA98F"/>
<path d="M125.824 265.722C125.481 265.722 125.274 265.712 125.235 265.709C124.981 265.697 124.785 265.482 124.798 265.225C124.81 264.971 125.026 264.792 125.282 264.787C125.324 264.784 130.253 265.002 134.655 263.03C134.881 262.924 135.161 263.027 135.266 263.262C135.37 263.494 135.266 263.768 135.034 263.872C131.289 265.549 127.301 265.722 125.824 265.722Z" fill="black"/>
<path d="M119.129 255.612H114.27C114.015 255.612 113.809 255.405 113.809 255.15C113.809 254.894 114.016 254.687 114.27 254.687H119.129C119.384 254.687 119.591 254.894 119.591 255.15C119.591 255.407 119.384 255.612 119.129 255.612Z" fill="black"/>
<path d="M283.454 182.117C283.454 182.117 290.325 174.85 304.457 184.412C318.588 193.974 307.766 229.319 307.766 229.319L279.789 222.589L283.454 182.117Z" fill="black"/>
<path d="M245.651 410.798L249.974 433.5L264.848 441.846L278.582 437.172L276.382 410.798H245.651Z" fill="#FFA98F"/>
<path d="M282.334 437.172L273.881 453.316L268.533 463.541C268.533 463.541 215.791 465.545 213.118 463.541C210.444 461.537 210.444 455.869 213.118 453.526C215.793 451.192 247.17 434.167 247.17 434.167C247.17 434.167 247.17 429.491 249.124 429.039C251.087 428.589 264.087 434.167 264.087 434.167L279.259 429.019L282.334 437.172Z" fill="#5D2866"/>
<path d="M273.881 453.316L268.533 463.541C268.533 463.541 215.791 465.545 213.118 463.541C210.444 461.538 210.444 455.87 213.118 453.527C213.118 453.527 249.314 456.201 269.445 453.527C271.346 453.277 272.799 453.217 273.881 453.316Z" fill="#8988E2"/>
<path d="M275.155 413.58L278.58 437.172H303.921L304.99 413.58H275.155Z" fill="#FFA98F"/>
<path d="M311.705 459.205C311.705 462.099 309.932 466.105 303.692 467.438C297.463 468.78 264.873 467.438 263.861 466.326C263.321 465.745 262.98 463.382 262.779 461.259C262.558 459.006 263.12 456.731 264.361 454.838L277.701 434.497C277.701 434.497 281.377 430.722 288.527 431.382C295.678 432.053 299.265 434.497 299.265 434.497C299.265 434.497 302.579 431.142 304.142 432.263C305.434 433.194 309.781 449.119 311.233 456.18C311.535 457.633 311.705 458.715 311.705 459.205Z" fill="#773884"/>
<path d="M251.223 277.261C251.223 277.261 242.703 312.56 239.13 342.457C235.557 372.354 233.697 420.883 236.116 422.699C238.535 424.516 266.852 426.88 266.852 426.88C266.852 426.88 276.411 431.036 292.885 430.617C304.84 430.314 314.551 427.183 314.551 427.183C314.551 427.183 312.216 294.288 303.108 273.721C295.981 257.628 251.223 277.261 251.223 277.261Z" fill="#FCBC49"/>
<path d="M250.144 271.025V278.091C250.144 278.091 268.052 282.195 282.75 281.139C297.448 280.084 302.942 277.504 302.942 277.504L309.189 241.629L290.411 215.204L275.055 213.961L237.613 241.103L246.758 265.9L250.144 271.025Z" fill="#8B558E"/>
<path d="M267.828 197.959C267.828 197.959 264.165 193.912 265.221 187.64C265.937 183.388 267.828 182.012 267.828 182.012C267.828 182.012 264.947 176.208 273.525 176.56C282.103 176.912 287.152 181.123 287.152 181.123C287.152 181.123 291.073 179.197 292.831 183.77C294.59 188.342 292.831 195.088 292.831 195.088L267.828 197.959Z" fill="black"/>
<path d="M262.046 261.677L268.994 229.319H293.154L287.708 263.589L262.046 261.677Z" fill="#D83F3F"/>
<path d="M290.407 229.319L284.961 263.59L275.517 262.884L264.629 262.082L259.3 261.68L259.647 260.077L262.138 248.48L265.093 234.71L266.253 229.319H290.407Z" fill="#EA4E4E"/>
<path d="M249.916 257.221L256.013 234.712H276.686L270.842 261.858L249.916 257.221Z" fill="#A49CF2"/>
<path d="M273.523 234.71L271.086 246.055L267.688 261.861L264.397 261.132L259.647 260.077L246.753 257.217L252.853 234.71H273.523Z" fill="white"/>
<path d="M250.747 253.94C250.747 253.94 258.5 253.137 260.142 253.137C261.783 253.137 263.992 256.989 263.992 256.989L268.91 258.408L263.288 274.223C263.288 274.223 251.592 275.742 246.758 270.119C244.943 268.009 250.747 253.94 250.747 253.94Z" fill="#FFA98F"/>
<path d="M275.057 214.663C275.057 214.663 260.361 215.015 245.47 227.443C230.581 239.871 224.133 252.181 227.181 262.966C230.229 273.752 249.339 274.222 249.339 274.222L254.967 251.946L240.253 242.332L275.057 214.663Z" fill="#8B558E"/>
<path d="M282.986 257.692C282.986 257.692 278.414 255.249 276.186 254.667C274.077 254.116 272.487 254.219 272.487 254.219L271.78 257.501C271.78 257.501 264.462 259.098 259.304 261.677C254.145 264.257 255.084 266.602 255.084 266.602C255.084 266.602 251.8 268.713 253.208 270.118C254.615 271.526 260.008 270.118 260.008 270.118C260.008 270.118 253.208 272.698 256.022 274.222C258.836 275.746 265.035 275.278 265.035 275.278C265.035 275.278 278.532 277.622 282.988 272.933C287.44 268.242 282.986 257.692 282.986 257.692Z" fill="#FF9280"/>
<path d="M286.661 205.027L286.398 215.499C286.398 215.499 284.433 218.462 278.295 218.806C273.723 219.063 272.335 216.682 272.335 216.682L273.671 207.547L284.795 205.391L286.661 205.027Z" fill="#FFA98F"/>
<path d="M285.798 214.663C285.798 214.663 311.24 215.6 324.019 236.117C336.799 256.635 326.716 275.159 306.667 278.911C286.619 282.663 276.185 277.152 276.185 277.152L280.961 253.821L291.244 252.297L301.296 240.045L285.798 214.663Z" fill="#8B558E"/>
<path d="M286.668 204.389C286.634 204.674 286.517 205.008 286.338 205.391C283.862 210.563 275.563 212.534 272.921 212.704L273.678 207.547L286.668 204.389Z" fill="black"/>
<path d="M271.935 183.619C271.935 183.619 266.109 196.611 268.092 203.96C270.076 211.31 276.765 210.22 280.774 208.841C284.783 207.462 286.662 205.03 286.662 205.03C286.662 205.03 290.383 206.331 292.911 202.885C295.441 199.438 293.942 195.437 291.82 194.504C289.698 193.57 287.148 195.085 287.148 195.085L289.17 191.313C289.17 191.313 281 171.963 271.935 183.619Z" fill="#FFA98F"/>
<path d="M287.151 195.083C287.151 195.083 281.54 196.215 277.644 189.972C273.747 183.729 274.103 181.165 274.103 181.165L270.221 187.61C270.221 187.61 269.352 183.14 271.139 180.291C272.926 177.443 274.782 178.033 274.782 178.033L287.153 181.123L290.409 191.038L287.151 195.083Z" fill="black"/>
<path d="M272.381 200.18C272.212 200.18 272.055 200.071 272.003 199.9C271.152 197.118 273.121 194.294 273.205 194.174C273.331 193.997 273.58 193.951 273.756 194.081C273.934 194.207 273.977 194.453 273.851 194.632C273.832 194.658 272.025 197.261 272.761 199.668C272.825 199.877 272.708 200.098 272.498 200.161C272.458 200.176 272.419 200.18 272.381 200.18Z" fill="black"/>
<path d="M287.691 201.185C287.593 201.185 287.495 201.151 287.419 201.077C287.26 200.926 287.254 200.676 287.403 200.519L290.957 196.774C291.108 196.616 291.361 196.608 291.516 196.759C291.675 196.91 291.683 197.161 291.532 197.318L287.978 201.062C287.9 201.143 287.796 201.185 287.691 201.185Z" fill="black"/>
<path d="M291.445 200.188C291.385 200.183 288.934 199.805 288.934 199.805C288.718 199.772 288.572 199.57 288.604 199.354C288.638 199.139 288.821 198.988 289.056 199.024L291.506 199.402C291.722 199.435 291.869 199.637 291.836 199.853C291.805 200.048 291.638 200.188 291.445 200.188Z" fill="black"/>
<path d="M277.235 203.994C276.187 203.994 275.096 203.591 274.912 203.521C274.78 203.47 274.684 203.351 274.665 203.211C274.643 203.07 274.701 202.928 274.811 202.841L278.317 200.088C278.412 200.017 278.532 199.987 278.646 200.014C278.761 200.039 278.86 200.113 278.913 200.219C278.955 200.3 279.93 202.223 278.856 203.417C278.462 203.854 277.855 203.994 277.235 203.994ZM275.889 203.001C276.7 203.211 277.833 203.37 278.266 202.889C278.725 202.378 278.558 201.55 278.389 201.04L275.889 203.001Z" fill="black"/>
<path d="M269.871 189.496C269.682 189.496 269.516 189.361 269.482 189.169C269.444 188.953 269.587 188.749 269.802 188.712L272.119 188.308C272.34 188.265 272.539 188.414 272.577 188.629C272.614 188.845 272.471 189.051 272.256 189.087L269.939 189.49C269.918 189.495 269.893 189.496 269.871 189.496Z" fill="black"/>
<path d="M279.501 191.017C279.441 191.017 279.38 191.003 279.322 190.975L275.522 189.051C275.328 188.951 275.25 188.715 275.349 188.518C275.447 188.324 275.686 188.248 275.882 188.346L279.682 190.27C279.877 190.368 279.954 190.606 279.855 190.802C279.783 190.939 279.646 191.017 279.501 191.017Z" fill="black"/>
<path d="M269.869 194.851C269.832 194.851 269.791 194.846 269.754 194.834C269.544 194.77 269.427 194.548 269.491 194.341L270.153 192.186L269.564 191.465C269.426 191.297 269.451 191.048 269.619 190.909C269.79 190.769 270.037 190.794 270.174 190.964L270.898 191.848C270.984 191.951 271.009 192.088 270.972 192.214L270.248 194.571C270.195 194.742 270.039 194.851 269.869 194.851Z" fill="black"/>
<path d="M276.461 195.483C276.424 195.483 276.383 195.479 276.346 195.466C276.136 195.403 276.019 195.18 276.083 194.973L276.743 192.824L275.885 191.823C275.743 191.658 275.764 191.408 275.929 191.266C276.095 191.124 276.343 191.143 276.486 191.31L277.486 192.476C277.574 192.578 277.602 192.719 277.563 192.848L276.839 195.203C276.787 195.375 276.629 195.483 276.461 195.483Z" fill="black"/>
<path d="M263.992 257.382C263.917 257.376 256.53 255.97 256.53 255.97C256.315 255.93 256.174 255.723 256.216 255.506C256.256 255.293 256.454 255.151 256.68 255.192L264.067 256.598C264.281 256.638 264.422 256.845 264.381 257.062C264.344 257.25 264.179 257.382 263.992 257.382Z" fill="black"/>
<path d="M271.78 257.896C271.61 257.896 271.452 257.785 271.4 257.612C271.339 257.402 271.458 257.183 271.668 257.121L275.781 255.905C275.994 255.844 276.211 255.964 276.273 256.172C276.334 256.383 276.215 256.602 276.005 256.664L271.892 257.88C271.855 257.891 271.816 257.896 271.78 257.896Z" fill="black"/>
<path d="M255.392 266.623C255.221 266.623 255.062 266.511 255.012 266.337C254.952 266.127 255.073 265.909 255.283 265.848L265.757 262.823C265.966 262.759 266.186 262.884 266.246 263.094C266.307 263.304 266.186 263.522 265.975 263.583L255.501 266.608C255.465 266.619 255.43 266.623 255.392 266.623Z" fill="black"/>
<path d="M259.301 270.678C259.13 270.678 258.971 270.567 258.921 270.393C258.86 270.183 258.98 269.965 259.19 269.902L265.757 267.981C265.964 267.919 266.187 268.039 266.247 268.251C266.308 268.461 266.188 268.679 265.978 268.741L259.411 270.662C259.376 270.673 259.338 270.678 259.301 270.678Z" fill="black"/>
<path d="M291.244 252.695C291.058 252.695 290.892 252.566 290.856 252.377C290.814 252.163 290.952 251.955 291.166 251.912C291.306 251.884 305.199 249.15 313.233 249.15C313.453 249.15 313.629 249.326 313.629 249.546C313.629 249.765 313.453 249.941 313.233 249.941C305.277 249.941 291.46 252.661 291.321 252.689C291.295 252.693 291.267 252.695 291.244 252.695Z" fill="white"/>
<path d="M302.942 250.781C302.822 250.781 302.703 250.727 302.627 250.626C302.518 250.482 302.52 250.283 302.63 250.141C303.237 249.363 308.652 242.578 311.485 244.092C312.021 244.378 312.116 244.764 312.104 245.038C312.01 246.927 305.185 249.886 303.094 250.75C303.044 250.772 302.993 250.781 302.942 250.781ZM310.545 244.66C308.94 244.66 306.247 247.124 304.287 249.377C307.866 247.78 311.269 245.832 311.311 244.999C311.313 244.974 311.317 244.9 311.113 244.791C310.945 244.703 310.754 244.66 310.545 244.66Z" fill="white"/>
<path d="M249.361 248.679C249.258 248.679 249.154 248.641 249.076 248.56C249.03 248.511 244.39 243.732 240.157 242.717C239.944 242.667 239.813 242.452 239.865 242.239C239.916 242.027 240.125 241.898 240.343 241.946C244.8 243.017 249.45 247.806 249.646 248.01C249.797 248.167 249.792 248.418 249.634 248.567C249.559 248.644 249.461 248.679 249.361 248.679Z" fill="white"/>
<path d="M244.806 244.658C244.705 244.658 244.604 244.62 244.528 244.545C244.218 244.238 241.506 241.495 241.601 239.734C241.626 239.317 241.802 238.964 242.114 238.715C242.426 238.469 242.775 238.406 243.101 238.536C244.414 239.065 245.038 243.014 245.198 244.212C245.222 244.378 245.135 244.542 244.982 244.618C244.926 244.646 244.865 244.658 244.806 244.658ZM242.762 239.261C242.729 239.261 242.681 239.277 242.606 239.336C242.469 239.443 242.401 239.585 242.39 239.778C242.343 240.631 243.344 242.021 244.201 243.025C243.849 241.19 243.298 239.47 242.803 239.27C242.795 239.266 242.781 239.261 242.762 239.261Z" fill="white"/>
<path d="M266.481 425.837C266.269 425.837 266.077 425.691 266.031 425.476C259.822 397.751 260.141 304.382 260.168 298.322L250.561 294.045C250.327 293.942 250.221 293.67 250.327 293.437C250.428 293.203 250.704 293.099 250.936 293.203L260.82 297.601C260.988 297.676 261.095 297.841 261.095 298.024C261.089 299.01 260.569 396.86 266.932 425.273C266.988 425.521 266.832 425.768 266.582 425.823C266.546 425.832 266.513 425.837 266.481 425.837Z" fill="#5D2866"/>
<path d="M311.705 459.206C311.705 462.1 309.932 466.106 303.692 467.438C297.463 468.78 264.873 467.438 263.861 466.327C263.321 465.746 262.98 463.383 262.779 461.259C262.558 459.007 263.12 456.732 264.361 454.839C264.361 454.839 266.444 458.164 286.356 458.855C299.125 459.296 307.137 457.513 311.233 456.181C311.535 457.633 311.705 458.715 311.705 459.206Z" fill="#A49CF2"/>
<path d="M272.042 218.543C272.042 218.543 271.374 212.912 272.918 212.703C274.464 212.495 276.175 213.594 279.792 213.043C283.408 212.492 285.37 211.372 286.505 211.403C287.64 211.435 286.665 218.373 286.665 218.373L277.603 221.2L272.042 218.543Z" fill="#8B558E"/>
<path d="M279.788 216.695C279.586 216.695 279.413 216.541 279.395 216.337C279.373 216.119 279.535 215.926 279.751 215.907C281.398 215.752 286.297 215.113 286.346 215.107C286.581 215.067 286.761 215.232 286.789 215.448C286.819 215.666 286.665 215.864 286.449 215.892C286.399 215.898 281.485 216.539 279.823 216.695C279.813 216.695 279.801 216.695 279.788 216.695Z" fill="white"/>
<path d="M299.542 294.085C299.5 294.085 299.457 294.079 299.413 294.067C291.165 291.668 289.967 283.957 289.954 283.879C289.918 283.627 290.094 283.393 290.345 283.357C290.613 283.325 290.832 283.496 290.868 283.747C290.912 284.041 292.007 290.952 299.672 293.179C299.916 293.251 300.056 293.508 299.986 293.752C299.927 293.953 299.743 294.085 299.542 294.085Z" fill="#5D2866"/>
<g opacity="0.3">
<path d="M347.871 106.229C354.524 120.235 356.896 136.185 364.524 149.685C352.307 153.367 339.909 158.051 328.005 162.645C321.983 164.968 315.978 167.421 310.453 170.757C310.66 157.683 309.715 142.017 307.901 129.067C320.698 120.919 334.06 112.505 347.871 106.229Z" fill="#E37009"/>
<path d="M347.872 106.229C354.035 119.203 354.78 134.63 360.246 147.913C341.791 151.461 324.194 159.313 308.754 170.024C308.402 158.053 308.192 146.348 307.84 134.377C317.243 127.881 326.79 121.149 336.193 114.653C339.907 112.087 344.158 108.794 347.872 106.229Z" fill="#FFEEE0"/>
<path d="M347.871 106.229C349.796 110.28 349.466 115.345 349.842 119.815C350.591 128.714 351.34 137.612 352.089 146.511C345.406 149.21 338.974 152.075 332.291 154.773C323.266 158.418 314.09 162.15 306.543 168.296C304.339 155.863 305.349 142.806 308.736 130.641C322.117 123.687 335.343 114.622 347.871 106.229Z" fill="white"/>
<path d="M347.872 106.229C341.894 115.485 338.75 126.984 339.125 137.996C325.067 149.919 308.851 160.441 292.094 168.12C298.012 155.931 303.874 142.005 307.901 129.067C320.28 120.051 333.916 112.534 347.872 106.229Z" fill="#E37009"/>
</g>
<circle opacity="0.3" cx="147" cy="499" r="6" fill="white"/>
<circle opacity="0.3" cx="179" cy="756" r="6" fill="white"/>
<path opacity="0.3" d="M342 327L344.161 332.839L350 335L344.161 337.161L342 343L339.839 337.161L334 335L339.839 332.839L342 327Z" fill="white"/>
<g opacity="0.3">
<path d="M94.2062 98.536C84.1698 110.592 70.5303 119.542 61.3724 132.278C52.8042 122.623 43.2392 113.227 33.9666 104.246C29.2767 99.7039 24.4744 95.2304 19.0654 91.5741C31.159 86.2127 45.1433 78.6934 56.2642 71.5294C69.1791 79.821 82.5792 88.5182 94.2062 98.536Z" fill="#E37009"/>
<path d="M94.2063 98.536C84.909 109.704 71.0595 116.938 61.1825 127.597C50.0896 112.157 35.4086 99.3323 19.0174 89.7016C29.8599 84.296 40.5196 79.1335 51.3621 73.728C61.3193 79.6044 71.555 85.5123 81.5122 91.3887C85.4452 93.7099 90.2732 96.2148 94.2063 98.536Z" fill="#FFEEE0"/>
<path d="M94.2063 98.536C91.3029 102.024 86.5123 103.871 82.5674 106.114C74.714 110.58 66.8606 115.046 59.0072 119.512C53.692 114.521 48.3302 109.831 43.015 104.841C35.8366 98.1006 28.5134 91.2594 19.6651 86.939C30.1467 79.6356 42.5647 75.0193 55.1734 72.9652C67.2404 82.2994 81.18 90.5954 94.2063 98.536Z" fill="white"/>
<path d="M94.2062 98.536C83.1687 96.9766 71.2749 98.9719 61.3219 103.992C44.4048 96.1457 27.8584 85.7226 13.6922 73.5953C27.3975 73.8548 42.6743 73.3242 56.2644 71.5296C69.799 79.0686 82.4908 88.3984 94.2062 98.536Z" fill="#E37009"/>
</g>
<path d="M156.568 135.469L150.83 148.899L151.747 149.29L157.484 135.86L156.568 135.469Z" fill="white"/>
<path d="M153.083 132.543L141.762 141.777L142.392 142.548L153.713 133.315L153.083 132.543Z" fill="white"/>
<path d="M151.314 128.28L137 131.216L137.2 132.191L151.514 129.255L151.314 128.28Z" fill="white"/>
<path d="M137.74 119.71L137.463 120.667L151.5 124.726L151.777 123.769L137.74 119.71Z" fill="white"/>
<path d="M153.556 120.663L143.016 110.547L143.704 109.829L154.248 119.945L153.556 120.663Z" fill="white"/>
<path d="M153.587 103.84L152.641 104.155L157.271 118.006L158.216 117.69L153.587 103.84Z" fill="white"/>
<path d="M164.171 103L161.83 117.414L162.813 117.573L165.154 103.159L164.171 103Z" fill="white"/>
<path d="M166.897 119.584L166.1 118.983L174.88 107.308L175.673 107.905L166.897 119.584Z" fill="white"/>
<path d="M182.385 116.106L169.186 122.372L169.614 123.272L182.813 117.006L182.385 116.106Z" fill="white"/>
<path d="M170.336 126.775L170.296 127.77L184.897 128.353L184.937 127.358L170.336 126.775Z" fill="white"/>
<path d="M169.248 131.225L168.75 132.088L181.406 139.387L181.904 138.524L169.248 131.225Z" fill="white"/>
<path d="M166.286 134.678L165.444 135.21L173.257 147.55L174.099 147.018L166.286 134.678Z" fill="white"/>
<path d="M162.05 136.365L161.058 136.445L162.237 151L163.23 150.92L162.05 136.365Z" fill="white"/>
<circle opacity="0.3" cx="48" cy="182" r="8" fill="white"/>
<path d="M283.568 534.469L277.83 547.899L278.747 548.29L284.484 534.86L283.568 534.469Z" fill="white"/>
<path d="M280.083 531.543L268.762 540.777L269.392 541.548L280.713 532.315L280.083 531.543Z" fill="white"/>
<path d="M278.314 527.28L264 530.216L264.2 531.191L278.514 528.255L278.314 527.28Z" fill="white"/>
<path d="M264.74 518.71L264.463 519.667L278.5 523.726L278.777 522.769L264.74 518.71Z" fill="white"/>
<path d="M280.556 519.663L270.016 509.547L270.704 508.829L281.248 518.945L280.556 519.663Z" fill="white"/>
<path d="M280.587 502.84L279.641 503.155L284.271 517.006L285.216 516.69L280.587 502.84Z" fill="white"/>
<path d="M291.171 502L288.83 516.414L289.813 516.573L292.154 502.159L291.171 502Z" fill="white"/>
<path d="M293.897 518.584L293.1 517.983L301.88 506.308L302.673 506.905L293.897 518.584Z" fill="white"/>
<path d="M309.385 515.106L296.186 521.372L296.614 522.272L309.813 516.006L309.385 515.106Z" fill="white"/>
<path d="M297.336 525.775L297.296 526.77L311.897 527.353L311.937 526.358L297.336 525.775Z" fill="white"/>
<path d="M296.248 530.225L295.75 531.088L308.406 538.387L308.904 537.524L296.248 530.225Z" fill="white"/>
<path d="M293.286 533.678L292.444 534.21L300.257 546.55L301.099 546.018L293.286 533.678Z" fill="white"/>
<path d="M289.05 535.365L288.058 535.445L289.237 550L290.23 549.92L289.05 535.365Z" fill="white"/>
<path opacity="0.3" d="M72.5 521L74.5257 526.474L80 528.5L74.5257 530.526L72.5 536L70.4743 530.526L65 528.5L70.4743 526.474L72.5 521Z" fill="white"/>
<path opacity="0.3" d="M70 692L73.7813 702.219L84 706L73.7813 709.781L70 720L66.2187 709.781L56 706L66.2187 702.219L70 692Z" fill="white"/>
<g opacity="0.3">
<path d="M324.329 725.685C312.681 739.677 296.852 750.063 286.224 764.844C276.281 753.639 265.18 742.735 254.419 732.312C248.976 727.041 243.403 721.849 237.126 717.606C251.161 711.384 267.39 702.657 280.296 694.343C295.284 703.966 310.835 714.059 324.329 725.685Z" fill="#E37009"/>
<path d="M324.329 725.685C313.539 738.646 297.466 747.041 286.004 759.411C273.13 741.493 256.093 726.609 237.07 715.433C249.653 709.159 262.024 703.168 274.607 696.895C286.163 703.715 298.042 710.571 309.597 717.391C314.162 720.084 319.765 722.991 324.329 725.685Z" fill="#FFEEE0"/>
<path d="M324.329 725.685C320.96 729.733 315.4 731.877 310.822 734.48C301.708 739.663 292.594 744.846 283.479 750.028C277.311 744.236 271.089 738.794 264.92 733.002C256.589 725.18 248.091 717.24 237.822 712.227C249.986 703.751 264.398 698.393 279.03 696.01C293.034 706.842 309.212 716.47 324.329 725.685Z" fill="white"/>
<path d="M324.329 725.685C311.52 723.876 297.716 726.191 286.166 732.017C266.533 722.911 247.33 710.815 230.89 696.741C246.796 697.042 264.525 696.426 280.296 694.344C296.004 703.093 310.733 713.92 324.329 725.685Z" fill="#E37009"/>
</g>
</g>
<defs>
<clipPath id="clip0_1901_6465">
<rect width="376" height="812" fill="white"/>
</clipPath>
</defs>
</svg>
