<svg width="20" height="20" viewBox="0 0 20 20" fill="none" xmlns="http://www.w3.org/2000/svg">
<g clip-path="url(#clip0_1718_1744)">
<path d="M10 12.5001C11.3807 12.5001 12.5 11.3808 12.5 10.0001C12.5 8.61941 11.3807 7.50012 10 7.50012C8.61929 7.50012 7.5 8.61941 7.5 10.0001C7.5 11.3808 8.61929 12.5001 10 12.5001Z" stroke="#131927" stroke-width="1.5" stroke-linecap="round" stroke-linejoin="round"/>
<path d="M16.352 8.66297L15.4373 6.45414L16.6667 5.00014L15 3.33348L13.5539 4.56927L11.2981 3.64159L10.7794 1.66681H9.15081L8.62423 3.66775L6.42034 4.59678L5 3.33348L3.33333 5.00014L4.54447 6.49085L3.64375 8.70542L1.66666 9.16681V10.8335L3.66759 11.3797L4.59646 13.5833L3.33333 15.0001L5 16.6668L6.49263 15.4504L8.66418 16.3437L9.16666 18.3335H10.8333L11.3371 16.3445L13.5459 15.4298C13.9141 15.6929 15 16.6668 15 16.6668L16.6667 15.0001L15.4299 13.5413L16.3449 11.3318L18.3332 10.8145L18.3333 9.16681L16.352 8.66297Z" stroke="#131927" stroke-width="1.5" stroke-linecap="round" stroke-linejoin="round"/>
</g>
<defs>
<clipPath id="clip0_1718_1744">
<rect width="20" height="20" fill="white"/>
</clipPath>
</defs>
</svg>
