<svg width="20" height="20" viewBox="0 0 20 20" fill="none" xmlns="http://www.w3.org/2000/svg">
<g clip-path="url(#clip0_401_1804)">
<path d="M13.3337 5.23304C13.3337 5.73423 13.1357 6.21561 12.7823 6.57168C11.9686 7.39165 11.1795 8.24663 10.3354 9.03687C10.142 9.21537 9.83504 9.20884 9.64992 9.02228L7.21824 6.57168C6.48324 5.83096 6.48324 4.63513 7.21824 3.89441C7.96047 3.14641 9.16964 3.14641 9.91187 3.89441L10.0002 3.98348L10.0886 3.89446C10.4445 3.53564 10.9291 3.33325 11.4354 3.33325C11.9417 3.33325 12.4264 3.53562 12.7823 3.89441C13.1358 4.25053 13.3337 4.73188 13.3337 5.23304Z" stroke="#97C194" stroke-width="1.5" stroke-linejoin="round"/>
<path d="M15 16.6667L18.1576 13.5091C18.2701 13.3965 18.3333 13.2439 18.3333 13.0848V8.75C18.3333 8.05964 17.7737 7.5 17.0833 7.5V7.5C16.393 7.5 15.8333 8.05964 15.8333 8.75V12.5" stroke="#97C194" stroke-width="1.5" stroke-linecap="round" stroke-linejoin="round"/>
<path d="M14.9997 13.3333L15.7148 12.6182C15.7905 12.5425 15.833 12.4399 15.833 12.3328V12.3328C15.833 12.1799 15.7466 12.0401 15.6099 11.9718L15.4557 11.8947C14.6857 11.5097 13.7558 11.6606 13.147 12.2693L12.6688 12.7475C12.2937 13.1226 12.083 13.6313 12.083 14.1618V16.6667" stroke="#97C194" stroke-width="1.5" stroke-linecap="round" stroke-linejoin="round"/>
<path d="M5.00033 16.6667L1.84273 13.5091C1.73021 13.3965 1.66699 13.2439 1.66699 13.0848V8.75C1.66699 8.05964 2.22664 7.5 2.91699 7.5V7.5C3.60735 7.5 4.16699 8.05964 4.16699 8.75V12.5" stroke="#97C194" stroke-width="1.5" stroke-linecap="round" stroke-linejoin="round"/>
<path d="M5.00033 13.3333L4.28522 12.6182C4.20952 12.5425 4.16699 12.4399 4.16699 12.3328V12.3328C4.16699 12.1799 4.25337 12.0401 4.39012 11.9718L4.54432 11.8947C5.3143 11.5097 6.24425 11.6606 6.85297 12.2693L7.33121 12.7475C7.70628 13.1226 7.91699 13.6313 7.91699 14.1618V16.6667" stroke="#97C194" stroke-width="1.5" stroke-linecap="round" stroke-linejoin="round"/>
</g>
<defs>
<clipPath id="clip0_401_1804">
<rect width="20" height="20" fill="white"/>
</clipPath>
</defs>
</svg>
