<svg width="157" height="48" viewBox="0 0 157 48" fill="none" xmlns="http://www.w3.org/2000/svg">
<path d="M25.3942 0.49247C25.3836 0.494912 25.3728 0.496761 25.362 0.498015L25.3448 0.278271L25.3942 0.49247ZM1.52537 4.26296L25.3286 0.504437L49.1294 4.26292L39.0102 6.16772L25.3655 8.73547C25.3411 8.73932 25.3139 8.73932 25.2894 8.73547L11.6447 6.16773L11.6447 6.16772L6.32918 5.16696L6.32918 5.16696L6.32725 5.1666C6.06148 5.11764 5.80577 5.20735 5.62952 5.38046C5.52689 5.15156 5.31769 4.97743 5.0572 4.92802L5.05656 4.9279L1.52537 4.26296ZM5.25974 10.6386C5.3716 10.5813 5.47057 10.498 5.54607 10.3953C5.62223 10.4996 5.7234 10.585 5.84102 10.6425C6.06282 10.7516 6.21479 10.9797 6.21479 11.2434C6.21479 11.4109 6.15306 11.5637 6.04831 11.6851C5.92609 11.8261 5.85386 12.0067 5.85386 12.2043V14.1988C5.85386 14.2108 5.85081 14.2199 5.8461 14.2275C5.84098 14.2359 5.83321 14.2434 5.82333 14.2486L5.82333 14.2486L5.8198 14.2504C5.71491 14.3067 5.61991 14.3876 5.54645 14.4876C5.47298 14.3876 5.37799 14.3067 5.27309 14.2504L5.26956 14.2486C5.25968 14.2434 5.25191 14.2359 5.24679 14.2275C5.24208 14.2199 5.23904 14.2108 5.23904 14.1988V12.2043C5.23904 12.0107 5.16787 11.8269 5.04368 11.6841L4.66638 12.0122L5.04479 11.6853C4.93991 11.5639 4.8781 11.411 4.8781 11.2434C4.8781 10.9796 5.03028 10.7513 5.25234 10.6423L5.25237 10.6423L5.25974 10.6386ZM5.44145 16.2092C5.48026 16.1734 5.51544 16.1339 5.54645 16.0913L5.99058 15.8418L5.64813 16.2061C5.6484 16.2064 5.64867 16.2066 5.64893 16.2069C5.67928 16.2357 5.69149 16.2678 5.69258 16.2938L5.71254 16.773H5.76417L6.78161 23.5261H4.31355L5.32885 16.773H5.3741L5.4 16.3004C5.40201 16.2637 5.41666 16.2325 5.44477 16.2061L5.10234 15.8418L5.44145 16.2092Z" fill="#E37009" stroke="#E37009"/>
<mask id="path-2-inside-1_663_3358" fill="white">
<path d="M39.21 18.659C38.835 18.1997 38.4342 17.759 38.01 17.3348C37.8858 17.2106 37.7592 17.0864 37.6326 16.9669C37.5155 16.8567 37.5389 16.6669 37.6795 16.5895C37.71 16.5731 37.7381 16.5591 37.7662 16.5427C38.7811 15.9708 39.3576 15.3216 39.3576 14.6302V7.46074C39.3576 7.31543 39.224 7.20527 39.0811 7.23105L25.3726 9.81149C25.3422 9.81618 25.314 9.81618 25.2859 9.81149L11.5751 7.23105C11.4322 7.20527 11.2986 7.31543 11.2986 7.46074V14.6302C11.2986 15.3216 11.8728 15.9708 12.89 16.5427C12.9181 16.5591 12.9486 16.5731 12.9767 16.5895C13.1173 16.6645 13.1408 16.8567 13.0236 16.9669C12.897 17.0864 12.7704 17.2106 12.6462 17.3348C12.222 17.759 11.8212 18.1997 11.4486 18.659C11.3033 18.8348 11.1627 19.0129 11.0267 19.1934C8.66893 22.2988 7.3916 26.0699 7.3916 30.0378C7.3916 34.0057 8.54471 37.3994 10.6798 40.4111C10.8111 40.5939 10.947 40.7767 11.0853 40.9572C11.5634 41.5783 12.0837 42.1736 12.6462 42.7384C15.6415 45.7384 19.5086 47.5454 23.6758 47.9251C24.1352 47.9649 24.5992 47.9907 25.0656 47.9954C25.1523 47.9977 25.2414 48.0001 25.3281 48.0001C25.4172 48.0001 25.5039 47.9977 25.5929 47.9954C26.0593 47.9907 26.5234 47.9649 26.9828 47.9251C31.1499 47.5454 35.0171 45.7384 38.0123 42.7384C38.5748 42.1736 39.0951 41.5783 39.5732 40.9572C39.7115 40.7767 39.8451 40.5939 39.9764 40.4111C42.1138 37.3994 43.267 33.8065 43.267 30.0378C43.267 26.0699 41.9896 22.2988 39.6318 19.1934C39.4959 19.0129 39.3553 18.8348 39.21 18.659ZM38.4319 18.8067C38.5303 18.9192 38.4998 19.0926 38.3686 19.1653C38.024 19.3575 37.6561 19.5426 37.2647 19.7207C36.128 20.241 34.8553 20.677 33.4843 21.0238C33.3741 21.052 33.2616 20.9957 33.2147 20.8903C32.8585 20.0981 32.4554 19.3293 32.0054 18.5887C31.921 18.4481 32.0054 18.2653 32.1671 18.2372C33.8897 17.9536 35.3874 17.5669 36.5639 17.1028C36.6459 17.07 36.7397 17.0864 36.8053 17.145C37.3842 17.663 37.928 18.2184 38.4319 18.8067ZM31.1476 18.5231C31.6444 19.2942 32.0921 20.1098 32.4858 20.9606C32.5491 21.0965 32.4694 21.2582 32.3241 21.2887C30.3273 21.7035 28.1546 21.9379 25.9047 21.9731C25.7734 21.9731 25.6679 21.8676 25.6679 21.7363V18.9895C25.6679 18.8606 25.7711 18.7575 25.9 18.7551C27.6789 18.734 29.3734 18.6168 30.9226 18.4176C31.0116 18.4083 31.1007 18.4481 31.1476 18.5231ZM25.9023 30.3776H34.1803C34.3116 30.3776 34.4194 30.4854 34.4147 30.619C34.3374 32.9932 33.8827 35.2596 33.1163 37.3455C33.0741 37.4557 32.9593 37.5166 32.8444 37.4932C30.6952 37.015 28.3398 36.7479 25.8976 36.7127C25.7711 36.7104 25.6679 36.6072 25.6679 36.4783V30.612C25.6679 30.4831 25.7711 30.3776 25.9023 30.3776ZM25.6679 29.4612V22.8871C25.6679 22.7582 25.7711 22.6551 25.8976 22.6527C28.2812 22.6176 30.5804 22.3621 32.685 21.9074C32.7975 21.884 32.9124 21.9426 32.9522 22.0504C33.8475 24.3238 34.3655 26.8269 34.4194 29.4589C34.4217 29.5878 34.3163 29.6956 34.185 29.6956H25.9023C25.7711 29.6956 25.6679 29.5901 25.6679 29.4612ZM14.0923 17.1028C15.2665 17.5645 16.7641 17.9536 18.4868 18.2372C18.6508 18.2629 18.7352 18.4481 18.6485 18.5887C18.1985 19.327 17.7954 20.0957 17.4391 20.8903C17.3923 20.9934 17.2798 21.052 17.1696 21.0238C15.7985 20.677 14.5259 20.241 13.3892 19.7207C12.9978 19.5426 12.6298 19.3575 12.2853 19.1653C12.154 19.0926 12.1236 18.9192 12.222 18.8067C12.7259 18.2161 13.2697 17.6606 13.8486 17.145C13.9142 17.0864 14.0079 17.07 14.0923 17.1028ZM11.4861 19.7301C11.5564 19.634 11.6853 19.6082 11.7884 19.6668C12.1962 19.9012 12.6369 20.1262 13.1079 20.3418C14.2353 20.8551 15.4892 21.291 16.8391 21.6402C16.9751 21.6754 17.0501 21.8207 16.9985 21.9543C16.0985 24.3004 15.604 26.841 15.5548 29.4659C15.5524 29.5925 15.447 29.6956 15.3204 29.6956H8.31503C8.18378 29.6956 8.07831 29.5855 8.083 29.4519C8.20487 25.8168 9.45173 22.4629 11.4861 19.7301ZM8.31503 30.3776H15.3251C15.4517 30.3776 15.5548 30.4784 15.5595 30.605C15.6298 32.9885 16.0704 35.2994 16.8462 37.458C16.8931 37.5893 16.8204 37.7299 16.6868 37.765C15.3954 38.1072 14.1907 38.5291 13.1079 39.0236C12.5009 39.3025 11.9431 39.5978 11.4369 39.9072C11.3314 39.9728 11.1955 39.9424 11.1228 39.8416C9.30174 37.2025 8.1955 34.0338 8.08066 30.619C8.07831 30.4854 8.18378 30.3776 8.31503 30.3776ZM11.8212 40.7814C11.7322 40.6689 11.7626 40.5048 11.8822 40.4322C12.3415 40.158 12.8431 39.8955 13.3892 39.6447C14.4767 39.1478 15.6884 38.7283 16.9915 38.3885C17.1016 38.3603 17.2188 38.4189 17.2657 38.5267C18.1329 40.5798 19.3165 42.4759 20.7883 44.1306C21.693 45.1478 22.6774 46.0431 23.725 46.8071C23.9172 46.9477 23.8 47.2524 23.5609 47.229C18.8196 46.7438 14.6407 44.3275 11.8212 40.7814ZM24.6226 46.5915C21.768 44.6603 19.4501 41.8244 17.9782 38.4377C17.9196 38.3018 18.0016 38.1471 18.1446 38.1166C20.193 37.676 22.4289 37.4299 24.7492 37.3947C24.8805 37.3924 24.9859 37.4979 24.9859 37.6291V46.397C24.9859 46.5845 24.7773 46.697 24.6203 46.5915H24.6226ZM24.7562 36.7127C22.3141 36.7479 19.9586 37.015 17.8094 37.4908C17.6969 37.5166 17.5798 37.4557 17.5399 37.3455C16.7712 35.2596 16.3165 32.9909 16.2415 30.619C16.2368 30.4854 16.3423 30.3776 16.4735 30.3776H24.7539C24.8828 30.3776 24.9883 30.4808 24.9883 30.612V36.4783C24.9883 36.6072 24.8851 36.7104 24.7562 36.7127ZM24.7539 29.6956H16.4688C16.3376 29.6956 16.2321 29.5878 16.2345 29.4589C16.2884 26.8269 16.8063 24.3238 17.7016 22.0504C17.7438 21.9426 17.8563 21.884 17.9688 21.9074C20.0758 22.3621 22.375 22.6176 24.7562 22.6527C24.8851 22.6551 24.9883 22.7582 24.9883 22.8871V29.4612C24.9883 29.5925 24.8828 29.6956 24.7539 29.6956ZM18.168 20.9606C18.5618 20.1098 19.0094 19.2942 19.5063 18.5231C19.5532 18.4458 19.6422 18.4059 19.7313 18.4176C21.2805 18.6168 22.975 18.734 24.7539 18.7551C24.8828 18.7575 24.9859 18.8606 24.9859 18.9895V21.7363C24.9859 21.8676 24.8805 21.9731 24.7492 21.9707C22.4992 21.9379 20.3289 21.7035 18.3321 21.2887C18.1844 21.2582 18.1048 21.0965 18.168 20.9606ZM25.9047 37.3947C28.2249 37.4299 30.4632 37.676 32.5093 38.1166C32.6522 38.1471 32.7343 38.3018 32.6757 38.4377C31.2038 41.8244 28.8859 44.6603 26.0312 46.5915C25.8765 46.697 25.6679 46.5845 25.6679 46.397V37.6291C25.6679 37.4979 25.7734 37.3924 25.9047 37.3947ZM27.0929 47.229C26.8562 47.2524 26.7367 46.9477 26.9289 46.8071C27.9789 46.0407 28.9632 45.1478 29.8679 44.1306C31.3398 42.4736 32.5233 40.5798 33.3905 38.5267C33.435 38.4189 33.5522 38.3603 33.6647 38.3885C34.9678 38.7283 36.1772 39.1478 37.2647 39.6447C37.8108 39.8931 38.3147 40.158 38.7717 40.4322C38.8936 40.5048 38.9217 40.6689 38.8326 40.7814C36.0131 44.3275 31.8343 46.7438 27.0929 47.229ZM39.5311 39.8416C39.4607 39.9424 39.3225 39.9728 39.217 39.9072C38.7108 39.5978 38.1553 39.3025 37.5483 39.0236C36.4631 38.5291 35.2608 38.1072 33.9694 37.765C33.8358 37.7299 33.7608 37.5893 33.8077 37.458C34.5835 35.2994 35.0241 32.9885 35.0967 30.605C35.0991 30.4784 35.2022 30.3776 35.3288 30.3776H42.3388C42.4701 30.3776 42.5756 30.4854 42.5732 30.619C42.4584 34.0338 41.3521 37.2025 39.5311 39.8416ZM35.1014 29.4659C35.0499 26.841 34.5553 24.3004 33.6553 21.9543C33.6038 21.8207 33.6788 21.6754 33.8171 21.6402C35.1647 21.291 36.4209 20.8551 37.5483 20.3418C38.017 20.1262 38.4576 19.9012 38.8678 19.6668C38.9686 19.6082 39.0998 19.634 39.1701 19.7301C41.2045 22.4629 42.4513 25.8168 42.5732 29.4519C42.5779 29.5855 42.4724 29.6956 42.3388 29.6956H35.3358C35.2069 29.6956 35.1038 29.5925 35.1014 29.4659Z"/>
</mask>
<path d="M39.21 18.659C38.835 18.1997 38.4342 17.759 38.01 17.3348C37.8858 17.2106 37.7592 17.0864 37.6326 16.9669C37.5155 16.8567 37.5389 16.6669 37.6795 16.5895C37.71 16.5731 37.7381 16.5591 37.7662 16.5427C38.7811 15.9708 39.3576 15.3216 39.3576 14.6302V7.46074C39.3576 7.31543 39.224 7.20527 39.0811 7.23105L25.3726 9.81149C25.3422 9.81618 25.314 9.81618 25.2859 9.81149L11.5751 7.23105C11.4322 7.20527 11.2986 7.31543 11.2986 7.46074V14.6302C11.2986 15.3216 11.8728 15.9708 12.89 16.5427C12.9181 16.5591 12.9486 16.5731 12.9767 16.5895C13.1173 16.6645 13.1408 16.8567 13.0236 16.9669C12.897 17.0864 12.7704 17.2106 12.6462 17.3348C12.222 17.759 11.8212 18.1997 11.4486 18.659C11.3033 18.8348 11.1627 19.0129 11.0267 19.1934C8.66893 22.2988 7.3916 26.0699 7.3916 30.0378C7.3916 34.0057 8.54471 37.3994 10.6798 40.4111C10.8111 40.5939 10.947 40.7767 11.0853 40.9572C11.5634 41.5783 12.0837 42.1736 12.6462 42.7384C15.6415 45.7384 19.5086 47.5454 23.6758 47.9251C24.1352 47.9649 24.5992 47.9907 25.0656 47.9954C25.1523 47.9977 25.2414 48.0001 25.3281 48.0001C25.4172 48.0001 25.5039 47.9977 25.5929 47.9954C26.0593 47.9907 26.5234 47.9649 26.9828 47.9251C31.1499 47.5454 35.0171 45.7384 38.0123 42.7384C38.5748 42.1736 39.0951 41.5783 39.5732 40.9572C39.7115 40.7767 39.8451 40.5939 39.9764 40.4111C42.1138 37.3994 43.267 33.8065 43.267 30.0378C43.267 26.0699 41.9896 22.2988 39.6318 19.1934C39.4959 19.0129 39.3553 18.8348 39.21 18.659ZM38.4319 18.8067C38.5303 18.9192 38.4998 19.0926 38.3686 19.1653C38.024 19.3575 37.6561 19.5426 37.2647 19.7207C36.128 20.241 34.8553 20.677 33.4843 21.0238C33.3741 21.052 33.2616 20.9957 33.2147 20.8903C32.8585 20.0981 32.4554 19.3293 32.0054 18.5887C31.921 18.4481 32.0054 18.2653 32.1671 18.2372C33.8897 17.9536 35.3874 17.5669 36.5639 17.1028C36.6459 17.07 36.7397 17.0864 36.8053 17.145C37.3842 17.663 37.928 18.2184 38.4319 18.8067ZM31.1476 18.5231C31.6444 19.2942 32.0921 20.1098 32.4858 20.9606C32.5491 21.0965 32.4694 21.2582 32.3241 21.2887C30.3273 21.7035 28.1546 21.9379 25.9047 21.9731C25.7734 21.9731 25.6679 21.8676 25.6679 21.7363V18.9895C25.6679 18.8606 25.7711 18.7575 25.9 18.7551C27.6789 18.734 29.3734 18.6168 30.9226 18.4176C31.0116 18.4083 31.1007 18.4481 31.1476 18.5231ZM25.9023 30.3776H34.1803C34.3116 30.3776 34.4194 30.4854 34.4147 30.619C34.3374 32.9932 33.8827 35.2596 33.1163 37.3455C33.0741 37.4557 32.9593 37.5166 32.8444 37.4932C30.6952 37.015 28.3398 36.7479 25.8976 36.7127C25.7711 36.7104 25.6679 36.6072 25.6679 36.4783V30.612C25.6679 30.4831 25.7711 30.3776 25.9023 30.3776ZM25.6679 29.4612V22.8871C25.6679 22.7582 25.7711 22.6551 25.8976 22.6527C28.2812 22.6176 30.5804 22.3621 32.685 21.9074C32.7975 21.884 32.9124 21.9426 32.9522 22.0504C33.8475 24.3238 34.3655 26.8269 34.4194 29.4589C34.4217 29.5878 34.3163 29.6956 34.185 29.6956H25.9023C25.7711 29.6956 25.6679 29.5901 25.6679 29.4612ZM14.0923 17.1028C15.2665 17.5645 16.7641 17.9536 18.4868 18.2372C18.6508 18.2629 18.7352 18.4481 18.6485 18.5887C18.1985 19.327 17.7954 20.0957 17.4391 20.8903C17.3923 20.9934 17.2798 21.052 17.1696 21.0238C15.7985 20.677 14.5259 20.241 13.3892 19.7207C12.9978 19.5426 12.6298 19.3575 12.2853 19.1653C12.154 19.0926 12.1236 18.9192 12.222 18.8067C12.7259 18.2161 13.2697 17.6606 13.8486 17.145C13.9142 17.0864 14.0079 17.07 14.0923 17.1028ZM11.4861 19.7301C11.5564 19.634 11.6853 19.6082 11.7884 19.6668C12.1962 19.9012 12.6369 20.1262 13.1079 20.3418C14.2353 20.8551 15.4892 21.291 16.8391 21.6402C16.9751 21.6754 17.0501 21.8207 16.9985 21.9543C16.0985 24.3004 15.604 26.841 15.5548 29.4659C15.5524 29.5925 15.447 29.6956 15.3204 29.6956H8.31503C8.18378 29.6956 8.07831 29.5855 8.083 29.4519C8.20487 25.8168 9.45173 22.4629 11.4861 19.7301ZM8.31503 30.3776H15.3251C15.4517 30.3776 15.5548 30.4784 15.5595 30.605C15.6298 32.9885 16.0704 35.2994 16.8462 37.458C16.8931 37.5893 16.8204 37.7299 16.6868 37.765C15.3954 38.1072 14.1907 38.5291 13.1079 39.0236C12.5009 39.3025 11.9431 39.5978 11.4369 39.9072C11.3314 39.9728 11.1955 39.9424 11.1228 39.8416C9.30174 37.2025 8.1955 34.0338 8.08066 30.619C8.07831 30.4854 8.18378 30.3776 8.31503 30.3776ZM11.8212 40.7814C11.7322 40.6689 11.7626 40.5048 11.8822 40.4322C12.3415 40.158 12.8431 39.8955 13.3892 39.6447C14.4767 39.1478 15.6884 38.7283 16.9915 38.3885C17.1016 38.3603 17.2188 38.4189 17.2657 38.5267C18.1329 40.5798 19.3165 42.4759 20.7883 44.1306C21.693 45.1478 22.6774 46.0431 23.725 46.8071C23.9172 46.9477 23.8 47.2524 23.5609 47.229C18.8196 46.7438 14.6407 44.3275 11.8212 40.7814ZM24.6226 46.5915C21.768 44.6603 19.4501 41.8244 17.9782 38.4377C17.9196 38.3018 18.0016 38.1471 18.1446 38.1166C20.193 37.676 22.4289 37.4299 24.7492 37.3947C24.8805 37.3924 24.9859 37.4979 24.9859 37.6291V46.397C24.9859 46.5845 24.7773 46.697 24.6203 46.5915H24.6226ZM24.7562 36.7127C22.3141 36.7479 19.9586 37.015 17.8094 37.4908C17.6969 37.5166 17.5798 37.4557 17.5399 37.3455C16.7712 35.2596 16.3165 32.9909 16.2415 30.619C16.2368 30.4854 16.3423 30.3776 16.4735 30.3776H24.7539C24.8828 30.3776 24.9883 30.4808 24.9883 30.612V36.4783C24.9883 36.6072 24.8851 36.7104 24.7562 36.7127ZM24.7539 29.6956H16.4688C16.3376 29.6956 16.2321 29.5878 16.2345 29.4589C16.2884 26.8269 16.8063 24.3238 17.7016 22.0504C17.7438 21.9426 17.8563 21.884 17.9688 21.9074C20.0758 22.3621 22.375 22.6176 24.7562 22.6527C24.8851 22.6551 24.9883 22.7582 24.9883 22.8871V29.4612C24.9883 29.5925 24.8828 29.6956 24.7539 29.6956ZM18.168 20.9606C18.5618 20.1098 19.0094 19.2942 19.5063 18.5231C19.5532 18.4458 19.6422 18.4059 19.7313 18.4176C21.2805 18.6168 22.975 18.734 24.7539 18.7551C24.8828 18.7575 24.9859 18.8606 24.9859 18.9895V21.7363C24.9859 21.8676 24.8805 21.9731 24.7492 21.9707C22.4992 21.9379 20.3289 21.7035 18.3321 21.2887C18.1844 21.2582 18.1048 21.0965 18.168 20.9606ZM25.9047 37.3947C28.2249 37.4299 30.4632 37.676 32.5093 38.1166C32.6522 38.1471 32.7343 38.3018 32.6757 38.4377C31.2038 41.8244 28.8859 44.6603 26.0312 46.5915C25.8765 46.697 25.6679 46.5845 25.6679 46.397V37.6291C25.6679 37.4979 25.7734 37.3924 25.9047 37.3947ZM27.0929 47.229C26.8562 47.2524 26.7367 46.9477 26.9289 46.8071C27.9789 46.0407 28.9632 45.1478 29.8679 44.1306C31.3398 42.4736 32.5233 40.5798 33.3905 38.5267C33.435 38.4189 33.5522 38.3603 33.6647 38.3885C34.9678 38.7283 36.1772 39.1478 37.2647 39.6447C37.8108 39.8931 38.3147 40.158 38.7717 40.4322C38.8936 40.5048 38.9217 40.6689 38.8326 40.7814C36.0131 44.3275 31.8343 46.7438 27.0929 47.229ZM39.5311 39.8416C39.4607 39.9424 39.3225 39.9728 39.217 39.9072C38.7108 39.5978 38.1553 39.3025 37.5483 39.0236C36.4631 38.5291 35.2608 38.1072 33.9694 37.765C33.8358 37.7299 33.7608 37.5893 33.8077 37.458C34.5835 35.2994 35.0241 32.9885 35.0967 30.605C35.0991 30.4784 35.2022 30.3776 35.3288 30.3776H42.3388C42.4701 30.3776 42.5756 30.4854 42.5732 30.619C42.4584 34.0338 41.3521 37.2025 39.5311 39.8416ZM35.1014 29.4659C35.0499 26.841 34.5553 24.3004 33.6553 21.9543C33.6038 21.8207 33.6788 21.6754 33.8171 21.6402C35.1647 21.291 36.4209 20.8551 37.5483 20.3418C38.017 20.1262 38.4576 19.9012 38.8678 19.6668C38.9686 19.6082 39.0998 19.634 39.1701 19.7301C41.2045 22.4629 42.4513 25.8168 42.5732 29.4519C42.5779 29.5855 42.4724 29.6956 42.3388 29.6956H35.3358C35.2069 29.6956 35.1038 29.5925 35.1014 29.4659Z" fill="#E37009" stroke="#E37009" stroke-width="2" mask="url(#path-2-inside-1_663_3358)"/>
<path d="M14.714 26.5033L15.2103 26.4419C15.1743 26.1514 15.0978 25.8823 14.958 25.6577C14.9162 25.5907 14.8692 25.529 14.8175 25.4729H16.6661C16.6143 25.529 16.5674 25.5907 16.5256 25.6577C16.3857 25.8823 16.3092 26.1514 16.2733 26.4419C16.2395 26.7148 16.2226 27.0459 16.2226 27.4315V32.8056C16.2226 33.2329 16.2393 33.5884 16.2733 33.8631L16.2734 33.8637C16.3102 34.1587 16.3982 34.4439 16.5735 34.6722C16.598 34.7045 16.6238 34.7352 16.6508 34.7642H14.8291C14.8576 34.7331 14.8847 34.7003 14.9103 34.6655L14.9104 34.6655L14.9137 34.6608C15.0725 34.4401 15.1596 34.1651 15.2016 33.8751C15.2446 33.5916 15.2609 33.2296 15.2609 32.8056V27.4315C15.2609 27.0438 15.2441 26.7123 15.2102 26.4413L14.714 26.5033ZM14.714 26.5033C14.7445 26.7471 14.7609 27.0565 14.7609 27.4315V32.8056C14.7609 33.2228 14.7445 33.5556 14.707 33.8017L17.3976 34.6431C17.2148 34.5939 17.0718 34.5025 16.9711 34.3689C16.8679 34.2353 16.8 34.0454 16.7695 33.8017C16.739 33.5556 16.7226 33.2228 16.7226 32.8056V27.4315C16.7226 27.0588 16.739 26.7494 16.7695 26.5033C16.8 26.2573 16.8609 26.0651 16.95 25.9221C17.039 25.7791 17.1656 25.6784 17.3296 25.6198M14.714 26.5033C14.6836 26.2573 14.6226 26.0651 14.5336 25.9221C14.4445 25.7791 14.318 25.6784 14.1539 25.6198C14.0391 25.5799 13.8961 25.5495 13.7273 25.5284C13.5937 25.512 13.493 25.3971 13.493 25.2612V25.2401C13.493 25.0924 13.6125 24.9729 13.7625 24.9729H17.7234C17.871 24.9729 17.9906 25.0924 17.9906 25.2401V25.2612C17.9906 25.3971 17.8898 25.512 17.7562 25.5284C17.5874 25.5495 17.4445 25.5799 17.3296 25.6198M17.3296 25.6198L17.3296 25.6198L17.3296 25.6198Z" fill="#E37009" stroke="#E37009"/>
<path d="M23.2373 34.7665H21.4331C21.4351 34.7643 21.4371 34.7621 21.4391 34.7599L21.0699 34.4228L21.4392 34.7599C21.6205 34.5613 21.7146 34.314 21.7626 34.0617L21.7627 34.0617L21.7637 34.056C21.8062 33.8177 21.823 33.5315 21.823 33.2064V27.0307C21.823 26.7082 21.8088 26.4275 21.7723 26.1977L21.7724 26.1977L21.7714 26.1919C21.7305 25.9528 21.6496 25.7092 21.4885 25.509C21.4787 25.4966 21.4687 25.4846 21.4585 25.4729H22.95C22.8208 25.6269 22.7871 25.8091 22.7871 25.9502V29.7166C22.7871 30.0003 22.9426 30.2534 23.1768 30.3867C22.9434 30.519 22.7871 30.7704 22.7871 31.0572V33.1408C22.7871 33.4932 22.8086 33.8067 22.8635 34.0643C22.9205 34.3347 23.0412 34.5761 23.2373 34.7665ZM27.3974 29.6184C27.0122 29.878 26.4997 30.0705 25.8447 30.1808C26.0421 30.0904 26.2211 29.9778 26.3788 29.8404C26.9249 29.3649 27.1503 28.652 27.1503 27.8205C27.1503 27.0716 26.9603 26.4161 26.5091 25.9298C26.3821 25.7923 26.2388 25.6774 26.0816 25.5829C26.6721 25.6886 27.1301 25.8669 27.4714 26.1031C28.0133 26.4805 28.2972 27.0294 28.2972 27.8322V27.9559C28.268 28.6997 27.9665 29.2349 27.3974 29.6184Z" fill="#E37009" stroke="#E37009"/>
<path d="M30.8448 34.1355C30.6353 34.088 30.4186 34.1337 30.2461 34.2503V33.3643C30.4079 33.6495 30.6071 33.9074 30.8448 34.1355ZM35.8552 34.1472C35.6837 34.2775 35.4899 34.3938 35.2731 34.4953C35.5037 34.3139 35.6936 34.096 35.8319 33.8405L35.8319 33.8405L35.8351 33.8343C35.9806 33.5562 36.0515 33.2509 36.0515 32.9275C36.0515 32.6629 36.0114 32.41 35.9108 32.1763C35.8 31.9131 35.6017 31.701 35.3828 31.5265L35.3804 31.5246C35.1523 31.345 34.86 31.1762 34.5134 31.0165C34.1737 30.8566 33.7394 30.6784 33.2199 30.4824C32.2164 30.0934 31.525 29.6638 31.0974 29.2105C30.6866 28.7702 30.4875 28.2663 30.4875 27.6729C30.4875 27.3206 30.5545 27.0084 30.6809 26.7332C30.8106 26.451 30.9922 26.2091 31.2256 26.0079L31.2259 26.0077C31.3552 25.8961 31.5004 25.7969 31.6634 25.7101C31.2355 26.0702 31.0086 26.5481 31.0086 27.1128C31.0086 27.3513 31.0477 27.5887 31.142 27.8095C31.2462 28.0568 31.4294 28.26 31.6388 28.4259L31.9492 28.0338L31.6388 28.4259C31.8489 28.5922 32.1183 28.7469 32.4295 28.8938L32.6429 28.4417L32.4295 28.8938C32.7402 29.0404 33.1337 29.2004 33.6016 29.3715C34.2051 29.6039 34.7132 29.8376 35.1272 30.0688L35.129 30.0698C35.5393 30.2967 35.8589 30.5323 36.0965 30.7718L36.0964 30.7718L36.0979 30.7733C36.3416 31.017 36.5083 31.2607 36.613 31.505L37.0726 31.308L36.613 31.505C36.7176 31.7492 36.7741 32.026 36.7741 32.3369C36.7741 32.7167 36.6926 33.0509 36.5361 33.349L36.535 33.3512C36.3772 33.6554 36.1531 33.9186 35.8552 34.1472ZM35.9609 26.6957C35.8136 26.4486 35.6434 26.2262 35.4495 26.0304C35.6246 26.0696 35.8054 26.0444 35.9609 25.9663V26.6957Z" fill="#E37009" stroke="#E37009"/>
<path d="M54.5498 46.8305V1.17017" stroke="#E37009" stroke-width="0.99924"/>
<mask id="path-7-inside-2_663_3358" fill="white">
<path d="M60.173 13.6738L60.1754 5.27392H61.7316V13.6738H60.173ZM64.0003 13.6738V5.27392H65.2824L70.5417 11.7426H69.9065L69.9089 5.27627H71.4534L71.451 13.6762H70.169L64.9097 7.20749H65.5448V13.6738H64.0003ZM76.3002 13.7957C75.6439 13.7957 75.0182 13.7043 74.4182 13.5191C73.8205 13.3269 73.3448 13.0832 72.9932 12.7879L73.5323 11.5762C73.8674 11.841 74.2822 12.059 74.7791 12.2371C75.2736 12.4129 75.7799 12.4996 76.3002 12.4996C76.7385 12.4996 77.0947 12.4527 77.3666 12.3566C77.6385 12.2606 77.8377 12.1316 77.9666 11.9723C78.0931 11.8035 78.1564 11.616 78.1564 11.4098C78.1564 11.152 78.065 10.9481 77.8822 10.7957C77.697 10.6364 77.458 10.5121 77.1627 10.4254C76.8744 10.3293 76.551 10.2403 76.1924 10.1606C75.8408 10.0809 75.4846 9.98715 75.126 9.88402C74.7744 9.77152 74.451 9.63324 74.1557 9.4645C73.8674 9.28872 73.633 9.05669 73.4479 8.76841C73.2651 8.48013 73.1737 8.11217 73.1737 7.66452C73.1737 7.20749 73.2932 6.79265 73.5323 6.41532C73.7807 6.03095 74.151 5.72861 74.6479 5.50361C75.1494 5.27158 75.7846 5.15674 76.5533 5.15674C77.0549 5.15674 77.5541 5.22002 78.0509 5.34892C78.5455 5.47783 78.9767 5.66064 79.3447 5.8997L78.8525 7.11374C78.4775 6.88875 78.0908 6.72469 77.69 6.62156C77.2916 6.50906 76.9072 6.45282 76.5392 6.45282C76.108 6.45282 75.7564 6.50438 75.4869 6.6075C75.2221 6.71297 75.0252 6.8489 74.8986 7.01531C74.7791 7.18406 74.7182 7.37624 74.7182 7.59186C74.7182 7.84733 74.8072 8.05592 74.983 8.21529C75.1658 8.36763 75.4025 8.48716 75.6885 8.57623C75.9838 8.66529 76.3119 8.75201 76.6705 8.84107C77.0314 8.92075 77.3877 9.01216 77.7369 9.11762C78.0978 9.22075 78.4213 9.35668 78.7072 9.52543C79.0048 9.69184 79.2392 9.92152 79.415 10.2098C79.6001 10.4957 79.6916 10.8614 79.6916 11.302C79.6916 11.7496 79.5673 12.1645 79.3189 12.5488C79.0798 12.9238 78.7072 13.2285 78.2056 13.4605C77.7017 13.6855 77.0666 13.7957 76.3002 13.7957ZM82.8181 13.6762L82.8204 6.59813L80.0408 6.59578V5.27627L87.1587 5.27861V6.59813H84.379L84.3767 13.6785L82.8181 13.6762ZM88.3258 13.6785V5.27861H89.8844V13.6785H88.3258ZM93.8523 13.6785L93.8547 6.59813H91.075V5.27861H98.1906V6.59813H95.4109V13.6785H93.8523ZM102.815 13.8004C101.664 13.8004 100.762 13.4746 100.105 12.8277C99.4585 12.1785 99.1351 11.2434 99.1351 10.02L99.1374 5.27861H100.694V9.95902C100.694 10.8239 100.876 11.452 101.244 11.8434C101.619 12.2348 102.147 12.4316 102.826 12.4316C103.504 12.4316 104.029 12.2348 104.397 11.8434C104.762 11.452 104.948 10.8239 104.948 9.95902V5.28096H106.48V10.02C106.48 11.2434 106.152 12.1809 105.498 12.8277C104.851 13.4769 103.956 13.8004 102.815 13.8004ZM110.212 13.6808V6.60047H107.432V5.28096H114.55V6.60047H111.77L111.768 13.6808H110.212ZM117.156 8.7731H121.325V10.0575H117.156V8.7731ZM117.275 12.3731H122.007V13.6832L115.717 13.6808L115.719 5.28096L121.841 5.2833V6.59109L117.275 6.58875V12.3731ZM130.986 13.8027C130.33 13.8027 129.728 13.6949 129.177 13.4793C128.624 13.2637 128.146 12.9637 127.738 12.5793C127.33 12.1879 127.016 11.7309 126.793 11.2106C126.568 10.6832 126.456 10.1067 126.456 9.48325C126.456 8.85982 126.568 8.2856 126.793 7.76764C127.016 7.23796 127.332 6.78328 127.74 6.39891C128.148 6.00751 128.626 5.70283 129.177 5.4872C129.728 5.27158 130.328 5.16377 130.975 5.16377C131.628 5.16377 132.228 5.27158 132.772 5.4872C133.323 5.70283 133.801 6.00751 134.209 6.39891C134.617 6.78328 134.933 7.2403 135.156 7.76764C135.378 8.28795 135.491 8.85982 135.491 9.48325C135.491 10.1067 135.378 10.6832 135.156 11.2129C134.931 11.7402 134.617 12.1949 134.209 12.5793C133.801 12.9637 133.321 13.2637 132.77 13.4793C132.226 13.6949 131.633 13.8027 130.986 13.8027ZM130.972 12.4363C131.396 12.4363 131.788 12.3637 132.146 12.2184C132.507 12.0754 132.819 11.8715 133.082 11.6067C133.346 11.3348 133.55 11.0231 133.693 10.6715C133.846 10.3106 133.921 9.91449 133.921 9.48325C133.921 9.052 133.846 8.6606 133.693 8.3067C133.55 7.94811 133.346 7.63639 133.084 7.37155C132.819 7.09968 132.507 6.89109 132.149 6.74812C131.788 6.60281 131.396 6.5325 130.975 6.53016C130.55 6.53016 130.159 6.60281 129.8 6.74812C129.449 6.89109 129.137 7.09968 128.865 7.37155C128.603 7.63405 128.394 7.94811 128.242 8.3067C128.099 8.65826 128.026 9.052 128.026 9.48325C128.026 9.90746 128.099 10.2989 128.242 10.6598C128.394 11.0184 128.6 11.3348 128.865 11.6067C129.128 11.8715 129.439 12.0754 129.798 12.2184C130.159 12.3637 130.55 12.434 130.972 12.4363ZM138.568 9.14809H142.749V10.4676H138.568V9.14809ZM138.699 13.6832H137.141L137.143 5.2833L143.265 5.28564V6.59344L138.699 6.59109V13.6832ZM60.1707 28.315L60.173 19.9151H63.623C64.366 19.9151 65.0011 20.0347 65.5284 20.2737C66.0628 20.5151 66.4753 20.8597 66.7636 21.3073C67.0495 21.755 67.1948 22.287 67.1925 22.9034C67.1925 23.5198 67.0495 24.0518 66.7612 24.4995C66.4753 24.9471 66.0628 25.2916 65.5284 25.5307C65.0011 25.7698 64.366 25.8916 63.623 25.8916L61.0355 25.8893L61.7293 25.158V28.315H60.1707ZM61.7293 25.3268L61.0355 24.5698H63.5503C64.2371 24.5698 64.7527 24.4268 65.0972 24.1385C65.4488 23.8432 65.6245 23.4307 65.6245 22.9034C65.6245 22.3667 65.4488 21.9542 65.0972 21.6659C64.7527 21.3776 64.2371 21.2347 63.5503 21.2347H61.0355L61.7293 20.4659V25.3268ZM68.7487 28.315V19.9151H72.1987C72.9416 19.9151 73.5768 20.037 74.1041 20.2761C74.6408 20.5151 75.051 20.8597 75.3393 21.3073C75.6275 21.7573 75.7705 22.2893 75.7705 22.9034C75.7705 23.5198 75.6275 24.0518 75.3393 24.4995C75.051 24.9401 74.6408 25.2799 74.1041 25.519C73.5768 25.751 72.9416 25.8682 72.1987 25.8682H69.6112L70.3073 25.1604V28.315H68.7487ZM74.2354 28.315L72.1143 25.2682H73.7807L75.9135 28.315H74.2354ZM70.3073 25.3268L69.6112 24.5838H72.1284C72.8151 24.5838 73.3307 24.4362 73.6729 24.1409C74.0244 23.8432 74.2002 23.4331 74.2002 22.9034C74.2002 22.369 74.0244 21.9565 73.6729 21.6682C73.3307 21.38 72.8151 21.2347 72.1284 21.2347H69.6112L70.3073 20.4683V25.3268ZM81.4423 28.4369C80.7861 28.4369 80.1837 28.3291 79.633 28.1135C79.0822 27.8955 78.6017 27.5955 78.1963 27.2135C77.7885 26.8197 77.472 26.3651 77.2494 25.8448C77.0244 25.3174 76.9142 24.7409 76.9142 24.1174C76.9142 23.4917 77.0244 22.9198 77.2494 22.3995C77.472 21.8722 77.7885 21.4175 78.1963 21.0331C78.6041 20.6417 79.0822 20.337 79.633 20.1214C80.1861 19.9058 80.7837 19.798 81.4306 19.798C82.0868 19.798 82.6845 19.9058 83.2282 20.1214C83.779 20.337 84.2595 20.6417 84.6673 21.0331C85.0727 21.4175 85.3891 21.8745 85.6118 22.4018C85.8368 22.9221 85.9493 23.494 85.9469 24.1174C85.9469 24.7409 85.8368 25.3174 85.6118 25.8448C85.3891 26.3744 85.0727 26.8291 84.6649 27.2135C84.2571 27.5979 83.779 27.8979 83.2282 28.1135C82.6845 28.3291 82.0892 28.4369 81.4423 28.4369ZM81.4306 27.0682C81.8548 27.0682 82.2462 26.9979 82.6048 26.8526C82.9634 26.7096 83.2751 26.5057 83.5399 26.2408C83.8024 25.969 84.0063 25.6573 84.1493 25.3057C84.3017 24.9448 84.379 24.5487 84.379 24.1174C84.379 23.6862 84.3017 23.2924 84.1517 22.9409C84.0063 22.5823 83.8024 22.2682 83.5399 22.0057C83.2751 21.7339 82.9657 21.5253 82.6048 21.38C82.2462 21.237 81.8548 21.1643 81.4306 21.1643C81.0064 21.1643 80.6173 21.237 80.2564 21.38C79.9048 21.5253 79.5931 21.7315 79.3212 22.0057C79.0588 22.2682 78.8502 22.58 78.7002 22.9409C78.5548 23.2924 78.4845 23.6838 78.4822 24.1174C78.4822 24.5416 78.5548 24.933 78.6978 25.2916C78.8502 25.6526 79.0588 25.969 79.3212 26.2408C79.5861 26.5057 79.8978 26.7096 80.2564 26.8526C80.615 26.9979 81.0064 27.0682 81.4306 27.0682ZM89.0243 23.7823H93.2055V25.1018H89.0243V23.7823ZM89.1555 28.3174H87.5993V19.9175H93.7211V21.2253H89.1578L89.1555 28.3174ZM96.6648 23.4096L100.834 23.412V24.6963L96.6648 24.694V23.4096ZM96.7843 27.0119H101.519V28.3197L95.2281 28.3174V19.9175L101.352 19.9198L101.35 21.2276H96.7867L96.7843 27.0119ZM105.855 28.4393C105.198 28.4393 104.573 28.3478 103.973 28.1627C103.373 27.9705 102.899 27.7268 102.548 27.4315L103.087 26.2198C103.422 26.4846 103.837 26.7026 104.333 26.8807C104.828 27.0565 105.334 27.1432 105.855 27.1432C106.293 27.1432 106.649 27.0963 106.921 27.0002C107.193 26.9041 107.392 26.7752 107.521 26.6158C107.647 26.4471 107.711 26.2596 107.711 26.051C107.711 25.7955 107.619 25.5916 107.437 25.4393C107.251 25.2799 107.012 25.1557 106.717 25.069C106.429 24.9729 106.105 24.8838 105.747 24.8041C105.395 24.7245 105.039 24.6307 104.68 24.5276C104.329 24.4151 104.005 24.2768 103.71 24.1081C103.422 23.9323 103.187 23.7003 103.002 23.412C102.819 23.1237 102.728 22.7557 102.728 22.3081C102.728 21.8511 102.848 21.4362 103.087 21.0589C103.335 20.6745 103.705 20.3722 104.202 20.1472C104.704 19.9151 105.339 19.8003 106.108 19.8003C106.609 19.8003 107.108 19.8636 107.605 19.9925C108.1 20.1214 108.531 20.3042 108.899 20.5433L108.407 21.7573C108.032 21.5323 107.643 21.3682 107.244 21.2651C106.846 21.1526 106.462 21.0964 106.094 21.0964C105.662 21.0964 105.311 21.1479 105.041 21.2511C104.776 21.3565 104.582 21.4925 104.453 21.6589C104.333 21.8276 104.273 22.0198 104.273 22.2354C104.273 22.4909 104.362 22.6995 104.537 22.8589C104.72 23.0112 104.957 23.1307 105.243 23.2198C105.54 23.3088 105.866 23.3956 106.225 23.4846C106.586 23.5643 106.942 23.6557 107.291 23.7612C107.652 23.8643 107.976 24.0002 108.264 24.169C108.559 24.3354 108.794 24.5651 108.969 24.8534C109.154 25.1393 109.246 25.5049 109.246 25.9432C109.246 26.3932 109.122 26.808 108.873 27.1924C108.634 27.5674 108.262 27.8721 107.76 28.1041C107.256 28.3291 106.621 28.4393 105.855 28.4393ZM113.39 28.4416C112.733 28.4416 112.108 28.3478 111.508 28.165C110.91 27.9729 110.434 27.7291 110.083 27.4315L110.622 26.2198C110.957 26.4846 111.372 26.7049 111.869 26.8807C112.363 27.0565 112.869 27.1455 113.39 27.1455C113.828 27.1455 114.184 27.0963 114.456 27.0002C114.728 26.9041 114.927 26.7776 115.056 26.6182C115.183 26.4494 115.246 26.2619 115.246 26.0533C115.246 25.7979 115.154 25.594 114.972 25.4416C114.786 25.2799 114.547 25.158 114.252 25.069C113.964 24.9729 113.64 24.8838 113.282 24.8041C112.93 24.7245 112.574 24.6331 112.215 24.5276C111.864 24.4174 111.54 24.2768 111.245 24.1081C110.957 23.9323 110.722 23.7003 110.54 23.412C110.354 23.1237 110.263 22.7557 110.263 22.3081C110.263 21.8534 110.383 21.4362 110.622 21.0612C110.87 20.6769 111.24 20.3722 111.737 20.1495C112.241 19.9175 112.874 19.8003 113.643 19.8003C114.144 19.8003 114.646 19.8659 115.14 19.9925C115.635 20.1214 116.066 20.3042 116.434 20.5456L115.942 21.7573C115.567 21.5323 115.18 21.3682 114.779 21.2651C114.381 21.1526 113.997 21.0964 113.631 21.0964C113.2 21.0964 112.846 21.1479 112.576 21.2534C112.311 21.3565 112.117 21.4925 111.988 21.6612C111.869 21.8276 111.808 22.0198 111.808 22.2378C111.808 22.4932 111.897 22.7018 112.072 22.8612C112.255 23.0135 112.492 23.1331 112.78 23.2198C113.076 23.3088 113.401 23.3979 113.762 23.4846C114.121 23.5643 114.477 23.6581 114.829 23.7612C115.187 23.8643 115.511 24.0002 115.799 24.169C116.094 24.3377 116.329 24.5651 116.504 24.8534C116.69 25.1416 116.781 25.5049 116.781 25.9455C116.781 26.3932 116.657 26.8104 116.408 27.1924C116.169 27.5697 115.799 27.8721 115.295 28.1041C114.791 28.3291 114.156 28.4416 113.39 28.4416ZM118.325 28.3221V19.9222H119.884L119.882 28.3221H118.325ZM126.081 28.4416C125.427 28.4416 124.822 28.3338 124.271 28.1182C123.721 27.9025 123.24 27.6025 122.835 27.2182C122.427 26.8268 122.111 26.3697 121.888 25.8494C121.665 25.3221 121.553 24.7456 121.553 24.1221C121.553 23.4987 121.665 22.9268 121.888 22.4065C122.111 21.8792 122.427 21.4222 122.835 21.0378C123.243 20.6464 123.721 20.3417 124.271 20.1261C124.825 19.9105 125.422 19.8026 126.069 19.8026C126.725 19.8026 127.323 19.9105 127.867 20.1261C128.418 20.3417 128.898 20.6464 129.306 21.0378C129.711 21.4222 130.028 21.8792 130.25 22.4065C130.475 22.9268 130.585 23.4987 130.585 24.1221C130.585 24.7479 130.475 25.3221 130.25 25.8518C130.028 26.3791 129.711 26.8338 129.303 27.2182C128.896 27.6025 128.418 27.9025 127.867 28.1182C127.323 28.3338 126.728 28.4416 126.081 28.4416ZM126.069 27.0752C126.493 27.0752 126.885 27.0026 127.243 26.8596C127.602 26.7143 127.914 26.5104 128.178 26.2455C128.441 25.9737 128.645 25.6619 128.79 25.3104C128.94 24.9518 129.018 24.5557 129.018 24.1221C129.018 23.6909 128.94 23.2995 128.79 22.9479C128.645 22.587 128.443 22.2753 128.178 22.0104C127.916 21.7386 127.604 21.53 127.243 21.387C126.885 21.2417 126.493 21.1714 126.069 21.1714C125.647 21.1714 125.256 21.2417 124.895 21.387C124.543 21.53 124.232 21.7386 123.962 22.0104C123.697 22.2753 123.489 22.587 123.336 22.9456C123.193 23.2971 123.121 23.6909 123.121 24.1221C123.121 24.5463 123.193 24.9377 123.336 25.2987C123.489 25.6573 123.697 25.9737 123.96 26.2455C124.225 26.5104 124.536 26.7143 124.895 26.8572C125.254 27.0026 125.645 27.0752 126.069 27.0752ZM132.238 28.3221V19.9222L133.52 19.9245L138.779 26.3908H138.144V19.9245H139.691L139.688 28.3244H138.406L133.15 21.8557H133.785L133.782 28.3244L132.238 28.3221ZM140.75 28.3244L144.526 19.9245H146.059L149.846 28.3244H148.215L144.969 20.7519H145.592L142.356 28.3244H140.75ZM142.489 26.3815L142.909 25.1557L147.437 25.158L147.856 26.3815H142.489ZM150.91 28.3244L150.913 19.9245L152.471 19.9269L152.469 27.0049L156.854 27.0072V28.3268L150.91 28.3244ZM62.7699 43.0734C62.116 43.0734 61.4879 42.982 60.8879 42.7969C60.2902 42.607 59.8144 42.361 59.4629 42.0656L60.0019 40.8539C60.3371 41.1188 60.7543 41.3391 61.2488 41.5149C61.7433 41.6906 62.2519 41.7774 62.7699 41.7774C63.2105 41.7774 63.5644 41.7305 63.8363 41.6344C64.1081 41.5383 64.3074 41.4094 64.4363 41.25C64.5628 41.0836 64.6285 40.8938 64.6285 40.6875C64.6285 40.4297 64.5347 40.2258 64.3519 40.0735C64.1691 39.9141 63.9277 39.7899 63.6324 39.7032C63.3464 39.6071 63.023 39.518 62.6621 39.4383C62.3105 39.3586 61.9566 39.2672 61.5957 39.1618C61.2441 39.0493 60.9207 38.911 60.6254 38.7422C60.3371 38.5665 60.1027 38.3344 59.9176 38.0462C59.7348 37.7579 59.6434 37.3899 59.6434 36.9423C59.6434 36.4852 59.7629 36.0704 60.0043 35.6931C60.2504 35.311 60.623 35.0064 61.1176 34.7814C61.6215 34.5493 62.2566 34.4345 63.023 34.4345C63.5269 34.4345 64.0238 34.4978 64.5206 34.6267C65.0152 34.7556 65.4464 34.9384 65.8144 35.1798L65.3222 36.3915C64.9472 36.1665 64.5605 36.0024 64.1597 35.8993C63.7613 35.7868 63.3769 35.7306 63.0113 35.7306C62.58 35.7306 62.2285 35.7821 61.9566 35.8853C61.6918 35.9907 61.4972 36.1267 61.3683 36.2931C61.2488 36.4618 61.1902 36.654 61.1902 36.8696C61.1879 37.1251 61.2769 37.3337 61.4527 37.493C61.6355 37.6454 61.8722 37.7673 62.1582 37.854C62.4558 37.943 62.7816 38.0298 63.1425 38.1188C63.5011 38.1985 63.8574 38.2899 64.2089 38.3954C64.5675 38.4985 64.891 38.6344 65.1792 38.8032C65.4745 38.9696 65.7089 39.1993 65.8847 39.4875C66.0698 39.7758 66.1612 40.1391 66.1612 40.5797C66.1612 41.0274 66.037 41.4422 65.7886 41.8266C65.5495 42.2016 65.1769 42.5063 64.6753 42.7383C64.1714 42.9633 63.5363 43.0734 62.7699 43.0734ZM71.3104 43.0758C70.162 43.0758 69.2596 42.75 68.6034 42.1031C67.9565 41.4539 67.6331 40.5188 67.6331 39.2954V34.554L69.1917 34.5564V39.2344C69.1917 40.0993 69.3745 40.7274 69.7425 41.1188C70.1175 41.5102 70.6448 41.7071 71.3245 41.7071C72.0018 41.7071 72.5268 41.5125 72.8924 41.1188C73.2604 40.7274 73.4455 40.0993 73.4455 39.2368V34.5564H74.9783V39.2954C74.9783 40.5188 74.6502 41.4563 73.9963 42.1031C73.3494 42.7523 72.4541 43.0758 71.3104 43.0758ZM77.1603 42.9563V34.5564H80.6103C81.3533 34.5564 81.9884 34.6759 82.5157 34.9173C83.0525 35.1564 83.4626 35.5009 83.7509 35.9485C84.0368 36.3962 84.1821 36.9282 84.1821 37.5446C84.1821 38.161 84.0368 38.693 83.7485 39.1407C83.4626 39.5883 83.0501 39.9329 82.5157 40.1719C81.9884 40.4133 81.3533 40.5328 80.6103 40.5328H78.0228L78.7166 39.7993V42.9563H77.1603ZM78.7166 39.968L78.0228 39.2133H80.5376C81.2267 39.2133 81.74 39.068 82.0845 38.7797C82.4361 38.4844 82.6118 38.0719 82.6118 37.5446C82.6118 37.0079 82.4361 36.5977 82.0845 36.3095C81.7423 36.0212 81.2267 35.8759 80.54 35.8759H78.0228L78.7189 35.1095L78.7166 39.968ZM87.1751 38.0485L91.3445 38.0508V39.3329H87.1751V38.0485ZM87.2946 41.6485L92.0266 41.6508V42.9586L85.736 42.9563L85.7384 34.5564L91.8602 34.5587V35.8665H87.2946V41.6485ZM93.7633 42.9586V34.5587H97.2156C97.9585 34.5587 98.5913 34.6782 99.1187 34.9196C99.6554 35.1587 100.066 35.5032 100.354 35.9509C100.642 36.3985 100.785 36.9306 100.785 37.547C100.785 38.1633 100.64 38.6954 100.354 39.143C100.066 39.5836 99.653 39.9235 99.1187 40.1625C98.5913 40.3946 97.9562 40.5118 97.2132 40.5118L94.6258 40.5094L95.3218 39.8016L95.3195 42.9586H93.7633ZM99.2499 42.9586L97.1312 39.9118H98.7952L100.928 42.9586H99.2499ZM95.3218 39.9704L94.6258 39.2274H97.1429C97.8296 39.2274 98.3452 39.0797 98.6874 38.7821C99.039 38.4868 99.2148 38.0743 99.2148 37.547C99.2148 37.0102 99.039 36.5977 98.6874 36.3118C98.3452 36.0235 97.8296 35.8782 97.1429 35.8782H94.6258L95.3218 35.1095V39.9704ZM105.006 42.9586L101.341 34.5587H103.03L106.302 42.1547H105.332L108.639 34.5611H110.195L106.541 42.9586H105.006ZM111.081 42.9609V34.5611H112.64L112.637 42.9609H111.081ZM117.505 43.0805C116.851 43.0805 116.223 42.9891 115.625 42.8039C115.026 42.6117 114.55 42.368 114.201 42.0727L114.74 40.861C115.075 41.1258 115.49 41.3438 115.984 41.5219C116.479 41.6977 116.987 41.7844 117.508 41.7844C117.946 41.7844 118.302 41.7375 118.574 41.6414C118.843 41.5453 119.045 41.4164 119.172 41.2571C119.3 41.0883 119.364 40.9008 119.364 40.6946C119.364 40.4368 119.272 40.2329 119.087 40.0805C118.904 39.9211 118.665 39.7969 118.37 39.7102C118.082 39.6141 117.758 39.525 117.4 39.4454C117.048 39.3657 116.692 39.2743 116.333 39.1688C115.982 39.0563 115.658 38.918 115.363 38.7493C115.075 38.5735 114.838 38.3415 114.655 38.0532C114.472 37.7649 114.381 37.3969 114.381 36.9493C114.381 36.4923 114.501 36.0774 114.74 35.7001C114.988 35.3181 115.358 35.0134 115.853 34.7884C116.357 34.5564 116.992 34.4415 117.758 34.4415C118.262 34.4415 118.761 34.5048 119.256 34.6337C119.753 34.7626 120.184 34.9454 120.55 35.1845L120.06 36.3985C119.685 36.1735 119.296 36.0095 118.897 35.9063C118.497 35.7938 118.115 35.7376 117.747 35.7376C117.315 35.7376 116.964 35.7892 116.692 35.8923C116.429 35.9978 116.233 36.1337 116.106 36.3001C115.986 36.4688 115.925 36.661 115.925 36.8766C115.925 37.1321 116.012 37.3407 116.19 37.5001C116.373 37.6524 116.608 37.7719 116.896 37.861C117.191 37.9501 117.519 38.0368 117.878 38.1258C118.236 38.2055 118.593 38.2969 118.944 38.4024C119.303 38.5055 119.626 38.6415 119.915 38.8102C120.21 38.9766 120.447 39.2063 120.622 39.4946C120.805 39.7805 120.897 40.1461 120.897 40.5868C120.897 41.0344 120.772 41.4492 120.526 41.8336C120.287 42.2086 119.915 42.5133 119.411 42.7453C118.907 42.9703 118.274 43.0805 117.505 43.0805ZM122.441 42.9609L122.443 34.5611H124V42.9609H122.441ZM130.196 43.0828C129.543 43.0828 128.94 42.975 128.389 42.7594C127.836 42.5414 127.358 42.2414 126.95 41.8594C126.545 41.4656 126.229 41.011 126.004 40.4907C125.781 39.9633 125.668 39.3868 125.668 38.7633C125.668 38.1376 125.781 37.5657 126.006 37.0454C126.228 36.5181 126.545 36.0634 126.953 35.679C127.358 35.2876 127.839 34.9829 128.389 34.7673C128.94 34.5517 129.54 34.4439 130.187 34.4439C130.841 34.4439 131.441 34.5517 131.985 34.7673C132.535 34.9829 133.014 35.2876 133.421 35.679C133.829 36.0634 134.143 36.5204 134.368 37.0477C134.591 37.568 134.703 38.1399 134.703 38.7633C134.703 39.3868 134.591 39.9633 134.368 40.4907C134.143 41.0203 133.829 41.475 133.421 41.8594C133.014 42.2438 132.533 42.5438 131.982 42.7594C131.441 42.975 130.846 43.0828 130.196 43.0828ZM130.187 41.7141C130.609 41.7141 131 41.6438 131.361 41.4985C131.72 41.3555 132.032 41.1516 132.294 40.8867C132.559 40.6149 132.763 40.3032 132.906 39.9516C133.058 39.5907 133.133 39.1946 133.133 38.7633C133.133 38.3321 133.058 37.9384 132.906 37.5868C132.763 37.2282 132.559 36.9141 132.296 36.6516C132.032 36.3798 131.72 36.1712 131.361 36.0259C131.003 35.8829 130.609 35.8103 130.187 35.8103C129.763 35.8103 129.371 35.8829 129.013 36.0259C128.661 36.1712 128.35 36.3774 128.078 36.6516C127.815 36.9141 127.607 37.2259 127.454 37.5868C127.311 37.9384 127.239 38.3298 127.239 38.7633C127.239 39.1876 127.311 39.579 127.454 39.9375C127.607 40.2985 127.813 40.6149 128.078 40.8867C128.34 41.1516 128.652 41.3555 129.013 41.4985C129.371 41.6438 129.763 41.7141 130.187 41.7141ZM136.353 42.9633L136.356 34.5634H137.638L142.897 41.0321H142.262V34.5634H143.806V42.9633H142.524L137.265 36.4946L137.9 36.497V42.9633H136.353Z"/>
</mask>
<path d="M60.173 13.6738L60.1754 5.27392H61.7316V13.6738H60.173ZM64.0003 13.6738V5.27392H65.2824L70.5417 11.7426H69.9065L69.9089 5.27627H71.4534L71.451 13.6762H70.169L64.9097 7.20749H65.5448V13.6738H64.0003ZM76.3002 13.7957C75.6439 13.7957 75.0182 13.7043 74.4182 13.5191C73.8205 13.3269 73.3448 13.0832 72.9932 12.7879L73.5323 11.5762C73.8674 11.841 74.2822 12.059 74.7791 12.2371C75.2736 12.4129 75.7799 12.4996 76.3002 12.4996C76.7385 12.4996 77.0947 12.4527 77.3666 12.3566C77.6385 12.2606 77.8377 12.1316 77.9666 11.9723C78.0931 11.8035 78.1564 11.616 78.1564 11.4098C78.1564 11.152 78.065 10.9481 77.8822 10.7957C77.697 10.6364 77.458 10.5121 77.1627 10.4254C76.8744 10.3293 76.551 10.2403 76.1924 10.1606C75.8408 10.0809 75.4846 9.98715 75.126 9.88402C74.7744 9.77152 74.451 9.63324 74.1557 9.4645C73.8674 9.28872 73.633 9.05669 73.4479 8.76841C73.2651 8.48013 73.1737 8.11217 73.1737 7.66452C73.1737 7.20749 73.2932 6.79265 73.5323 6.41532C73.7807 6.03095 74.151 5.72861 74.6479 5.50361C75.1494 5.27158 75.7846 5.15674 76.5533 5.15674C77.0549 5.15674 77.5541 5.22002 78.0509 5.34892C78.5455 5.47783 78.9767 5.66064 79.3447 5.8997L78.8525 7.11374C78.4775 6.88875 78.0908 6.72469 77.69 6.62156C77.2916 6.50906 76.9072 6.45282 76.5392 6.45282C76.108 6.45282 75.7564 6.50438 75.4869 6.6075C75.2221 6.71297 75.0252 6.8489 74.8986 7.01531C74.7791 7.18406 74.7182 7.37624 74.7182 7.59186C74.7182 7.84733 74.8072 8.05592 74.983 8.21529C75.1658 8.36763 75.4025 8.48716 75.6885 8.57623C75.9838 8.66529 76.3119 8.75201 76.6705 8.84107C77.0314 8.92075 77.3877 9.01216 77.7369 9.11762C78.0978 9.22075 78.4213 9.35668 78.7072 9.52543C79.0048 9.69184 79.2392 9.92152 79.415 10.2098C79.6001 10.4957 79.6916 10.8614 79.6916 11.302C79.6916 11.7496 79.5673 12.1645 79.3189 12.5488C79.0798 12.9238 78.7072 13.2285 78.2056 13.4605C77.7017 13.6855 77.0666 13.7957 76.3002 13.7957ZM82.8181 13.6762L82.8204 6.59813L80.0408 6.59578V5.27627L87.1587 5.27861V6.59813H84.379L84.3767 13.6785L82.8181 13.6762ZM88.3258 13.6785V5.27861H89.8844V13.6785H88.3258ZM93.8523 13.6785L93.8547 6.59813H91.075V5.27861H98.1906V6.59813H95.4109V13.6785H93.8523ZM102.815 13.8004C101.664 13.8004 100.762 13.4746 100.105 12.8277C99.4585 12.1785 99.1351 11.2434 99.1351 10.02L99.1374 5.27861H100.694V9.95902C100.694 10.8239 100.876 11.452 101.244 11.8434C101.619 12.2348 102.147 12.4316 102.826 12.4316C103.504 12.4316 104.029 12.2348 104.397 11.8434C104.762 11.452 104.948 10.8239 104.948 9.95902V5.28096H106.48V10.02C106.48 11.2434 106.152 12.1809 105.498 12.8277C104.851 13.4769 103.956 13.8004 102.815 13.8004ZM110.212 13.6808V6.60047H107.432V5.28096H114.55V6.60047H111.77L111.768 13.6808H110.212ZM117.156 8.7731H121.325V10.0575H117.156V8.7731ZM117.275 12.3731H122.007V13.6832L115.717 13.6808L115.719 5.28096L121.841 5.2833V6.59109L117.275 6.58875V12.3731ZM130.986 13.8027C130.33 13.8027 129.728 13.6949 129.177 13.4793C128.624 13.2637 128.146 12.9637 127.738 12.5793C127.33 12.1879 127.016 11.7309 126.793 11.2106C126.568 10.6832 126.456 10.1067 126.456 9.48325C126.456 8.85982 126.568 8.2856 126.793 7.76764C127.016 7.23796 127.332 6.78328 127.74 6.39891C128.148 6.00751 128.626 5.70283 129.177 5.4872C129.728 5.27158 130.328 5.16377 130.975 5.16377C131.628 5.16377 132.228 5.27158 132.772 5.4872C133.323 5.70283 133.801 6.00751 134.209 6.39891C134.617 6.78328 134.933 7.2403 135.156 7.76764C135.378 8.28795 135.491 8.85982 135.491 9.48325C135.491 10.1067 135.378 10.6832 135.156 11.2129C134.931 11.7402 134.617 12.1949 134.209 12.5793C133.801 12.9637 133.321 13.2637 132.77 13.4793C132.226 13.6949 131.633 13.8027 130.986 13.8027ZM130.972 12.4363C131.396 12.4363 131.788 12.3637 132.146 12.2184C132.507 12.0754 132.819 11.8715 133.082 11.6067C133.346 11.3348 133.55 11.0231 133.693 10.6715C133.846 10.3106 133.921 9.91449 133.921 9.48325C133.921 9.052 133.846 8.6606 133.693 8.3067C133.55 7.94811 133.346 7.63639 133.084 7.37155C132.819 7.09968 132.507 6.89109 132.149 6.74812C131.788 6.60281 131.396 6.5325 130.975 6.53016C130.55 6.53016 130.159 6.60281 129.8 6.74812C129.449 6.89109 129.137 7.09968 128.865 7.37155C128.603 7.63405 128.394 7.94811 128.242 8.3067C128.099 8.65826 128.026 9.052 128.026 9.48325C128.026 9.90746 128.099 10.2989 128.242 10.6598C128.394 11.0184 128.6 11.3348 128.865 11.6067C129.128 11.8715 129.439 12.0754 129.798 12.2184C130.159 12.3637 130.55 12.434 130.972 12.4363ZM138.568 9.14809H142.749V10.4676H138.568V9.14809ZM138.699 13.6832H137.141L137.143 5.2833L143.265 5.28564V6.59344L138.699 6.59109V13.6832ZM60.1707 28.315L60.173 19.9151H63.623C64.366 19.9151 65.0011 20.0347 65.5284 20.2737C66.0628 20.5151 66.4753 20.8597 66.7636 21.3073C67.0495 21.755 67.1948 22.287 67.1925 22.9034C67.1925 23.5198 67.0495 24.0518 66.7612 24.4995C66.4753 24.9471 66.0628 25.2916 65.5284 25.5307C65.0011 25.7698 64.366 25.8916 63.623 25.8916L61.0355 25.8893L61.7293 25.158V28.315H60.1707ZM61.7293 25.3268L61.0355 24.5698H63.5503C64.2371 24.5698 64.7527 24.4268 65.0972 24.1385C65.4488 23.8432 65.6245 23.4307 65.6245 22.9034C65.6245 22.3667 65.4488 21.9542 65.0972 21.6659C64.7527 21.3776 64.2371 21.2347 63.5503 21.2347H61.0355L61.7293 20.4659V25.3268ZM68.7487 28.315V19.9151H72.1987C72.9416 19.9151 73.5768 20.037 74.1041 20.2761C74.6408 20.5151 75.051 20.8597 75.3393 21.3073C75.6275 21.7573 75.7705 22.2893 75.7705 22.9034C75.7705 23.5198 75.6275 24.0518 75.3393 24.4995C75.051 24.9401 74.6408 25.2799 74.1041 25.519C73.5768 25.751 72.9416 25.8682 72.1987 25.8682H69.6112L70.3073 25.1604V28.315H68.7487ZM74.2354 28.315L72.1143 25.2682H73.7807L75.9135 28.315H74.2354ZM70.3073 25.3268L69.6112 24.5838H72.1284C72.8151 24.5838 73.3307 24.4362 73.6729 24.1409C74.0244 23.8432 74.2002 23.4331 74.2002 22.9034C74.2002 22.369 74.0244 21.9565 73.6729 21.6682C73.3307 21.38 72.8151 21.2347 72.1284 21.2347H69.6112L70.3073 20.4683V25.3268ZM81.4423 28.4369C80.7861 28.4369 80.1837 28.3291 79.633 28.1135C79.0822 27.8955 78.6017 27.5955 78.1963 27.2135C77.7885 26.8197 77.472 26.3651 77.2494 25.8448C77.0244 25.3174 76.9142 24.7409 76.9142 24.1174C76.9142 23.4917 77.0244 22.9198 77.2494 22.3995C77.472 21.8722 77.7885 21.4175 78.1963 21.0331C78.6041 20.6417 79.0822 20.337 79.633 20.1214C80.1861 19.9058 80.7837 19.798 81.4306 19.798C82.0868 19.798 82.6845 19.9058 83.2282 20.1214C83.779 20.337 84.2595 20.6417 84.6673 21.0331C85.0727 21.4175 85.3891 21.8745 85.6118 22.4018C85.8368 22.9221 85.9493 23.494 85.9469 24.1174C85.9469 24.7409 85.8368 25.3174 85.6118 25.8448C85.3891 26.3744 85.0727 26.8291 84.6649 27.2135C84.2571 27.5979 83.779 27.8979 83.2282 28.1135C82.6845 28.3291 82.0892 28.4369 81.4423 28.4369ZM81.4306 27.0682C81.8548 27.0682 82.2462 26.9979 82.6048 26.8526C82.9634 26.7096 83.2751 26.5057 83.5399 26.2408C83.8024 25.969 84.0063 25.6573 84.1493 25.3057C84.3017 24.9448 84.379 24.5487 84.379 24.1174C84.379 23.6862 84.3017 23.2924 84.1517 22.9409C84.0063 22.5823 83.8024 22.2682 83.5399 22.0057C83.2751 21.7339 82.9657 21.5253 82.6048 21.38C82.2462 21.237 81.8548 21.1643 81.4306 21.1643C81.0064 21.1643 80.6173 21.237 80.2564 21.38C79.9048 21.5253 79.5931 21.7315 79.3212 22.0057C79.0588 22.2682 78.8502 22.58 78.7002 22.9409C78.5548 23.2924 78.4845 23.6838 78.4822 24.1174C78.4822 24.5416 78.5548 24.933 78.6978 25.2916C78.8502 25.6526 79.0588 25.969 79.3212 26.2408C79.5861 26.5057 79.8978 26.7096 80.2564 26.8526C80.615 26.9979 81.0064 27.0682 81.4306 27.0682ZM89.0243 23.7823H93.2055V25.1018H89.0243V23.7823ZM89.1555 28.3174H87.5993V19.9175H93.7211V21.2253H89.1578L89.1555 28.3174ZM96.6648 23.4096L100.834 23.412V24.6963L96.6648 24.694V23.4096ZM96.7843 27.0119H101.519V28.3197L95.2281 28.3174V19.9175L101.352 19.9198L101.35 21.2276H96.7867L96.7843 27.0119ZM105.855 28.4393C105.198 28.4393 104.573 28.3478 103.973 28.1627C103.373 27.9705 102.899 27.7268 102.548 27.4315L103.087 26.2198C103.422 26.4846 103.837 26.7026 104.333 26.8807C104.828 27.0565 105.334 27.1432 105.855 27.1432C106.293 27.1432 106.649 27.0963 106.921 27.0002C107.193 26.9041 107.392 26.7752 107.521 26.6158C107.647 26.4471 107.711 26.2596 107.711 26.051C107.711 25.7955 107.619 25.5916 107.437 25.4393C107.251 25.2799 107.012 25.1557 106.717 25.069C106.429 24.9729 106.105 24.8838 105.747 24.8041C105.395 24.7245 105.039 24.6307 104.68 24.5276C104.329 24.4151 104.005 24.2768 103.71 24.1081C103.422 23.9323 103.187 23.7003 103.002 23.412C102.819 23.1237 102.728 22.7557 102.728 22.3081C102.728 21.8511 102.848 21.4362 103.087 21.0589C103.335 20.6745 103.705 20.3722 104.202 20.1472C104.704 19.9151 105.339 19.8003 106.108 19.8003C106.609 19.8003 107.108 19.8636 107.605 19.9925C108.1 20.1214 108.531 20.3042 108.899 20.5433L108.407 21.7573C108.032 21.5323 107.643 21.3682 107.244 21.2651C106.846 21.1526 106.462 21.0964 106.094 21.0964C105.662 21.0964 105.311 21.1479 105.041 21.2511C104.776 21.3565 104.582 21.4925 104.453 21.6589C104.333 21.8276 104.273 22.0198 104.273 22.2354C104.273 22.4909 104.362 22.6995 104.537 22.8589C104.72 23.0112 104.957 23.1307 105.243 23.2198C105.54 23.3088 105.866 23.3956 106.225 23.4846C106.586 23.5643 106.942 23.6557 107.291 23.7612C107.652 23.8643 107.976 24.0002 108.264 24.169C108.559 24.3354 108.794 24.5651 108.969 24.8534C109.154 25.1393 109.246 25.5049 109.246 25.9432C109.246 26.3932 109.122 26.808 108.873 27.1924C108.634 27.5674 108.262 27.8721 107.76 28.1041C107.256 28.3291 106.621 28.4393 105.855 28.4393ZM113.39 28.4416C112.733 28.4416 112.108 28.3478 111.508 28.165C110.91 27.9729 110.434 27.7291 110.083 27.4315L110.622 26.2198C110.957 26.4846 111.372 26.7049 111.869 26.8807C112.363 27.0565 112.869 27.1455 113.39 27.1455C113.828 27.1455 114.184 27.0963 114.456 27.0002C114.728 26.9041 114.927 26.7776 115.056 26.6182C115.183 26.4494 115.246 26.2619 115.246 26.0533C115.246 25.7979 115.154 25.594 114.972 25.4416C114.786 25.2799 114.547 25.158 114.252 25.069C113.964 24.9729 113.64 24.8838 113.282 24.8041C112.93 24.7245 112.574 24.6331 112.215 24.5276C111.864 24.4174 111.54 24.2768 111.245 24.1081C110.957 23.9323 110.722 23.7003 110.54 23.412C110.354 23.1237 110.263 22.7557 110.263 22.3081C110.263 21.8534 110.383 21.4362 110.622 21.0612C110.87 20.6769 111.24 20.3722 111.737 20.1495C112.241 19.9175 112.874 19.8003 113.643 19.8003C114.144 19.8003 114.646 19.8659 115.14 19.9925C115.635 20.1214 116.066 20.3042 116.434 20.5456L115.942 21.7573C115.567 21.5323 115.18 21.3682 114.779 21.2651C114.381 21.1526 113.997 21.0964 113.631 21.0964C113.2 21.0964 112.846 21.1479 112.576 21.2534C112.311 21.3565 112.117 21.4925 111.988 21.6612C111.869 21.8276 111.808 22.0198 111.808 22.2378C111.808 22.4932 111.897 22.7018 112.072 22.8612C112.255 23.0135 112.492 23.1331 112.78 23.2198C113.076 23.3088 113.401 23.3979 113.762 23.4846C114.121 23.5643 114.477 23.6581 114.829 23.7612C115.187 23.8643 115.511 24.0002 115.799 24.169C116.094 24.3377 116.329 24.5651 116.504 24.8534C116.69 25.1416 116.781 25.5049 116.781 25.9455C116.781 26.3932 116.657 26.8104 116.408 27.1924C116.169 27.5697 115.799 27.8721 115.295 28.1041C114.791 28.3291 114.156 28.4416 113.39 28.4416ZM118.325 28.3221V19.9222H119.884L119.882 28.3221H118.325ZM126.081 28.4416C125.427 28.4416 124.822 28.3338 124.271 28.1182C123.721 27.9025 123.24 27.6025 122.835 27.2182C122.427 26.8268 122.111 26.3697 121.888 25.8494C121.665 25.3221 121.553 24.7456 121.553 24.1221C121.553 23.4987 121.665 22.9268 121.888 22.4065C122.111 21.8792 122.427 21.4222 122.835 21.0378C123.243 20.6464 123.721 20.3417 124.271 20.1261C124.825 19.9105 125.422 19.8026 126.069 19.8026C126.725 19.8026 127.323 19.9105 127.867 20.1261C128.418 20.3417 128.898 20.6464 129.306 21.0378C129.711 21.4222 130.028 21.8792 130.25 22.4065C130.475 22.9268 130.585 23.4987 130.585 24.1221C130.585 24.7479 130.475 25.3221 130.25 25.8518C130.028 26.3791 129.711 26.8338 129.303 27.2182C128.896 27.6025 128.418 27.9025 127.867 28.1182C127.323 28.3338 126.728 28.4416 126.081 28.4416ZM126.069 27.0752C126.493 27.0752 126.885 27.0026 127.243 26.8596C127.602 26.7143 127.914 26.5104 128.178 26.2455C128.441 25.9737 128.645 25.6619 128.79 25.3104C128.94 24.9518 129.018 24.5557 129.018 24.1221C129.018 23.6909 128.94 23.2995 128.79 22.9479C128.645 22.587 128.443 22.2753 128.178 22.0104C127.916 21.7386 127.604 21.53 127.243 21.387C126.885 21.2417 126.493 21.1714 126.069 21.1714C125.647 21.1714 125.256 21.2417 124.895 21.387C124.543 21.53 124.232 21.7386 123.962 22.0104C123.697 22.2753 123.489 22.587 123.336 22.9456C123.193 23.2971 123.121 23.6909 123.121 24.1221C123.121 24.5463 123.193 24.9377 123.336 25.2987C123.489 25.6573 123.697 25.9737 123.96 26.2455C124.225 26.5104 124.536 26.7143 124.895 26.8572C125.254 27.0026 125.645 27.0752 126.069 27.0752ZM132.238 28.3221V19.9222L133.52 19.9245L138.779 26.3908H138.144V19.9245H139.691L139.688 28.3244H138.406L133.15 21.8557H133.785L133.782 28.3244L132.238 28.3221ZM140.75 28.3244L144.526 19.9245H146.059L149.846 28.3244H148.215L144.969 20.7519H145.592L142.356 28.3244H140.75ZM142.489 26.3815L142.909 25.1557L147.437 25.158L147.856 26.3815H142.489ZM150.91 28.3244L150.913 19.9245L152.471 19.9269L152.469 27.0049L156.854 27.0072V28.3268L150.91 28.3244ZM62.7699 43.0734C62.116 43.0734 61.4879 42.982 60.8879 42.7969C60.2902 42.607 59.8144 42.361 59.4629 42.0656L60.0019 40.8539C60.3371 41.1188 60.7543 41.3391 61.2488 41.5149C61.7433 41.6906 62.2519 41.7774 62.7699 41.7774C63.2105 41.7774 63.5644 41.7305 63.8363 41.6344C64.1081 41.5383 64.3074 41.4094 64.4363 41.25C64.5628 41.0836 64.6285 40.8938 64.6285 40.6875C64.6285 40.4297 64.5347 40.2258 64.3519 40.0735C64.1691 39.9141 63.9277 39.7899 63.6324 39.7032C63.3464 39.6071 63.023 39.518 62.6621 39.4383C62.3105 39.3586 61.9566 39.2672 61.5957 39.1618C61.2441 39.0493 60.9207 38.911 60.6254 38.7422C60.3371 38.5665 60.1027 38.3344 59.9176 38.0462C59.7348 37.7579 59.6434 37.3899 59.6434 36.9423C59.6434 36.4852 59.7629 36.0704 60.0043 35.6931C60.2504 35.311 60.623 35.0064 61.1176 34.7814C61.6215 34.5493 62.2566 34.4345 63.023 34.4345C63.5269 34.4345 64.0238 34.4978 64.5206 34.6267C65.0152 34.7556 65.4464 34.9384 65.8144 35.1798L65.3222 36.3915C64.9472 36.1665 64.5605 36.0024 64.1597 35.8993C63.7613 35.7868 63.3769 35.7306 63.0113 35.7306C62.58 35.7306 62.2285 35.7821 61.9566 35.8853C61.6918 35.9907 61.4972 36.1267 61.3683 36.2931C61.2488 36.4618 61.1902 36.654 61.1902 36.8696C61.1879 37.1251 61.2769 37.3337 61.4527 37.493C61.6355 37.6454 61.8722 37.7673 62.1582 37.854C62.4558 37.943 62.7816 38.0298 63.1425 38.1188C63.5011 38.1985 63.8574 38.2899 64.2089 38.3954C64.5675 38.4985 64.891 38.6344 65.1792 38.8032C65.4745 38.9696 65.7089 39.1993 65.8847 39.4875C66.0698 39.7758 66.1612 40.1391 66.1612 40.5797C66.1612 41.0274 66.037 41.4422 65.7886 41.8266C65.5495 42.2016 65.1769 42.5063 64.6753 42.7383C64.1714 42.9633 63.5363 43.0734 62.7699 43.0734ZM71.3104 43.0758C70.162 43.0758 69.2596 42.75 68.6034 42.1031C67.9565 41.4539 67.6331 40.5188 67.6331 39.2954V34.554L69.1917 34.5564V39.2344C69.1917 40.0993 69.3745 40.7274 69.7425 41.1188C70.1175 41.5102 70.6448 41.7071 71.3245 41.7071C72.0018 41.7071 72.5268 41.5125 72.8924 41.1188C73.2604 40.7274 73.4455 40.0993 73.4455 39.2368V34.5564H74.9783V39.2954C74.9783 40.5188 74.6502 41.4563 73.9963 42.1031C73.3494 42.7523 72.4541 43.0758 71.3104 43.0758ZM77.1603 42.9563V34.5564H80.6103C81.3533 34.5564 81.9884 34.6759 82.5157 34.9173C83.0525 35.1564 83.4626 35.5009 83.7509 35.9485C84.0368 36.3962 84.1821 36.9282 84.1821 37.5446C84.1821 38.161 84.0368 38.693 83.7485 39.1407C83.4626 39.5883 83.0501 39.9329 82.5157 40.1719C81.9884 40.4133 81.3533 40.5328 80.6103 40.5328H78.0228L78.7166 39.7993V42.9563H77.1603ZM78.7166 39.968L78.0228 39.2133H80.5376C81.2267 39.2133 81.74 39.068 82.0845 38.7797C82.4361 38.4844 82.6118 38.0719 82.6118 37.5446C82.6118 37.0079 82.4361 36.5977 82.0845 36.3095C81.7423 36.0212 81.2267 35.8759 80.54 35.8759H78.0228L78.7189 35.1095L78.7166 39.968ZM87.1751 38.0485L91.3445 38.0508V39.3329H87.1751V38.0485ZM87.2946 41.6485L92.0266 41.6508V42.9586L85.736 42.9563L85.7384 34.5564L91.8602 34.5587V35.8665H87.2946V41.6485ZM93.7633 42.9586V34.5587H97.2156C97.9585 34.5587 98.5913 34.6782 99.1187 34.9196C99.6554 35.1587 100.066 35.5032 100.354 35.9509C100.642 36.3985 100.785 36.9306 100.785 37.547C100.785 38.1633 100.64 38.6954 100.354 39.143C100.066 39.5836 99.653 39.9235 99.1187 40.1625C98.5913 40.3946 97.9562 40.5118 97.2132 40.5118L94.6258 40.5094L95.3218 39.8016L95.3195 42.9586H93.7633ZM99.2499 42.9586L97.1312 39.9118H98.7952L100.928 42.9586H99.2499ZM95.3218 39.9704L94.6258 39.2274H97.1429C97.8296 39.2274 98.3452 39.0797 98.6874 38.7821C99.039 38.4868 99.2148 38.0743 99.2148 37.547C99.2148 37.0102 99.039 36.5977 98.6874 36.3118C98.3452 36.0235 97.8296 35.8782 97.1429 35.8782H94.6258L95.3218 35.1095V39.9704ZM105.006 42.9586L101.341 34.5587H103.03L106.302 42.1547H105.332L108.639 34.5611H110.195L106.541 42.9586H105.006ZM111.081 42.9609V34.5611H112.64L112.637 42.9609H111.081ZM117.505 43.0805C116.851 43.0805 116.223 42.9891 115.625 42.8039C115.026 42.6117 114.55 42.368 114.201 42.0727L114.74 40.861C115.075 41.1258 115.49 41.3438 115.984 41.5219C116.479 41.6977 116.987 41.7844 117.508 41.7844C117.946 41.7844 118.302 41.7375 118.574 41.6414C118.843 41.5453 119.045 41.4164 119.172 41.2571C119.3 41.0883 119.364 40.9008 119.364 40.6946C119.364 40.4368 119.272 40.2329 119.087 40.0805C118.904 39.9211 118.665 39.7969 118.37 39.7102C118.082 39.6141 117.758 39.525 117.4 39.4454C117.048 39.3657 116.692 39.2743 116.333 39.1688C115.982 39.0563 115.658 38.918 115.363 38.7493C115.075 38.5735 114.838 38.3415 114.655 38.0532C114.472 37.7649 114.381 37.3969 114.381 36.9493C114.381 36.4923 114.501 36.0774 114.74 35.7001C114.988 35.3181 115.358 35.0134 115.853 34.7884C116.357 34.5564 116.992 34.4415 117.758 34.4415C118.262 34.4415 118.761 34.5048 119.256 34.6337C119.753 34.7626 120.184 34.9454 120.55 35.1845L120.06 36.3985C119.685 36.1735 119.296 36.0095 118.897 35.9063C118.497 35.7938 118.115 35.7376 117.747 35.7376C117.315 35.7376 116.964 35.7892 116.692 35.8923C116.429 35.9978 116.233 36.1337 116.106 36.3001C115.986 36.4688 115.925 36.661 115.925 36.8766C115.925 37.1321 116.012 37.3407 116.19 37.5001C116.373 37.6524 116.608 37.7719 116.896 37.861C117.191 37.9501 117.519 38.0368 117.878 38.1258C118.236 38.2055 118.593 38.2969 118.944 38.4024C119.303 38.5055 119.626 38.6415 119.915 38.8102C120.21 38.9766 120.447 39.2063 120.622 39.4946C120.805 39.7805 120.897 40.1461 120.897 40.5868C120.897 41.0344 120.772 41.4492 120.526 41.8336C120.287 42.2086 119.915 42.5133 119.411 42.7453C118.907 42.9703 118.274 43.0805 117.505 43.0805ZM122.441 42.9609L122.443 34.5611H124V42.9609H122.441ZM130.196 43.0828C129.543 43.0828 128.94 42.975 128.389 42.7594C127.836 42.5414 127.358 42.2414 126.95 41.8594C126.545 41.4656 126.229 41.011 126.004 40.4907C125.781 39.9633 125.668 39.3868 125.668 38.7633C125.668 38.1376 125.781 37.5657 126.006 37.0454C126.228 36.5181 126.545 36.0634 126.953 35.679C127.358 35.2876 127.839 34.9829 128.389 34.7673C128.94 34.5517 129.54 34.4439 130.187 34.4439C130.841 34.4439 131.441 34.5517 131.985 34.7673C132.535 34.9829 133.014 35.2876 133.421 35.679C133.829 36.0634 134.143 36.5204 134.368 37.0477C134.591 37.568 134.703 38.1399 134.703 38.7633C134.703 39.3868 134.591 39.9633 134.368 40.4907C134.143 41.0203 133.829 41.475 133.421 41.8594C133.014 42.2438 132.533 42.5438 131.982 42.7594C131.441 42.975 130.846 43.0828 130.196 43.0828ZM130.187 41.7141C130.609 41.7141 131 41.6438 131.361 41.4985C131.72 41.3555 132.032 41.1516 132.294 40.8867C132.559 40.6149 132.763 40.3032 132.906 39.9516C133.058 39.5907 133.133 39.1946 133.133 38.7633C133.133 38.3321 133.058 37.9384 132.906 37.5868C132.763 37.2282 132.559 36.9141 132.296 36.6516C132.032 36.3798 131.72 36.1712 131.361 36.0259C131.003 35.8829 130.609 35.8103 130.187 35.8103C129.763 35.8103 129.371 35.8829 129.013 36.0259C128.661 36.1712 128.35 36.3774 128.078 36.6516C127.815 36.9141 127.607 37.2259 127.454 37.5868C127.311 37.9384 127.239 38.3298 127.239 38.7633C127.239 39.1876 127.311 39.579 127.454 39.9375C127.607 40.2985 127.813 40.6149 128.078 40.8867C128.34 41.1516 128.652 41.3555 129.013 41.4985C129.371 41.6438 129.763 41.7141 130.187 41.7141ZM136.353 42.9633L136.356 34.5634H137.638L142.897 41.0321H142.262V34.5634H143.806V42.9633H142.524L137.265 36.4946L137.9 36.497V42.9633H136.353Z" fill="#E37009" stroke="#E37009" stroke-width="2" mask="url(#path-7-inside-2_663_3358)"/>
</svg>
