<svg width="21" height="20" viewBox="0 0 21 20" fill="none" xmlns="http://www.w3.org/2000/svg">
<path d="M6.16162 15.5001V9.50006C6.16162 8.39549 7.05705 7.50006 8.16162 7.50006H16.6616C17.7662 7.50006 18.6616 8.39549 18.6616 9.50006V15.5001C18.6616 16.6046 17.7662 17.5001 16.6616 17.5001H8.16162C7.05705 17.5001 6.16162 16.6046 6.16162 15.5001Z" stroke="#97C194" stroke-width="1.5"/>
<path d="M5.74463 13.3334H3.99463C2.89006 13.3334 1.99463 12.4379 1.99463 11.3334V5.33337C1.99463 4.2288 2.89006 3.33337 3.99463 3.33337H12.4946C13.5992 3.33337 14.4946 4.22881 14.4946 5.33337V7.50004" stroke="#97C194" stroke-width="1.5"/>
<path d="M8.66162 10.0001H9.49496" stroke="#97C194" stroke-width="1.5" stroke-linecap="round" stroke-linejoin="round"/>
<path d="M4.49463 5.83337H5.32796" stroke="#97C194" stroke-width="1.5" stroke-linecap="round" stroke-linejoin="round"/>
</svg>
