<svg width="51" height="48" viewBox="0 0 51 48" fill="none" xmlns="http://www.w3.org/2000/svg">
<path d="M25.3942 0.49247C25.3836 0.494912 25.3728 0.496761 25.362 0.498015L25.3448 0.278271L25.3942 0.49247ZM1.52537 4.26296L25.3286 0.504437L49.1294 4.26292L39.0102 6.16772L25.3655 8.73547C25.3411 8.73932 25.3139 8.73932 25.2894 8.73547L11.6447 6.16773L11.6447 6.16772L6.32918 5.16696L6.32918 5.16696L6.32725 5.1666C6.06148 5.11764 5.80577 5.20735 5.62952 5.38046C5.52689 5.15156 5.31769 4.97743 5.0572 4.92802L5.05656 4.9279L1.52537 4.26296ZM5.25974 10.6386C5.3716 10.5813 5.47057 10.498 5.54607 10.3953C5.62223 10.4996 5.7234 10.585 5.84102 10.6425C6.06282 10.7516 6.21479 10.9797 6.21479 11.2434C6.21479 11.4109 6.15306 11.5637 6.04831 11.6851C5.92609 11.8261 5.85386 12.0067 5.85386 12.2043V14.1988C5.85386 14.2108 5.85081 14.2199 5.8461 14.2275C5.84098 14.2359 5.83321 14.2434 5.82333 14.2486L5.82333 14.2486L5.8198 14.2504C5.71491 14.3067 5.61991 14.3876 5.54645 14.4876C5.47298 14.3876 5.37799 14.3067 5.27309 14.2504L5.26956 14.2486C5.25968 14.2434 5.25191 14.2359 5.24679 14.2275C5.24208 14.2199 5.23904 14.2108 5.23904 14.1988V12.2043C5.23904 12.0107 5.16787 11.8269 5.04368 11.6841L4.66638 12.0122L5.04479 11.6853C4.93991 11.5639 4.8781 11.411 4.8781 11.2434C4.8781 10.9796 5.03028 10.7513 5.25234 10.6423L5.25237 10.6423L5.25974 10.6386ZM5.44145 16.2092C5.48026 16.1734 5.51544 16.1339 5.54645 16.0913L5.99058 15.8418L5.64813 16.2061C5.6484 16.2064 5.64867 16.2066 5.64893 16.2069C5.67928 16.2357 5.69149 16.2678 5.69258 16.2938L5.71254 16.773H5.76417L6.78161 23.5261H4.31355L5.32885 16.773H5.3741L5.4 16.3004C5.40201 16.2637 5.41666 16.2325 5.44477 16.2061L5.10234 15.8418L5.44145 16.2092Z" fill="#E37009" stroke="#E37009"/>
<mask id="path-2-inside-1_663_3983" fill="white">
<path d="M39.21 18.659C38.835 18.1997 38.4342 17.759 38.01 17.3348C37.8858 17.2106 37.7592 17.0864 37.6326 16.9669C37.5155 16.8567 37.5389 16.6669 37.6795 16.5895C37.71 16.5731 37.7381 16.5591 37.7662 16.5427C38.7811 15.9708 39.3576 15.3216 39.3576 14.6302V7.46074C39.3576 7.31543 39.224 7.20527 39.0811 7.23105L25.3726 9.81149C25.3422 9.81618 25.314 9.81618 25.2859 9.81149L11.5751 7.23105C11.4322 7.20527 11.2986 7.31543 11.2986 7.46074V14.6302C11.2986 15.3216 11.8728 15.9708 12.89 16.5427C12.9181 16.5591 12.9486 16.5731 12.9767 16.5895C13.1173 16.6645 13.1408 16.8567 13.0236 16.9669C12.897 17.0864 12.7704 17.2106 12.6462 17.3348C12.222 17.759 11.8212 18.1997 11.4486 18.659C11.3033 18.8348 11.1627 19.0129 11.0267 19.1934C8.66893 22.2988 7.3916 26.0699 7.3916 30.0378C7.3916 34.0057 8.54471 37.3994 10.6798 40.4111C10.8111 40.5939 10.947 40.7767 11.0853 40.9572C11.5634 41.5783 12.0837 42.1736 12.6462 42.7384C15.6415 45.7384 19.5086 47.5454 23.6758 47.9251C24.1352 47.9649 24.5992 47.9907 25.0656 47.9954C25.1523 47.9977 25.2414 48.0001 25.3281 48.0001C25.4172 48.0001 25.5039 47.9977 25.5929 47.9954C26.0593 47.9907 26.5234 47.9649 26.9828 47.9251C31.1499 47.5454 35.0171 45.7384 38.0123 42.7384C38.5748 42.1736 39.0951 41.5783 39.5732 40.9572C39.7115 40.7767 39.8451 40.5939 39.9764 40.4111C42.1138 37.3994 43.267 33.8065 43.267 30.0378C43.267 26.0699 41.9896 22.2988 39.6318 19.1934C39.4959 19.0129 39.3553 18.8348 39.21 18.659ZM38.4319 18.8067C38.5303 18.9192 38.4998 19.0926 38.3686 19.1653C38.024 19.3575 37.6561 19.5426 37.2647 19.7207C36.128 20.241 34.8553 20.677 33.4843 21.0238C33.3741 21.052 33.2616 20.9957 33.2147 20.8903C32.8585 20.0981 32.4554 19.3293 32.0054 18.5887C31.921 18.4481 32.0054 18.2653 32.1671 18.2372C33.8897 17.9536 35.3874 17.5669 36.5639 17.1028C36.6459 17.07 36.7397 17.0864 36.8053 17.145C37.3842 17.663 37.928 18.2184 38.4319 18.8067ZM31.1476 18.5231C31.6444 19.2942 32.0921 20.1098 32.4858 20.9606C32.5491 21.0965 32.4694 21.2582 32.3241 21.2887C30.3273 21.7035 28.1546 21.9379 25.9047 21.9731C25.7734 21.9731 25.6679 21.8676 25.6679 21.7363V18.9895C25.6679 18.8606 25.7711 18.7575 25.9 18.7551C27.6789 18.734 29.3734 18.6168 30.9226 18.4176C31.0116 18.4083 31.1007 18.4481 31.1476 18.5231ZM25.9023 30.3776H34.1803C34.3116 30.3776 34.4194 30.4854 34.4147 30.619C34.3374 32.9932 33.8827 35.2596 33.1163 37.3455C33.0741 37.4557 32.9593 37.5166 32.8444 37.4932C30.6952 37.015 28.3398 36.7479 25.8976 36.7127C25.7711 36.7104 25.6679 36.6072 25.6679 36.4783V30.612C25.6679 30.4831 25.7711 30.3776 25.9023 30.3776ZM25.6679 29.4612V22.8871C25.6679 22.7582 25.7711 22.6551 25.8976 22.6527C28.2812 22.6176 30.5804 22.3621 32.685 21.9074C32.7975 21.884 32.9124 21.9426 32.9522 22.0504C33.8475 24.3238 34.3655 26.8269 34.4194 29.4589C34.4217 29.5878 34.3163 29.6956 34.185 29.6956H25.9023C25.7711 29.6956 25.6679 29.5901 25.6679 29.4612ZM14.0923 17.1028C15.2665 17.5645 16.7641 17.9536 18.4868 18.2372C18.6508 18.2629 18.7352 18.4481 18.6485 18.5887C18.1985 19.327 17.7954 20.0957 17.4391 20.8903C17.3923 20.9934 17.2798 21.052 17.1696 21.0238C15.7985 20.677 14.5259 20.241 13.3892 19.7207C12.9978 19.5426 12.6298 19.3575 12.2853 19.1653C12.154 19.0926 12.1236 18.9192 12.222 18.8067C12.7259 18.2161 13.2697 17.6606 13.8486 17.145C13.9142 17.0864 14.0079 17.07 14.0923 17.1028ZM11.4861 19.7301C11.5564 19.634 11.6853 19.6082 11.7884 19.6668C12.1962 19.9012 12.6369 20.1262 13.1079 20.3418C14.2353 20.8551 15.4892 21.291 16.8391 21.6402C16.9751 21.6754 17.0501 21.8207 16.9985 21.9543C16.0985 24.3004 15.604 26.841 15.5548 29.4659C15.5524 29.5925 15.447 29.6956 15.3204 29.6956H8.31503C8.18378 29.6956 8.07831 29.5855 8.083 29.4519C8.20487 25.8168 9.45173 22.4629 11.4861 19.7301ZM8.31503 30.3776H15.3251C15.4517 30.3776 15.5548 30.4784 15.5595 30.605C15.6298 32.9885 16.0704 35.2994 16.8462 37.458C16.8931 37.5893 16.8204 37.7299 16.6868 37.765C15.3954 38.1072 14.1907 38.5291 13.1079 39.0236C12.5009 39.3025 11.9431 39.5978 11.4369 39.9072C11.3314 39.9728 11.1955 39.9424 11.1228 39.8416C9.30174 37.2025 8.1955 34.0338 8.08066 30.619C8.07831 30.4854 8.18378 30.3776 8.31503 30.3776ZM11.8212 40.7814C11.7322 40.6689 11.7626 40.5048 11.8822 40.4322C12.3415 40.158 12.8431 39.8955 13.3892 39.6447C14.4767 39.1478 15.6884 38.7283 16.9915 38.3885C17.1016 38.3603 17.2188 38.4189 17.2657 38.5267C18.1329 40.5798 19.3165 42.4759 20.7883 44.1306C21.693 45.1478 22.6774 46.0431 23.725 46.8071C23.9172 46.9477 23.8 47.2524 23.5609 47.229C18.8196 46.7438 14.6407 44.3275 11.8212 40.7814ZM24.6226 46.5915C21.768 44.6603 19.4501 41.8244 17.9782 38.4377C17.9196 38.3018 18.0016 38.1471 18.1446 38.1166C20.193 37.676 22.4289 37.4299 24.7492 37.3947C24.8805 37.3924 24.9859 37.4979 24.9859 37.6291V46.397C24.9859 46.5845 24.7773 46.697 24.6203 46.5915H24.6226ZM24.7562 36.7127C22.3141 36.7479 19.9586 37.015 17.8094 37.4908C17.6969 37.5166 17.5798 37.4557 17.5399 37.3455C16.7712 35.2596 16.3165 32.9909 16.2415 30.619C16.2368 30.4854 16.3423 30.3776 16.4735 30.3776H24.7539C24.8828 30.3776 24.9883 30.4808 24.9883 30.612V36.4783C24.9883 36.6072 24.8851 36.7104 24.7562 36.7127ZM24.7539 29.6956H16.4688C16.3376 29.6956 16.2321 29.5878 16.2345 29.4589C16.2884 26.8269 16.8063 24.3238 17.7016 22.0504C17.7438 21.9426 17.8563 21.884 17.9688 21.9074C20.0758 22.3621 22.375 22.6176 24.7562 22.6527C24.8851 22.6551 24.9883 22.7582 24.9883 22.8871V29.4612C24.9883 29.5925 24.8828 29.6956 24.7539 29.6956ZM18.168 20.9606C18.5618 20.1098 19.0094 19.2942 19.5063 18.5231C19.5532 18.4458 19.6422 18.4059 19.7313 18.4176C21.2805 18.6168 22.975 18.734 24.7539 18.7551C24.8828 18.7575 24.9859 18.8606 24.9859 18.9895V21.7363C24.9859 21.8676 24.8805 21.9731 24.7492 21.9707C22.4992 21.9379 20.3289 21.7035 18.3321 21.2887C18.1844 21.2582 18.1048 21.0965 18.168 20.9606ZM25.9047 37.3947C28.2249 37.4299 30.4632 37.676 32.5093 38.1166C32.6522 38.1471 32.7343 38.3018 32.6757 38.4377C31.2038 41.8244 28.8859 44.6603 26.0312 46.5915C25.8765 46.697 25.6679 46.5845 25.6679 46.397V37.6291C25.6679 37.4979 25.7734 37.3924 25.9047 37.3947ZM27.0929 47.229C26.8562 47.2524 26.7367 46.9477 26.9289 46.8071C27.9789 46.0407 28.9632 45.1478 29.8679 44.1306C31.3398 42.4736 32.5233 40.5798 33.3905 38.5267C33.435 38.4189 33.5522 38.3603 33.6647 38.3885C34.9678 38.7283 36.1772 39.1478 37.2647 39.6447C37.8108 39.8931 38.3147 40.158 38.7717 40.4322C38.8936 40.5048 38.9217 40.6689 38.8326 40.7814C36.0131 44.3275 31.8343 46.7438 27.0929 47.229ZM39.5311 39.8416C39.4607 39.9424 39.3225 39.9728 39.217 39.9072C38.7108 39.5978 38.1553 39.3025 37.5483 39.0236C36.4631 38.5291 35.2608 38.1072 33.9694 37.765C33.8358 37.7299 33.7608 37.5893 33.8077 37.458C34.5835 35.2994 35.0241 32.9885 35.0967 30.605C35.0991 30.4784 35.2022 30.3776 35.3288 30.3776H42.3388C42.4701 30.3776 42.5756 30.4854 42.5732 30.619C42.4584 34.0338 41.3521 37.2025 39.5311 39.8416ZM35.1014 29.4659C35.0499 26.841 34.5553 24.3004 33.6553 21.9543C33.6038 21.8207 33.6788 21.6754 33.8171 21.6402C35.1647 21.291 36.4209 20.8551 37.5483 20.3418C38.017 20.1262 38.4576 19.9012 38.8678 19.6668C38.9686 19.6082 39.0998 19.634 39.1701 19.7301C41.2045 22.4629 42.4513 25.8168 42.5732 29.4519C42.5779 29.5855 42.4724 29.6956 42.3388 29.6956H35.3358C35.2069 29.6956 35.1038 29.5925 35.1014 29.4659Z"/>
</mask>
<path d="M39.21 18.659C38.835 18.1997 38.4342 17.759 38.01 17.3348C37.8858 17.2106 37.7592 17.0864 37.6326 16.9669C37.5155 16.8567 37.5389 16.6669 37.6795 16.5895C37.71 16.5731 37.7381 16.5591 37.7662 16.5427C38.7811 15.9708 39.3576 15.3216 39.3576 14.6302V7.46074C39.3576 7.31543 39.224 7.20527 39.0811 7.23105L25.3726 9.81149C25.3422 9.81618 25.314 9.81618 25.2859 9.81149L11.5751 7.23105C11.4322 7.20527 11.2986 7.31543 11.2986 7.46074V14.6302C11.2986 15.3216 11.8728 15.9708 12.89 16.5427C12.9181 16.5591 12.9486 16.5731 12.9767 16.5895C13.1173 16.6645 13.1408 16.8567 13.0236 16.9669C12.897 17.0864 12.7704 17.2106 12.6462 17.3348C12.222 17.759 11.8212 18.1997 11.4486 18.659C11.3033 18.8348 11.1627 19.0129 11.0267 19.1934C8.66893 22.2988 7.3916 26.0699 7.3916 30.0378C7.3916 34.0057 8.54471 37.3994 10.6798 40.4111C10.8111 40.5939 10.947 40.7767 11.0853 40.9572C11.5634 41.5783 12.0837 42.1736 12.6462 42.7384C15.6415 45.7384 19.5086 47.5454 23.6758 47.9251C24.1352 47.9649 24.5992 47.9907 25.0656 47.9954C25.1523 47.9977 25.2414 48.0001 25.3281 48.0001C25.4172 48.0001 25.5039 47.9977 25.5929 47.9954C26.0593 47.9907 26.5234 47.9649 26.9828 47.9251C31.1499 47.5454 35.0171 45.7384 38.0123 42.7384C38.5748 42.1736 39.0951 41.5783 39.5732 40.9572C39.7115 40.7767 39.8451 40.5939 39.9764 40.4111C42.1138 37.3994 43.267 33.8065 43.267 30.0378C43.267 26.0699 41.9896 22.2988 39.6318 19.1934C39.4959 19.0129 39.3553 18.8348 39.21 18.659ZM38.4319 18.8067C38.5303 18.9192 38.4998 19.0926 38.3686 19.1653C38.024 19.3575 37.6561 19.5426 37.2647 19.7207C36.128 20.241 34.8553 20.677 33.4843 21.0238C33.3741 21.052 33.2616 20.9957 33.2147 20.8903C32.8585 20.0981 32.4554 19.3293 32.0054 18.5887C31.921 18.4481 32.0054 18.2653 32.1671 18.2372C33.8897 17.9536 35.3874 17.5669 36.5639 17.1028C36.6459 17.07 36.7397 17.0864 36.8053 17.145C37.3842 17.663 37.928 18.2184 38.4319 18.8067ZM31.1476 18.5231C31.6444 19.2942 32.0921 20.1098 32.4858 20.9606C32.5491 21.0965 32.4694 21.2582 32.3241 21.2887C30.3273 21.7035 28.1546 21.9379 25.9047 21.9731C25.7734 21.9731 25.6679 21.8676 25.6679 21.7363V18.9895C25.6679 18.8606 25.7711 18.7575 25.9 18.7551C27.6789 18.734 29.3734 18.6168 30.9226 18.4176C31.0116 18.4083 31.1007 18.4481 31.1476 18.5231ZM25.9023 30.3776H34.1803C34.3116 30.3776 34.4194 30.4854 34.4147 30.619C34.3374 32.9932 33.8827 35.2596 33.1163 37.3455C33.0741 37.4557 32.9593 37.5166 32.8444 37.4932C30.6952 37.015 28.3398 36.7479 25.8976 36.7127C25.7711 36.7104 25.6679 36.6072 25.6679 36.4783V30.612C25.6679 30.4831 25.7711 30.3776 25.9023 30.3776ZM25.6679 29.4612V22.8871C25.6679 22.7582 25.7711 22.6551 25.8976 22.6527C28.2812 22.6176 30.5804 22.3621 32.685 21.9074C32.7975 21.884 32.9124 21.9426 32.9522 22.0504C33.8475 24.3238 34.3655 26.8269 34.4194 29.4589C34.4217 29.5878 34.3163 29.6956 34.185 29.6956H25.9023C25.7711 29.6956 25.6679 29.5901 25.6679 29.4612ZM14.0923 17.1028C15.2665 17.5645 16.7641 17.9536 18.4868 18.2372C18.6508 18.2629 18.7352 18.4481 18.6485 18.5887C18.1985 19.327 17.7954 20.0957 17.4391 20.8903C17.3923 20.9934 17.2798 21.052 17.1696 21.0238C15.7985 20.677 14.5259 20.241 13.3892 19.7207C12.9978 19.5426 12.6298 19.3575 12.2853 19.1653C12.154 19.0926 12.1236 18.9192 12.222 18.8067C12.7259 18.2161 13.2697 17.6606 13.8486 17.145C13.9142 17.0864 14.0079 17.07 14.0923 17.1028ZM11.4861 19.7301C11.5564 19.634 11.6853 19.6082 11.7884 19.6668C12.1962 19.9012 12.6369 20.1262 13.1079 20.3418C14.2353 20.8551 15.4892 21.291 16.8391 21.6402C16.9751 21.6754 17.0501 21.8207 16.9985 21.9543C16.0985 24.3004 15.604 26.841 15.5548 29.4659C15.5524 29.5925 15.447 29.6956 15.3204 29.6956H8.31503C8.18378 29.6956 8.07831 29.5855 8.083 29.4519C8.20487 25.8168 9.45173 22.4629 11.4861 19.7301ZM8.31503 30.3776H15.3251C15.4517 30.3776 15.5548 30.4784 15.5595 30.605C15.6298 32.9885 16.0704 35.2994 16.8462 37.458C16.8931 37.5893 16.8204 37.7299 16.6868 37.765C15.3954 38.1072 14.1907 38.5291 13.1079 39.0236C12.5009 39.3025 11.9431 39.5978 11.4369 39.9072C11.3314 39.9728 11.1955 39.9424 11.1228 39.8416C9.30174 37.2025 8.1955 34.0338 8.08066 30.619C8.07831 30.4854 8.18378 30.3776 8.31503 30.3776ZM11.8212 40.7814C11.7322 40.6689 11.7626 40.5048 11.8822 40.4322C12.3415 40.158 12.8431 39.8955 13.3892 39.6447C14.4767 39.1478 15.6884 38.7283 16.9915 38.3885C17.1016 38.3603 17.2188 38.4189 17.2657 38.5267C18.1329 40.5798 19.3165 42.4759 20.7883 44.1306C21.693 45.1478 22.6774 46.0431 23.725 46.8071C23.9172 46.9477 23.8 47.2524 23.5609 47.229C18.8196 46.7438 14.6407 44.3275 11.8212 40.7814ZM24.6226 46.5915C21.768 44.6603 19.4501 41.8244 17.9782 38.4377C17.9196 38.3018 18.0016 38.1471 18.1446 38.1166C20.193 37.676 22.4289 37.4299 24.7492 37.3947C24.8805 37.3924 24.9859 37.4979 24.9859 37.6291V46.397C24.9859 46.5845 24.7773 46.697 24.6203 46.5915H24.6226ZM24.7562 36.7127C22.3141 36.7479 19.9586 37.015 17.8094 37.4908C17.6969 37.5166 17.5798 37.4557 17.5399 37.3455C16.7712 35.2596 16.3165 32.9909 16.2415 30.619C16.2368 30.4854 16.3423 30.3776 16.4735 30.3776H24.7539C24.8828 30.3776 24.9883 30.4808 24.9883 30.612V36.4783C24.9883 36.6072 24.8851 36.7104 24.7562 36.7127ZM24.7539 29.6956H16.4688C16.3376 29.6956 16.2321 29.5878 16.2345 29.4589C16.2884 26.8269 16.8063 24.3238 17.7016 22.0504C17.7438 21.9426 17.8563 21.884 17.9688 21.9074C20.0758 22.3621 22.375 22.6176 24.7562 22.6527C24.8851 22.6551 24.9883 22.7582 24.9883 22.8871V29.4612C24.9883 29.5925 24.8828 29.6956 24.7539 29.6956ZM18.168 20.9606C18.5618 20.1098 19.0094 19.2942 19.5063 18.5231C19.5532 18.4458 19.6422 18.4059 19.7313 18.4176C21.2805 18.6168 22.975 18.734 24.7539 18.7551C24.8828 18.7575 24.9859 18.8606 24.9859 18.9895V21.7363C24.9859 21.8676 24.8805 21.9731 24.7492 21.9707C22.4992 21.9379 20.3289 21.7035 18.3321 21.2887C18.1844 21.2582 18.1048 21.0965 18.168 20.9606ZM25.9047 37.3947C28.2249 37.4299 30.4632 37.676 32.5093 38.1166C32.6522 38.1471 32.7343 38.3018 32.6757 38.4377C31.2038 41.8244 28.8859 44.6603 26.0312 46.5915C25.8765 46.697 25.6679 46.5845 25.6679 46.397V37.6291C25.6679 37.4979 25.7734 37.3924 25.9047 37.3947ZM27.0929 47.229C26.8562 47.2524 26.7367 46.9477 26.9289 46.8071C27.9789 46.0407 28.9632 45.1478 29.8679 44.1306C31.3398 42.4736 32.5233 40.5798 33.3905 38.5267C33.435 38.4189 33.5522 38.3603 33.6647 38.3885C34.9678 38.7283 36.1772 39.1478 37.2647 39.6447C37.8108 39.8931 38.3147 40.158 38.7717 40.4322C38.8936 40.5048 38.9217 40.6689 38.8326 40.7814C36.0131 44.3275 31.8343 46.7438 27.0929 47.229ZM39.5311 39.8416C39.4607 39.9424 39.3225 39.9728 39.217 39.9072C38.7108 39.5978 38.1553 39.3025 37.5483 39.0236C36.4631 38.5291 35.2608 38.1072 33.9694 37.765C33.8358 37.7299 33.7608 37.5893 33.8077 37.458C34.5835 35.2994 35.0241 32.9885 35.0967 30.605C35.0991 30.4784 35.2022 30.3776 35.3288 30.3776H42.3388C42.4701 30.3776 42.5756 30.4854 42.5732 30.619C42.4584 34.0338 41.3521 37.2025 39.5311 39.8416ZM35.1014 29.4659C35.0499 26.841 34.5553 24.3004 33.6553 21.9543C33.6038 21.8207 33.6788 21.6754 33.8171 21.6402C35.1647 21.291 36.4209 20.8551 37.5483 20.3418C38.017 20.1262 38.4576 19.9012 38.8678 19.6668C38.9686 19.6082 39.0998 19.634 39.1701 19.7301C41.2045 22.4629 42.4513 25.8168 42.5732 29.4519C42.5779 29.5855 42.4724 29.6956 42.3388 29.6956H35.3358C35.2069 29.6956 35.1038 29.5925 35.1014 29.4659Z" fill="#E37009" stroke="#E37009" stroke-width="2" mask="url(#path-2-inside-1_663_3983)"/>
<path d="M14.714 26.5033L15.2103 26.4419C15.1743 26.1514 15.0978 25.8823 14.958 25.6577C14.9162 25.5907 14.8692 25.529 14.8175 25.4729H16.6661C16.6143 25.529 16.5674 25.5907 16.5256 25.6577C16.3857 25.8823 16.3092 26.1514 16.2733 26.4419C16.2395 26.7148 16.2226 27.0459 16.2226 27.4315V32.8056C16.2226 33.2329 16.2393 33.5884 16.2733 33.8631L16.2734 33.8637C16.3102 34.1587 16.3982 34.4439 16.5735 34.6722C16.598 34.7045 16.6238 34.7352 16.6508 34.7642H14.8291C14.8576 34.7331 14.8847 34.7003 14.9103 34.6655L14.9104 34.6655L14.9137 34.6608C15.0725 34.4401 15.1596 34.1651 15.2016 33.8751C15.2446 33.5916 15.2609 33.2296 15.2609 32.8056V27.4315C15.2609 27.0438 15.2441 26.7123 15.2102 26.4413L14.714 26.5033ZM14.714 26.5033C14.7445 26.7471 14.7609 27.0565 14.7609 27.4315V32.8056C14.7609 33.2228 14.7445 33.5556 14.707 33.8017L17.3976 34.6431C17.2148 34.5939 17.0718 34.5025 16.9711 34.3689C16.8679 34.2353 16.8 34.0454 16.7695 33.8017C16.739 33.5556 16.7226 33.2228 16.7226 32.8056V27.4315C16.7226 27.0588 16.739 26.7494 16.7695 26.5033C16.8 26.2573 16.8609 26.0651 16.95 25.9221C17.039 25.7791 17.1656 25.6784 17.3296 25.6198M14.714 26.5033C14.6836 26.2573 14.6226 26.0651 14.5336 25.9221C14.4445 25.7791 14.318 25.6784 14.1539 25.6198C14.0391 25.5799 13.8961 25.5495 13.7273 25.5284C13.5937 25.512 13.493 25.3971 13.493 25.2612V25.2401C13.493 25.0924 13.6125 24.9729 13.7625 24.9729H17.7234C17.871 24.9729 17.9906 25.0924 17.9906 25.2401V25.2612C17.9906 25.3971 17.8898 25.512 17.7562 25.5284C17.5874 25.5495 17.4445 25.5799 17.3296 25.6198M17.3296 25.6198L17.3296 25.6198L17.3296 25.6198Z" fill="#E37009" stroke="#E37009"/>
<path d="M23.2373 34.7665H21.4331C21.4351 34.7643 21.4371 34.7621 21.4391 34.7599L21.0699 34.4228L21.4392 34.7599C21.6205 34.5613 21.7146 34.314 21.7626 34.0617L21.7627 34.0617L21.7637 34.056C21.8062 33.8177 21.823 33.5315 21.823 33.2064V27.0307C21.823 26.7082 21.8088 26.4275 21.7723 26.1977L21.7724 26.1977L21.7714 26.1919C21.7305 25.9528 21.6496 25.7092 21.4885 25.509C21.4787 25.4966 21.4687 25.4846 21.4585 25.4729H22.95C22.8208 25.6269 22.7871 25.8091 22.7871 25.9502V29.7166C22.7871 30.0003 22.9426 30.2534 23.1768 30.3867C22.9434 30.519 22.7871 30.7704 22.7871 31.0572V33.1408C22.7871 33.4932 22.8086 33.8067 22.8635 34.0643C22.9205 34.3347 23.0412 34.5761 23.2373 34.7665ZM27.3974 29.6184C27.0122 29.878 26.4997 30.0705 25.8447 30.1808C26.0421 30.0904 26.2211 29.9778 26.3788 29.8404C26.9249 29.3649 27.1503 28.652 27.1503 27.8205C27.1503 27.0716 26.9603 26.4161 26.5091 25.9298C26.3821 25.7923 26.2388 25.6774 26.0816 25.5829C26.6721 25.6886 27.1301 25.8669 27.4714 26.1031C28.0133 26.4805 28.2972 27.0294 28.2972 27.8322V27.9559C28.268 28.6997 27.9665 29.2349 27.3974 29.6184Z" fill="#E37009" stroke="#E37009"/>
<path d="M30.8448 34.1355C30.6353 34.088 30.4186 34.1337 30.2461 34.2503V33.3643C30.4079 33.6495 30.6071 33.9074 30.8448 34.1355ZM35.8552 34.1472C35.6837 34.2775 35.4899 34.3938 35.2731 34.4953C35.5037 34.3139 35.6936 34.096 35.8319 33.8405L35.8319 33.8405L35.8351 33.8343C35.9806 33.5562 36.0515 33.2509 36.0515 32.9275C36.0515 32.6629 36.0114 32.41 35.9108 32.1763C35.8 31.9131 35.6017 31.701 35.3828 31.5265L35.3804 31.5246C35.1523 31.345 34.86 31.1762 34.5134 31.0165C34.1737 30.8566 33.7394 30.6784 33.2199 30.4824C32.2164 30.0934 31.525 29.6638 31.0974 29.2105C30.6866 28.7702 30.4875 28.2663 30.4875 27.6729C30.4875 27.3206 30.5545 27.0084 30.6809 26.7332C30.8106 26.451 30.9922 26.2091 31.2256 26.0079L31.2259 26.0077C31.3552 25.8961 31.5004 25.7969 31.6634 25.7101C31.2355 26.0702 31.0086 26.5481 31.0086 27.1128C31.0086 27.3513 31.0477 27.5887 31.142 27.8095C31.2462 28.0568 31.4294 28.26 31.6388 28.4259L31.9492 28.0338L31.6388 28.4259C31.8489 28.5922 32.1183 28.7469 32.4295 28.8938L32.6429 28.4417L32.4295 28.8938C32.7402 29.0404 33.1337 29.2004 33.6016 29.3715C34.2051 29.6039 34.7132 29.8376 35.1272 30.0688L35.129 30.0698C35.5393 30.2967 35.8589 30.5323 36.0965 30.7718L36.0964 30.7718L36.0979 30.7733C36.3416 31.017 36.5083 31.2607 36.613 31.505L37.0726 31.308L36.613 31.505C36.7176 31.7492 36.7741 32.026 36.7741 32.3369C36.7741 32.7167 36.6926 33.0509 36.5361 33.349L36.535 33.3512C36.3772 33.6554 36.1531 33.9186 35.8552 34.1472ZM35.9609 26.6957C35.8136 26.4486 35.6434 26.2262 35.4495 26.0304C35.6246 26.0696 35.8054 26.0444 35.9609 25.9663V26.6957Z" fill="#E37009" stroke="#E37009"/>
</svg>
